<svg id="1842622d-a93c-4efb-aca5-9d98fa1c1e23" data-name="Layer 85" xmlns="http://www.w3.org/2000/svg" viewBox="0 0 169.54 194"><title>bookmark</title><path d="M161.28,3H57C37.8,3,18.46,13.67,18.46,31V185c0,6.6,6,12,13.23,12,0,0,9.87.17,12.18-2,14.33-13.5,35.28-42.5,46.58-42.5S127.86,185.57,144,196c1.49,1,7.24,1,7.24,1,7.28,0,13.23-5.4,13.23-12V42h14.71c7.28,0,8.82.6,8.82-6V31C188,14.75,175.48,3,161.28,3ZM145.84,154.28c0,4.8-.37,18.72-.37,18.72S135.11,163,134,162.27c-11.94-7.58-34.58-31.62-42.94-31.62s-28.27,19.08-38.88,28.89C50.48,161.12,37.8,175,37.8,175V154.28s-2.67-111.9,0-122.55C40.37,21.46,51.76,22,59.72,22h76.34c5.38,0,9.79,3.92,9.79,8.72Z" transform="translate(-18.46 -3)"/></svg>