<svg id="b17f8972-fd10-4a96-a2ec-6f28125c6cb1" data-name="Layer 64" xmlns="http://www.w3.org/2000/svg" viewBox="0 0 194.33 180.6"><title>chat-outline</title><path d="M176.45,33.45c.66,0,1.2,0,1.64.07V133.92c-.37,0-.82,0-1.36,0h-.29c-13.56-.18-26.89-.2-37-.2l-16.79,0-16.73,0q-7.91,0-15.82,0H90a30.81,30.81,0,0,0-21.68,8.61q-5.82,5.45-11.73,10.92a23,23,0,0,0-6.34-12.74,23.38,23.38,0,0,0-16.81-6.76c-.5,0-1,0-1.53,0s-1.37,0-2.31,0l-2.47,0-2.86,0h-.47V33.58h2.72l38.68,0,38.71,0c29.07,0,51.42-.05,72.45-.17h.13m0-20h-.24q-36.17.2-72.33.17-38.7,0-77.4,0H24.19c-11,0-16.35,3.65-20.43,14V139.88c4.08,10.32,9.39,13.95,20.45,14,1.79,0,3.57,0,5.36,0,1.12,0,2.25,0,3.37-.08h.47c2.63,0,3.52,1.31,3.49,4.06-.1,10.12-.05,20.24,0,30.36,0,2.1-.46,4.54,2.14,5.56a3.7,3.7,0,0,0,1.36.28c1.72,0,3-1.38,4.24-2.55C57.09,180,69.59,168.57,82,157a10.85,10.85,0,0,1,8-3.21H90q7.95,0,15.89,0c11.17,0,22.34,0,33.52,0,12.25,0,24.49,0,36.74.2h.55c10.23,0,17.34-3.77,21.36-13.33V26.77c-4.06-9.64-11.26-13.32-21.64-13.32Z" transform="translate(-3.76 -13.45)"/></svg>