<svg id="8149059e-db38-4883-9761-b38eab0e75fd" data-name="Layer 38" xmlns="http://www.w3.org/2000/svg" viewBox="0 0 196.89 147.97"><title>check</title><g id="30a87ce9-f8a8-4554-a7f7-f370512b2ad8" data-name="pZJXEp.tif"><path d="M1.72,97.06c1.91-3.47,5.27-5.54,8-8.16,3.52-3.35,7.22-6.52,10.83-9.77s6.88-3.17,10.24.26q19.18,19.51,38.33,39c3.81,3.88,6.8,3.88,10.68,0q34.95-34.83,69.89-69.66c6.66-6.64,13.38-13.22,20-19.88a9.63,9.63,0,0,1,4.44-2.51h1.54a10.29,10.29,0,0,1,4.45,2.87c5.25,5.34,10.55,10.62,15.83,15.93,3.46,3.48,3.49,7,.06,10.37L79.67,171.81c-3.37,3.37-6.93,3.4-10.24.11C47,149.66,25.28,126.68,3.52,103.76a22.65,22.65,0,0,1-1.8-2.47Z" transform="translate(-1.72 -26.38)"/></g></svg>