<?xml version="1.0" encoding="UTF-8" standalone="no"?><!DOCTYPE svg PUBLIC "-//W3C//DTD SVG 1.1//EN" "http://www.w3.org/Graphics/SVG/1.1/DTD/svg11.dtd"><svg width="100%" height="100%" viewBox="0 0 200 200" version="1.1" xmlns="http://www.w3.org/2000/svg" xmlns:xlink="http://www.w3.org/1999/xlink" xml:space="preserve" style="fill-rule:evenodd;clip-rule:evenodd;stroke-linejoin:round;stroke-miterlimit:1.41421;"><path d="M162.642,100.899c0.295,-2.655 0.442,-4.917 0.442,-6.785c0,-9.638 -1.622,-9.687 -7.867,-9.687l-37.125,0c3.589,-5.901 5.654,-11.999 5.654,-18.194c0,-18.637 -28.175,-27.734 -28.175,-43.272c0,-5.753 2.507,-10.474 4.573,-17.161c-13.031,3.442 -23.308,16.472 -23.308,30.29c0,23.75 27.684,23.947 27.684,41.698c0,2.213 -0.689,4.18 -1.033,6.639l-27.487,0c0.393,-1.476 0.639,-3.049 0.639,-4.574c0,-11.211 -19.226,-16.669 -19.226,-25.963c0,-3.442 0.491,-6.294 1.573,-10.326c-6.343,2.508 -13.916,9.835 -13.916,18.096c0,13.129 15.686,14.407 18.096,22.767l-49.566,0c-6.245,0 -7.868,0.049 -7.868,9.687c0,9.637 3.786,30.142 13.916,54.581c10.13,24.439 21.833,35.208 30.094,42.387l0.049,-0.098c2.508,2.261 5.802,3.589 9.441,3.589l50.353,0c3.638,0 6.933,-1.328 9.441,-3.589l0.049,0.098c4.426,-3.836 9.835,-8.753 15.44,-16.178c2.311,0.984 4.819,1.819 7.573,2.459c4.13,0.983 8.261,1.475 12.195,1.475c11.801,0 22.422,-4.524 29.897,-12.687c6.589,-7.179 10.375,-16.915 10.375,-26.651c0,-19.128 -13.768,-35.109 -31.913,-38.601Zm-8.359,62.351c-4.229,0 -7.671,-0.59 -10.868,-2.065c1.967,-3.934 3.885,-7.819 5.754,-12.342c4.966,-11.998 8.408,-23.111 10.621,-32.356c10.818,2.114 19.03,11.703 19.03,23.16c0,11.163 -8.458,23.603 -24.537,23.603Z" style="fill-rule:nonzero;"/></svg>