<?xml version="1.0" encoding="UTF-8" standalone="no"?><!DOCTYPE svg PUBLIC "-//W3C//DTD SVG 1.1//EN" "http://www.w3.org/Graphics/SVG/1.1/DTD/svg11.dtd"><svg width="100%" height="100%" viewBox="0 0 200 200" version="1.1" xmlns="http://www.w3.org/2000/svg" xmlns:xlink="http://www.w3.org/1999/xlink" xml:space="preserve" style="fill-rule:evenodd;clip-rule:evenodd;stroke-linejoin:round;stroke-miterlimit:1.41421;"><g id="Layer1"><g><path d="M118.311,2.892c-1.415,1.414 -1.455,3.021 -0.116,4.589c0.765,0.918 1.301,1.185 2.334,1.185c1.76,0 3.556,-1.72 3.556,-3.442c0,-0.842 -0.344,-1.569 -1.109,-2.334c-0.765,-0.765 -1.49,-1.109 -2.334,-1.109c-0.843,0 -1.566,0.346 -2.331,1.111Z" style="fill-rule:nonzero;"/><path d="M110.278,12.836c-1.492,1.493 -1.53,3.519 -0.116,4.82c1.493,1.376 3.327,1.3 4.82,-0.192c0.995,-1.033 1.147,-1.377 0.957,-2.602c-0.498,-2.981 -3.595,-4.09 -5.661,-2.026Z" style="fill-rule:nonzero;"/><path d="M99.722,21.29c-4.321,2.64 -2.409,9.563 2.64,9.563c2.715,0 5.279,-2.486 5.279,-5.087c0,-1.644 -1.109,-3.711 -2.448,-4.514c-1.532,-0.919 -3.902,-0.919 -5.471,0.038Z" style="fill-rule:nonzero;"/><path d="M120.415,30.088c-1.607,0.649 -2.832,2.601 -2.832,4.513c0,5.201 5.967,7.343 9.142,3.289c2.561,-3.251 0.113,-8.224 -4.017,-8.146c-0.841,-0.002 -1.834,0.152 -2.293,0.344Z" style="fill-rule:nonzero;"/><path d="M102.782,39.459c-1.683,0.727 -2.792,2.639 -2.792,4.819c0,5.431 7.727,6.848 9.753,1.798c1.76,-4.475 -2.524,-8.569 -6.961,-6.617Z" style="fill-rule:nonzero;"/><path d="M66.444,45.655c-3.594,8.568 -8.911,24.327 -11.245,33.276c-2.523,9.907 -3.175,14.114 -3.175,20.578c0.038,7.459 0.612,9.601 5.279,19.316c4.744,9.83 5.011,10.71 4.973,15.683c-0.038,3.71 -0.305,5.201 -3.862,19.889c-3.672,15.031 -3.902,15.91 -5.011,16.868l-1.185,1.071l-6.999,-0.23c-7.153,-0.192 -9.104,0.038 -9.104,1.187c0,1.682 4.82,3.518 17.634,6.693c12.124,2.983 16.676,3.862 19.85,3.862c5.661,0 3.903,-2.333 -4.589,-6.158c-5.737,-2.563 -6.886,-3.48 -6.886,-5.43c0,-0.612 1.721,-8.3 3.825,-17.06c4.589,-18.894 4.973,-19.889 9.447,-24.173c1.644,-1.568 4.438,-3.862 6.234,-5.125c1.76,-1.263 4.438,-3.251 5.966,-4.476c4.438,-3.556 9.257,-10.06 8.836,-11.894c-1.721,-7.459 -2.754,-12.66 -3.863,-19.775c-1.682,-10.824 -3.404,-24.097 -3.137,-24.403c0.114,-0.116 4.246,-1.185 9.104,-2.372l8.911,-2.142l0.46,-3.251c0.267,-1.76 0.343,-3.326 0.191,-3.442c-0.267,-0.268 -39.855,-9.907 -40.621,-9.907c-0.229,0 -0.687,0.65 -1.033,1.415Z" style="fill-rule:nonzero;"/><path d="M121.791,60.305c-5.776,1.414 -14.955,3.672 -20.386,4.973l-9.869,2.41l0.192,1.376c0.114,0.766 0.727,5.431 1.377,10.367c2.447,18.588 4.781,30.328 7.648,38.439c3.329,9.333 7.345,14.342 17.214,21.381c2.639,1.874 5.852,4.514 7.115,5.815c3.902,3.902 4.552,5.698 8.95,23.829c2.104,8.721 3.824,16.37 3.824,17.022c-0.038,1.912 -1.071,2.753 -6.12,5.011c-7.497,3.366 -9.715,5.049 -8.186,6.196c1.376,1.033 5.966,0.421 17.365,-2.256c14.612,-3.407 22.109,-5.856 22.72,-7.463c0.154,-0.344 0,-0.879 -0.343,-1.225c-0.536,-0.535 -1.723,-0.611 -8.225,-0.497c-7.42,0.076 -7.612,0.076 -8.605,-0.766c-0.917,-0.803 -1.377,-2.409 -4.82,-16.751c-2.371,-9.907 -3.902,-17.022 -4.016,-18.934c-0.344,-4.552 0.46,-7.229 4.628,-15.873c4.13,-8.568 5.47,-12.738 5.814,-18.015c0.498,-7.918 -2.256,-21.305 -7.802,-37.828c-2.486,-7.381 -7.305,-19.889 -7.687,-19.851c-0.154,0.038 -5.011,1.223 -10.788,2.64Z" style="fill-rule:nonzero;"/></g></g></svg>