<svg id="2d2c8117-cba7-4b9c-8f1b-a21c66ef837d" data-name="Layer 55" xmlns="http://www.w3.org/2000/svg" viewBox="0 0 200 200"><title>drop</title><path d="M99.06,179.39C78,179.67,58.38,166,50.51,146.12,46,134.6,45.89,122.86,49,111c3.66-14,9.69-27.09,16.6-39.78C75,53.87,86.14,37.64,98,21.9c1.1-1.45,1.76-1.53,2.89-.09,4.52,5.74,8.74,11.69,12.88,17.7A325.94,325.94,0,0,1,139.6,83a151.26,151.26,0,0,1,11.13,30.62c5.81,24.48-5.63,49.45-28,60.43A50.45,50.45,0,0,1,99.06,179.39ZM74.92,86.24c-.23.14-.38.17-.43.26-5.07,10.39-9.79,20.9-11.7,32.43a40.09,40.09,0,0,0,6.45,29.44A14.06,14.06,0,0,0,80.82,155a7.59,7.59,0,0,0,7.52-3.92c1.61-2.8.66-5.44-.91-7.9-1.26-2-2.68-3.85-4-5.81-7-10.62-10.78-22.17-10.44-35A119.91,119.91,0,0,1,74.92,86.24Z"/></svg>