<svg id="80196173-e6fa-4a73-be57-1fd1959c538c" data-name="Layer 14" xmlns="http://www.w3.org/2000/svg" viewBox="0 0 198.33 176.66"><title>element</title><polygon points="96.95 176.66 0 133.77 0 56.2 96.95 99.09 96.95 176.66"/><polyline points="198.33 57.2 101.38 100.09 101.38 176.66 198.33 133.77"/><path d="M174.92,46.36v-4h0v0c0-6.6-13-12-29-12a68.86,68.86,0,0,0-7,.35l-10.35-4.51-.05-.31V24.1h0v0c0-6.6-13-12-29-12s-29,5.35-29,12v0h0v1.46l.2-.09C72.51,31.42,84.75,36,99.62,36,114,36,126,31.7,128.21,26l.29-1,0,1.12.06.88v5.74C121.54,34.93,117,38.41,117,42.32v0h0v3.32s0-3,0-3c.42,6.45,13.22,11.62,29,11.62,13.06,0,24.18-3.5,27.8-8.39l1.06-2.55v3l.1.77v4.17h0s0,3,0,3.06c0,6.6-13,12-29,12-7.15,0-15.82-2.53-18.75-5.85a21.26,21.26,0,0,0-8.13-4.66c-1.34-1.38-2.09.12-2.09-1.45,0,0,0-3,0-3.06h0v-8.6c-.68.21-.39,1.47-1.11,1.76C111.44,46.17,105.21,48,99.62,48c-6.95,0-15.32-.6-20.31-3.15-1.86-.95-1.53-3.89-3-4.69a12,12,0,0,0-5.09-4.68,5.39,5.39,0,0,1-.61-2.44s0,0,0-.06h0V25.56L57.58,31.37a67.21,67.21,0,0,0-9.6-.68c-16,0-29,5.35-29,12v0h0v6.9l.19-5,2.24,2.91C25.9,51.65,36.1,54.6,48,54.6c16,0,28.95-5.34,29-11.94h0v8.92h0s0,6,0,6.06c0,6.6-13,12-29,12s-29-11.35-29-18c0,0,0,0,0-.06V48.51l-18,8,98.58,43.57L198.2,56.5ZM129.28,73.82h0s0,6,0,6.06c0,6.6-13,12-29,12s-29-5.35-29-12c0,0,0-6,0-6.06h0V64.9h0c0,6.59,13,11.94,29,11.94s28.95-5.34,29-11.94h0Z" transform="translate(-0.67 -12.13)"/></svg>