<svg id="1fa3832b-aabc-4175-b796-1f926bb7b95c" data-name="Layer 54" xmlns="http://www.w3.org/2000/svg" viewBox="0 0 200 200"><title>exercise</title><path d="M17.51,134.3c1.48-4.18,4.6-5.54,8.83-5.5,11.59.1,23.17,0,34.76.07A2.74,2.74,0,0,0,64,127c2.23-4.66,4.59-9.26,6.91-13.88.22-.43.33-1.07.89-1.12s.71.62.94,1a20.66,20.66,0,0,0,6.54,7.18c2.54,1.69,5,3.45,7.61,5.09,1,.64,1,1.14.2,1.92-4.9,4.87-9.76,9.77-14.67,14.63a5.71,5.71,0,0,1-4.24,1.57q-21.56,0-43.11,0c-4.16,0-6.44-1.76-7.56-5.8Z"/><path d="M138.89,14.93c7.26,1.85,12.25,6.19,14,13.56a18,18,0,0,1-15.08,22.22,17.64,17.64,0,0,1-14.12-4c-7.1-5.78-8.32-16.43-3.72-23.62a18.06,18.06,0,0,1,11.87-8.13Z"/><path d="M160.23,100.65c-4.63,0-9.25-.1-13.88,0a7.32,7.32,0,0,1-6.43-3.12c-4.39-5.86-8.7-11.77-13-17.68-1.08-1.47-1.05-1.51-2,.06C119.58,89,114.26,98,108.87,107c-.86,1.44-.74,2.32.49,3.52,6.81,6.67,13.51,13.44,20.25,20.18a7.37,7.37,0,0,1,1.61,8.84q-10.7,21.5-21.48,43a7.56,7.56,0,0,1-9.21,3.4,7.42,7.42,0,0,1-4.38-8.84,18.71,18.71,0,0,1,1.34-3.4c5.71-11.38,11.37-22.78,17.12-34.14.74-1.46.67-2.22-.78-3.21q-16-10.91-31.94-22c-4.79-3.32-6.51-10.54-3.88-16,1.88-3.92,4.41-7.44,6.69-11.12,5.2-8.39,10.47-16.74,15.73-25.11.46-.73.58-1.25-.38-1.7-5.44-2.53-10.87-5.06-16.27-7.67a1.92,1.92,0,0,0-2.26.29L59.6,69.48C57.91,70.76,56.21,72,54,72.21a7.47,7.47,0,0,1-7.5-4.43,8,8,0,0,1,2.76-9.32Q63.12,48.1,77,37.76A8.07,8.07,0,0,1,85.66,37c7.75,3.62,15.39,7.46,23.18,11,5.51,2.51,10.87,5.34,16.38,7.85a17.4,17.4,0,0,1,7,5.92q8.31,11.44,16.64,22.87a3.07,3.07,0,0,0,2.77,1.42c7.52-.07,15,0,22.57,0,5.83,0,9.37,5.35,6.93,10.63a6.35,6.35,0,0,1-6,4H160.23Z"/></svg>