<svg xmlns="http://www.w3.org/2000/svg" viewBox="0 0 192.03 175.13"><title>___filter</title><path d="M99.17,13.75c-53,0-96,10.28-96,23,0,2.38,1.38,7.8,4.18,10l71.33,81.21v58.79c9.67,8.83,36.67-10.83,41.33-21.81,1.4-3.29.92-24.35.46-37.87l70.88-80.32c2.81-2.16,3.85-7.58,3.85-10C195.18,24,152.2,13.75,99.17,13.75Zm.16,4.91c50.81,0,86,9,86,20,0,3.9-4.4,7.53-12.31,10.61-17.32,3.58-44.51,9.06-70.87,9.37l-2.82,0c-27.31-.07-53.56-5.13-71-8.79C19.74,46.68,15,42.82,15,38.67,15,27.62,48.52,18.67,99.33,18.67Z" transform="translate(-3.15 -13.75)"/></svg>