<svg id="cfbbdcc8-6c88-429b-bab9-ab0cc02387e5" data-name="Layer 51" xmlns="http://www.w3.org/2000/svg" viewBox="0 0 143.71 179.2"><title>food</title><path d="M157.31,25.27Q141.67,102.68,126,180.09c-.54,2.65-.75,5.25,1,7.52a7.26,7.26,0,0,0,7.25,3,7.11,7.11,0,0,0,6-5.06,34.33,34.33,0,0,0,1.09-4.29q4.5-21.54,9-43.08a8.28,8.28,0,0,0,.07-3.1,26,26,0,0,1,.52-11.32,12.15,12.15,0,0,1,10.14-8.48A2.4,2.4,0,0,0,163.6,113c1.84-10,3.53-20,4.84-30,.82-6.32,1.41-12.68,1.75-19a151.14,151.14,0,0,0-.55-26.24c-.75-6.2-1.89-12.33-4.58-18A21.65,21.65,0,0,0,162.82,16a2.7,2.7,0,0,0-2.58-.92c-1,.08-.8,1.06-.94,1.7-.61,2.84-1.17,5.69-1.74,8.54Z" transform="translate(-26.79 -12.4)"/><path d="M110.52,12.45A26.69,26.69,0,0,1,119.34,16c5.37,3.61,8.7,8.69,10.87,14.66a41,41,0,0,1,2.31,17.85c-1,10.54-5,19.59-13.57,26.19a15.07,15.07,0,0,1-4.36,2.41,3.9,3.9,0,0,0-2.43,2.23c-1.68,3.64-1.68,7.48-1.51,11.35a70,70,0,0,0,3.81,18.84,5.61,5.61,0,0,1,.23,1.83q-.28,35.95-.55,71.89c0,4.12-2.23,7.37-5.77,8-4.44.83-7.47.24-9.89-3.25a9.29,9.29,0,0,1-1.27-5.62c.14-20,.46-40,.36-60a78,78,0,0,1,3.06-22.47,39.08,39.08,0,0,0,1-17.67,10.48,10.48,0,0,0-.43-1.8,5.4,5.4,0,0,0-3-3.52c-5.59-2.43-9.51-6.74-12.42-12-6.18-11.11-6.46-22.71-2.42-34.51A28.14,28.14,0,0,1,93,16.84a23.79,23.79,0,0,1,9.17-4.14l1.24-.3ZM98.58,70.64c-1.2-2.83-2.52-5.57-3.66-8.39-1.55-3.84-3.17-7.64-3.59-11.84-.52-5.14-.11-10.28-.1-15.42a10.84,10.84,0,0,0,0-3.44c-3.4,7-5,14-3.66,21.25S93.12,65.8,98.58,70.64Z" transform="translate(-26.79 -12.4)"/><path d="M52.58,148.33q-2.51-17-5-34.08a19.71,19.71,0,0,1,.08-6c.91-5.92,1.34-11.86-.44-17.7A29.09,29.09,0,0,0,36.12,75.22a20.14,20.14,0,0,1-7.45-10,26.2,26.2,0,0,1-1-8c-.19-7-.35-14-.52-21-.12-4.9-.22-9.8-.37-14.7,0-1.24.43-1.88,1.69-1.94A15.44,15.44,0,0,0,30,19.32c.91-.14,1.27.26,1.36,1.17.53,5.21,1.05,10.42,1.66,15.62,1.07,9.13,2.2,18.25,3.32,27.38.27,2.21.31,2.21,2.47,1.9l.42-.06c2.13-.32,2.14-.32,1.83-2.4Q38,42,35,21.05c-.11-.75-.69-1.77.13-2.26a6.06,6.06,0,0,1,3.6-.58c.44,0,.58.47.65.85.11.56.19,1.13.28,1.69l6.12,41.58a2.29,2.29,0,0,0,3.75,1.36c.52-.42.29-1,.22-1.46-.55-3.82-1.11-7.64-1.68-11.46q-2.31-15.7-4.6-31.4c-.1-.66-.56-1.56.31-1.93a5,5,0,0,1,3.34-.38c.57.16.53.85.61,1.36.36,2.36.7,4.71,1,7.07q2.6,17.68,5.2,35.36c.29,2,.3,2,2.24,1.67,3.13-.47,2.87-.12,2.34-3.22C56.74,48.84,55,38.37,53,27.93c-.63-3.37-1.07-6.78-1.74-10.14C51,16.6,51.47,16.17,52.6,16c3.14-.52,3.2-.53,4,2.51,2.11,8,4.1,16,6.34,24Q64.77,49,66.41,55.62a17.28,17.28,0,0,1-2.46,13.69c-2.56,4.09-5.26,8.08-6.09,13a32.4,32.4,0,0,0,.48,14.29c1.12,4,2.45,8,3.9,11.94a9.81,9.81,0,0,1,.47,1.94Q67.95,146,73.16,181.58a7.68,7.68,0,0,1-10.29,8.49c-3.11-1.12-4.69-3.6-5.16-6.81l-4.47-30.41Z" transform="translate(-26.79 -12.4)"/></svg>