<svg id="43d2a352-40ee-4e23-a16e-e90cf073bffc" data-name="Layer 59" xmlns="http://www.w3.org/2000/svg" viewBox="0 0 193.57 193.57"><title>fullscreen</title><path d="M72.54,3.88q.06,13.21.12,26.43c0,1.05-.49,1.49-1.48,1.5l-1.89,0H34c-2.59,0-2.64,0-2.64,2.64q0,17.94,0,35.88c0,2.8,0,2.81-2.84,2.8L3.38,73q0-33.78,0-67.56c0-1.36.28-1.64,1.64-1.64Q38.76,3.92,72.54,3.88Z" transform="translate(-3.34 -3.84)"/><path d="M196.88,73q-13.21.06-26.43.12c-1.05,0-1.49-.49-1.5-1.48,0-.63,0-1.26,0-1.89q0-17.66,0-35.31c0-2.59,0-2.64-2.64-2.64H130.4c-2.8,0-2.81,0-2.8-2.84q0-12.55.12-25.11,33.82,0,67.65,0c1.29,0,1.55.25,1.55,1.55Q196.84,39.21,196.88,73Z" transform="translate(-3.34 -3.84)"/><path d="M3.38,128.22q13.21-.06,26.43-.12c1.05,0,1.49.49,1.5,1.48,0,.63,0,1.26,0,1.89q0,17.66,0,35.31c0,2.59,0,2.64,2.64,2.64H69.86c2.8,0,2.81,0,2.8,2.84q0,12.55-.12,25.11-33.82,0-67.65,0c-1.29,0-1.55-.25-1.55-1.55Q3.42,162,3.38,128.22Z" transform="translate(-3.34 -3.84)"/><path d="M127.72,197.38q-.06-13.21-.12-26.43c0-1.05.49-1.49,1.48-1.5l1.89,0h35.31c2.59,0,2.64,0,2.64-2.64q0-17.94,0-35.88c0-2.8,0-2.81,2.84-2.8l25.11.12q0,33.82,0,67.65c0,1.29-.25,1.55-1.55,1.55Q161.54,197.34,127.72,197.38Z" transform="translate(-3.34 -3.84)"/></svg>