<svg id="23de6e7c-8626-4efe-88d9-f0c8bb68672d" data-name="Layer 60" xmlns="http://www.w3.org/2000/svg" viewBox="0 0 192.43 176.92"><title>home</title><path d="M101.25,12.17l61.11,42.9q15.42,10.82,30.83,21.63c3.69,2.6,3.92,4,1.39,7.69q-4.94,7.12-10,14.19c-3,4.17-3.93,4.37-8.07,1.48q-25.42-17.74-50.8-35.55C118.21,59.23,110.6,54,103.14,48.6c-2.38-1.73-4.14-1.62-6.5,0Q61.9,73.14,27.05,97.45c-1.46,1-2.91,2.05-4.39,3-3.39,2.24-4.59,2.07-6.9-1.16-3-4.24-6-8.57-9-12.82-.89-1.26-1.94-2.41-2.92-3.61v-4c9-6.36,17.89-12.76,26.88-19.08Q64.63,36,98.58,12.17Z" transform="translate(-3.83 -12.17)"/><path d="M171.31,12.17c1.37,1.08,1.55,2.57,1.54,4.18q0,15,0,29.94c0,1.59,0,3.17-1.71,4s-3,.11-4.32-.81c-6.54-4.58-13.06-9.19-19.61-13.74a5.86,5.86,0,0,1-2.75-5.32c.09-4.54.05-9.09,0-13.64a6.47,6.47,0,0,1,1.5-4.62Z" transform="translate(-3.83 -12.17)"/><path d="M173.4,147.82q0,17.68,0,35.35c0,4.83-1.07,5.89-5.89,5.89q-22,0-44,0c-4.45,0-5.53-1.06-5.53-5.52q0-29,0-58c0-5.25,0-5.25-5.4-5.26-8.89,0-17.79.1-26.68-.05-3.11-.05-4,1.11-4,4.1.09,19.45.05,38.91,0,58.37,0,5.58-.82,6.4-6.33,6.41q-21.68,0-43.36,0c-5.17,0-5.88-.69-5.88-5.67,0-23.68,0-47.36-.06-71a7.18,7.18,0,0,1,3.41-6.64q33.67-23.42,67.21-47a4.66,4.66,0,0,1,6.07,0q33.56,23.58,67.2,47a7,7,0,0,1,3.29,6.41C173.35,124,173.4,135.93,173.4,147.82Z" transform="translate(-3.83 -12.17)"/></svg>