<svg xmlns="http://www.w3.org/2000/svg" viewBox="0 0 188.03 161.38"><title>horn</title><g id="fbbc1a9d-2057-4ad3-80cf-551cd55ad6f5" data-name="Layer 74"><rect x="144.91" y="32.31" width="29.76" height="14.64" rx="7.32" ry="7.32" transform="translate(11.92 99.56) rotate(-45)"/><rect x="164.22" y="52.89" width="29.76" height="14.64" rx="7.32" ry="7.32" transform="translate(-15.73 54.44) rotate(-24.43)"/><rect x="165.22" y="85.8" width="29.76" height="14.64" rx="7.32" ry="7.32" transform="translate(9.35 -51.28) rotate(8.73)"/><path d="M72.39,186.4c-4.14.19-7.57-1-10.19-4.5-7.51-10.08-15.89-19.62-19-32.28-.83-3.35-.64-8.06-2.78-9.68-2.41-1.82-6.28,1.61-9.68,2.24-8.47,1.57-14.48-1.67-17.41-9.78-1.86-5.16-3.68-10.34-5.4-15.55-2.84-8.62.08-15.65,8.65-18.95q18.67-7.19,37.7-13.41c21.77-7.12,38.26-21,51.91-38.93,4-5.19,7.74-10.46,11.34-15.9,4.27-6.46,12.5-6.08,16.43.78,3.4,6,4.83,12.72,7.31,19.06,1.48,3.78,2.72,7.66,3.92,11.53.68,2.18,1.62,3.48,4.25,3.31,5.68-.36,9.38,2.71,11.36,7.72s.78,9.74-3.59,13.2c-2.2,1.75-2.36,3.54-1.46,6,3.1,8.6,6,17.27,9,25.89a15.16,15.16,0,0,1,.66,8.52c-1.44,6.46-6,9-12.21,6.81-22.58-8-45.54-12-69.58-7.92-5.8,1-8.31,4.61-9.93,9.07a11.26,11.26,0,0,0,2.46,12.16,12.12,12.12,0,0,1,3.93,8.62c.22,4.52,3.16,7.31,6.93,9.29a63.52,63.52,0,0,0,8.22,3.94c3.49,1.23,3.63,3.09,2,6C93.18,180.91,83.21,186.06,72.39,186.4Zm79.09-67.59a10.31,10.31,0,0,0-.16-1.86q-12.57-36.16-25.18-72.3c-.32-.91-.37-2.25-1.65-2.25s-1.44,1.24-2,2.06C109.69,62.6,94.86,78.65,75,89.25c-2.77,1.48-2.92,3-2,5.54,1.8,4.74,3.62,9.5,5,14.37.9,3.13,2.46,3.68,5.39,3a90.7,90.7,0,0,1,22.88-1.73C121.6,110.91,136.42,114,151.48,118.81Z" transform="translate(-6.86 -25.03)"/></g></svg>