<svg id="da59aacb-3af7-402e-b85c-c9b3fd0906f5" data-name="Layer 75" xmlns="http://www.w3.org/2000/svg" viewBox="0 0 196.61 141"><defs><style>.\37 61a9884-d5ed-4953-8b40-1156b6dfe1bf{fill:#231f20;}</style></defs><title>image-outline</title><path class="761a9884-d5ed-4953-8b40-1156b6dfe1bf" d="M180.61,47.67V81.48L155.18,60.33,142.75,50,131.15,61.24,86.81,104.16,76,99a32.8,32.8,0,0,0-2.12-51.31H180.61m-145.47,0a32.82,32.82,0,0,0,9,57.66l-10.4,13.52-12.18,3.35-1.57.43v-75H35.14m151.47-18H14a12,12,0,0,0-12,12v117a12,12,0,0,0,12,12H186.61a12,12,0,0,0,12-12v-117a12,12,0,0,0-12-12ZM54.5,89A14.83,14.83,0,1,1,69.33,74.17,14.83,14.83,0,0,1,54.5,89Zm35.83,36.81,53.33-51.64,36.67,30.49V156H17.67l8.67-16.48,18-4.94,17.33-22.53,28.67,13.74Z" transform="translate(-2 -29.67)"/></svg>