<svg id="27ceba4f-303d-4837-abf9-1a86773a630f" data-name="Layer 28" xmlns="http://www.w3.org/2000/svg" viewBox="0 0 175.36 198.55"><path d="M13.37,7.73c0-2.32-.91-5.55.25-6.71S18,.77,20.34.77H188.17c.64,3-.21,5.89-.46,8.83q-3.2,36.92-6.42,73.84c-2.74,30.76-5.58,61.51-8.29,92.27-.23,2.6-1.23,3.93-3.7,4.61q-33.15,9.1-66.26,18.32a8.37,8.37,0,0,1-4.57.06L31.85,180.22a3.85,3.85,0,0,1-3.24-3.73c-1-11.8-2.08-23.58-3.12-35.38q-2.06-23.26-4.1-46.53-2.58-29-5.21-58.05C15.31,26.93,14.31,17.33,13.37,7.73Zm90,16.43c-12.76,0-25.52.14-38.28-.09-3.85-.07-5.33,1.33-5.6,5C59,35.59,58.3,42.11,57.72,48.65,56.29,64.55,55,80.46,53.44,96.34c-.57,5.92-.5,6.26,5.3,6.26,21.39,0,42.79.06,64.18,0,3.32,0,4.75,1,4.36,4.45-.82,7.29-1.52,14.59-2.14,21.9a3.73,3.73,0,0,1-3.18,3.73c-6.61,1.71-13.19,3.52-19.77,5.32a7.76,7.76,0,0,1-4.19,0c-6.59-1.79-13.16-3.62-19.77-5.31-2.26-.58-3.15-1.84-3.26-4.09-.16-3.34-.58-6.67-.8-10-.18-2.66-1.4-4-4.17-3.89-3.86.09-7.73,0-11.6,0-5.24,0-5.69.65-5.15,5.85.79,7.55,1.63,15.11,2,22.69.18,3.39,1.33,5,4.65,5.93,12.08,3.19,24.1,6.6,36.11,10a14.06,14.06,0,0,0,8,0q18.22-5.15,36.5-10.09c2.72-.73,4-1.94,4.23-5,1.59-18.85,3.4-37.69,5.16-56.53.45-4.86-.16-5.63-5.15-5.64q-25.91,0-51.81,0c-4.38,0-8.76-.06-13.15,0-2.86,0-4.25-1-3.92-4.14.91-8.7,1.73-17.42,2.4-26.15.3-3.9,1.8-5.5,6-5.5,13,0,26-.23,39,.78,3.1.24,4.39,1.49,4.6,4.39.3,4.11.75,8.21,1,12.32.34,5.46.85,6,6.1,6.08,3.61,0,7.22-.08,10.83,0,3.13.09,4.51-1.17,4.21-4.38Q148.31,47,146.78,28.77c-.29-3.56-2-4.72-5.51-4.67C128.65,24.27,116,24.17,103.38,24.16Z" transform="translate(-13.04 -0.44)"/></svg>