<svg xmlns="http://www.w3.org/2000/svg" viewBox="0 0 191.67 191.84"><title>__layers</title><path d="M4.37,164.77V161.4c1-2.62,2.95-4.37,5.12-6,9-6.86,18-13.79,27-20.7.37-.29.9-.46,1-1.06-.43-.56-1.09-.54-1.68-.69-8-2.07-15.9-4.22-23.89-6.16-3.61-.88-6.28-2.6-7.53-6.21v-3.37c1-2.64,2.93-4.4,5.1-6.05q13.42-10.21,26.75-20.53c.46-.35,1.33-.57,1.15-1.29-.14-.57-.95-.49-1.48-.62C27.93,86.6,20,84.46,12,82.5c-3.59-.88-6.32-2.56-7.6-6.17V73a12.88,12.88,0,0,1,4.76-5.85Q42.73,41.38,76.3,15.62c5-3.85,9.75-8.19,15.39-11.24h4.87c.36.1.72.22,1.08.28l61.45,10.48q15.13,2.58,30.26,5.19a7.58,7.58,0,0,1,5.87,4.18c1.65,3.36.85,6.68-2.41,9.74Q179.9,46.37,167,58.45c-.57.53-1.33.92-1.56,1.8a5,5,0,0,0,2.15.61l21.77,3.73a8.1,8.1,0,0,1,4,1.83c3.7,3.23,3.58,8.18-.4,11.94-6.89,6.53-13.85,13-20.78,19.47-2.3,2.16-4.59,4.33-7,6.57a4.49,4.49,0,0,0,2.13.69c7.32,1.24,14.64,2.47,22,3.75,4.36.76,7,4.16,6.67,8.32-.21,2.41-1.59,4.14-3.26,5.71L169.06,145q-25.7,24.08-51.38,48.19c-3.06,2.88-6.25,3.57-10.27,2.52Q59.67,183.28,11.88,171C8.28,170.1,5.59,168.4,4.37,164.77Zm25-5.2c.31.49.84.51,1.31.63q38.25,9.9,76.5,19.83a3.15,3.15,0,0,0,3.35-.86c4.29-4.1,8.65-8.12,13-12.18l47.45-44.44c.3-.29.83-.53.67-1s-.71-.42-1.14-.49c-5.84-1-11.7-1.95-17.53-3a3.66,3.66,0,0,0-3.5,1.12c-10.6,10-21.27,19.86-31.83,29.87a9.63,9.63,0,0,1-9.92,2.54c-16.29-4.3-32.63-8.44-48.94-12.71a3.88,3.88,0,0,0-3.77.73c-8.14,6.32-16.34,12.57-24.5,18.85C30.07,158.74,29.48,158.93,29.36,159.57Zm0-44.27c.43.54,1.09.55,1.67.7l12.14,3.15q31.8,8.23,63.59,16.49a3.76,3.76,0,0,0,4.14-1.1c2.37-2.4,4.9-4.62,7.36-6.93q26.3-24.65,52.6-49.31c.33-.31,1-.54.72-1.16-.2-.46-.76-.32-1.18-.4-5.59-1-11.2-1.86-16.77-2.94A4.77,4.77,0,0,0,149,75.24c-10.43,9.87-21,19.63-31.37,29.51a9.47,9.47,0,0,1-9.73,2.54C91.52,103,75.13,98.81,58.77,94.54a3.92,3.92,0,0,0-3.78.74c-8.08,6.28-16.23,12.49-24.34,18.73C30.18,114.37,29.54,114.61,29.36,115.3Z" transform="translate(-4.37 -4.37)"/></svg>