<?xml version="1.0" encoding="UTF-8" standalone="no"?><!DOCTYPE svg PUBLIC "-//W3C//DTD SVG 1.1//EN" "http://www.w3.org/Graphics/SVG/1.1/DTD/svg11.dtd"><svg width="100%" height="100%" viewBox="0 0 200 200" version="1.1" xmlns="http://www.w3.org/2000/svg" xmlns:xlink="http://www.w3.org/1999/xlink" xml:space="preserve" style="fill-rule:evenodd;clip-rule:evenodd;stroke-linejoin:round;stroke-miterlimit:1.41421;"><g id="Layer8"><g><path d="M166.761,5.353c-14.654,3.391 -30.201,11.709 -44.918,23.994c-23.291,19.517 -53.811,62.26 -66.033,92.526c-2.558,6.27 -5.502,16.701 -5.502,19.452c0,1.154 -1.856,4.224 -5.503,9.278l-5.567,7.551l2.302,2.239l2.24,2.303l7.23,-5.31c6.782,-4.991 7.55,-5.374 12.094,-6.142c17.34,-3.009 46.453,-18.238 73.265,-38.394c32.825,-24.636 51.125,-47.351 58.996,-73.201c1.407,-4.479 1.662,-6.781 1.727,-13.116c0.063,-6.719 -0.127,-8.063 -1.407,-10.943c-1.856,-4.095 -5.246,-7.423 -9.405,-9.277c-3.904,-1.791 -13.951,-2.239 -19.519,-0.96Zm0.449,16.509c2.688,0.961 4.798,2.431 7.614,5.247c4.544,4.542 6.656,9.277 6.656,14.782l0,3.519l-2.176,0c-2.112,0 -2.112,0 -2.561,-3.647c-1.086,-9.405 -7.421,-15.677 -16.763,-16.636c-3.456,-0.383 -3.456,-0.383 -3.456,-2.495l0,-2.175l3.518,0c1.984,-0.004 5.056,0.573 7.168,1.405Z" style="fill-rule:nonzero;"/><path d="M20.041,11.176c-6.781,2.305 -15.805,13.501 -15.805,19.58c0,1.856 0.449,2.751 1.791,3.903c1.6,1.344 68.849,37.112 70.898,37.752c0.384,0.128 3.775,-3.84 7.486,-8.765c9.152,-12.222 16.061,-20.413 24.506,-28.985c6.142,-6.143 6.912,-7.231 5.759,-7.487c-1.087,-0.256 -76.399,-13.949 -89.134,-16.189c-2.303,-0.385 -3.966,-0.321 -5.501,0.191Z" style="fill-rule:nonzero;"/><path d="M168.041,92.184c-7.741,7.742 -18.364,16.828 -29.753,25.401c-4.928,3.647 -8.894,7.038 -8.766,7.421c0.64,2.177 37.048,70.513 38.137,71.473c3.135,2.944 10.237,0.256 17.084,-6.398c4.672,-4.67 6.463,-7.551 6.463,-10.558c-0.065,-2.368 -15.996,-91.118 -16.636,-92.525c-0.322,-0.703 -1.985,0.579 -6.529,5.186Z" style="fill-rule:nonzero;"/><path d="M33.349,116.434c-7.358,0.639 -13.628,1.216 -13.821,1.216c-0.64,0.065 -5.952,12.861 -5.503,13.245c0.321,0.321 30.331,11.774 30.778,11.774c0.128,0 0.577,-1.918 0.96,-4.351c0.961,-5.312 3.456,-13.821 5.568,-18.556c0.832,-1.919 1.535,-3.712 1.535,-4.033c0,-0.767 -3.519,-0.639 -19.517,0.705Z" style="fill-rule:nonzero;"/><path d="M83.579,149.963c-2.944,1.6 -14.973,5.375 -19.645,6.142c-2.56,0.384 -4.67,0.833 -4.67,0.96c0,0.512 11.454,30.523 11.773,30.841c0.193,0.191 3.2,-0.832 6.719,-2.367l6.398,-2.688l0.32,-3.263c0.449,-3.903 2.305,-27.834 2.305,-29.434c0,-1.279 -1.023,-1.342 -3.2,-0.191Z" style="fill-rule:nonzero;"/></g></g></svg>