<svg id="4252a42b-df6d-405d-b1d3-557f5ff5ffe3" data-name="Layer 23" xmlns="http://www.w3.org/2000/svg" viewBox="0 0 192.04 152.07"><title>redo</title><path d="M4,146c0,9.42,0,18.83,0,28.25,0,1.49.29,2,1.8,1.78a30,30,0,0,1,3.75,0c3.36-5.46,6.68-11,10.1-16.37,6.53-10.31,13.58-20.26,23.07-28.07,15.61-12.84,34.06-18,53.91-18.94,3.05-.15,3.22.09,3.22,3.23,0,10.83,0,21.65,0,32.48,0,1.09-.64,2.61.59,3.18,1,.46,1.92-.75,2.79-1.33Q144,123,184.73,95.84c3.74-2.49,7.52-4.92,11.29-7.37v-1c-.78-.47-1.59-.91-2.35-1.42q-45.26-30.19-90.5-60.4c-.76-.5-1.44-1.12-2.15-1.69h-1c-.06,1.16-.18,2.32-.18,3.49,0,11.08-.05,22.16,0,33.25,0,2.17-.54,3.09-2.89,3.25-9.4.65-18.74,1.78-27.81,4.43-29.91,8.76-51,27.05-61,57.06C5.91,132.1,4.9,139,4,146Z" transform="translate(-3.98 -23.96)"/></svg>