<svg id="441c93d5-cc06-4fe7-89e0-a7f675106385" data-name="Layer 73" xmlns="http://www.w3.org/2000/svg" viewBox="0 0 196.46 195.16"><title>share-outline</title><path d="M194.25,84.39c-7-8.77-13.87-17.59-20.79-26.39L137.63,12.35A26.87,26.87,0,0,0,127,4.52c-2.21-1.56-5.77-1.07-8.73-.21-4.55,1.32-6.59,4.94-7.1,9.59a46.61,46.61,0,0,0-.14,5.17c0,6.14,0,12.29,0,18.43,0,5.28,0,10.55,0,15.83-.34,2.68-1.75,4.08-4.74,4.75-5.49,1.23-11,2.68-16.33,4.41C69.62,69.05,50.71,78.41,36.18,95.23c-18.37,21.28-28.32,46.71-32.7,74.71-1.19,7.62-1.15,15.29-1.61,23.6a38.34,38.34,0,0,1,0,5.12c1.55-.56,15.1-18.13,28.94-30.53,11.1-9.94,22.88-15.11,25.07-16.5,15.43-8,32.22-12.35,50.19-13.54,3.47-.23,5.26.68,5.72,3.58,0,2.67,1.49,38.76,6.66,40.57,3.57,1.25,7.39,1.38,9.87-.73,4.79-2.18,8.74-6.69,10.56-9q27.65-35.49,55.49-70.82C199.69,94.89,199.66,91.2,194.25,84.39ZM26.2,152.19c1.23-4.28,2.77-8.45,4.27-12.65,13.4-37.62,41.75-52.27,77-62.27a155.26,155.26,0,0,1,17.3-4c4-.64,4.25-6.53,4.2-10.45-.13-10.38-.13-20.76-.1-31.14q24.33,31,48.68,62-24.34,30.88-48.5,61.92c0-7.79-.08-15.59,0-23.38.07-8.59,1.18-13.83-6.89-13.56-3.72.12-7.4.43-11,.88C79,120.8,50.37,130.91,26.2,152.19Z" transform="translate(-1.87 -3.5)"/></svg>