<svg id="2979627b-d92e-43b2-8d49-ac7351539b04" data-name="Layer 62" xmlns="http://www.w3.org/2000/svg" viewBox="0 0 181.7 197.33"><title>share</title><path d="M154.15,1.67a34.23,34.23,0,0,0-33.8,39.45L73.48,68.18l8.29,14.36,45.11-26A34.2,34.2,0,1,0,154.15,1.67Z" transform="translate(-6.66 -1.67)"/><path d="M11.7,117.08A34.23,34.23,0,0,0,63,125.29l47.56,25.83,7.91-14.57L72.71,111.7a34.2,34.2,0,1,0-61,5.38Z" transform="translate(-6.66 -1.67)"/><path d="M182.46,181.62a34.23,34.23,0,0,0-17.72-48.84l-.5-54.12-16.58.15.48,52.08a34.2,34.2,0,1,0,34.31,50.73Z" transform="translate(-6.66 -1.67)"/></svg>