<svg xmlns="http://www.w3.org/2000/svg" viewBox="0 0 184.59 147.63"><defs><style>.\36 7ed287a-870b-4814-9fa6-2248bc1af194{fill:#231f20;}</style></defs><title>___sliders</title><path class="67ed287a-870b-4814-9fa6-2248bc1af194" d="M78.69,55.63V36.12c0-5.85,6.55-10.64,14.56-10.64l13.34.77,13.34-.77c8,0,14.56,4.79,14.56,10.64V55.63c0,5.85-6.55,10.64-14.56,10.64l-13.34-.77-13.34.77C85.24,66.27,78.69,61.48,78.69,55.63Z" transform="translate(-6.52 -25.48)"/><path class="67ed287a-870b-4814-9fa6-2248bc1af194" d="M100.53,162.47V143c0-5.85,6.55-10.64,14.56-10.64l13.34.77,13.34-.77c8,0,14.56,4.79,14.56,10.64v19.51c0,5.85-6.55,10.64-14.56,10.64l-13.34-.77-13.34.77C107.08,173.11,100.53,168.32,100.53,162.47Z" transform="translate(-6.52 -25.48)"/><path class="67ed287a-870b-4814-9fa6-2248bc1af194" d="M22.29,109.49V90c0-5.85,6.55-10.64,14.56-10.64l13.34.77,13.34-.77c8,0,14.56,4.79,14.56,10.64v19.51c0,5.85-6.55,10.64-14.56,10.64l-13.34-.77-13.34.77C28.84,120.13,22.29,115.34,22.29,109.49Z" transform="translate(-6.52 -25.48)"/><path class="67ed287a-870b-4814-9fa6-2248bc1af194" d="M138.4,42.65h49.24a3.48,3.48,0,0,1,3.47,3.47V49a3.48,3.48,0,0,1-3.47,3.47H138.4C136.49,52.45,136.49,42.65,138.4,42.65Z" transform="translate(-6.52 -25.48)"/><path class="67ed287a-870b-4814-9fa6-2248bc1af194" d="M6.52,49V46.13A3.48,3.48,0,0,1,10,42.65H71.28c1.91,0,1.91,9.8,0,9.8H10A3.48,3.48,0,0,1,6.52,49Z" transform="translate(-6.52 -25.48)"/><path class="67ed287a-870b-4814-9fa6-2248bc1af194" d="M6.52,101V98.18A3.48,3.48,0,0,1,10,94.7h5.82c1.91,0,1.91,9.8,0,9.8H10A3.48,3.48,0,0,1,6.52,101Z" transform="translate(-6.52 -25.48)"/><path class="67ed287a-870b-4814-9fa6-2248bc1af194" d="M81.65,94.7h106a3.48,3.48,0,0,1,3.47,3.47V101a3.48,3.48,0,0,1-3.47,3.47h-106C79.74,104.5,79.74,94.7,81.65,94.7Z" transform="translate(-6.52 -25.48)"/><path class="67ed287a-870b-4814-9fa6-2248bc1af194" d="M159.54,148.15h28.09a3.48,3.48,0,0,1,3.47,3.47v2.85a3.48,3.48,0,0,1-3.47,3.47H159.54C157.63,157.94,157.63,148.15,159.54,148.15Z" transform="translate(-6.52 -25.48)"/><path class="67ed287a-870b-4814-9fa6-2248bc1af194" d="M6.52,154.47v-2.85A3.48,3.48,0,0,1,10,148.15H92.84c1.91,0,1.91,9.8,0,9.8H10A3.48,3.48,0,0,1,6.52,154.47Z" transform="translate(-6.52 -25.48)"/></svg>