<svg id="93d96dc8-48ab-4d12-a592-3ca88249175c" data-name="Layer 77" xmlns="http://www.w3.org/2000/svg" viewBox="0 0 181.61 181.52"><title>target</title><path d="M100.25,190.58C50.17,190.87,8,149.13,9.54,96.92c1.41-48,41.82-90,95-87.78,47.46,2,87.25,41.7,86.6,92.32C190.47,150.51,149.57,190.87,100.25,190.58ZM67.94,106.45c-1.21,0-2.43.07-3.64,0-1.58-.11-1.93.41-1.62,2,2.68,13.79,15.66,26.69,29.38,29.16,1.37.25,1.67-.27,1.66-1.46,0-2.49,0-5,0-7.48,0-2.06.93-3,3-3q3.54-.08,7.08,0c2.16,0,3,1,3.09,3.12,0,2.43,0,4.85,0,7.28,0,1.29.33,1.8,1.79,1.51,13.86-2.68,26.53-15.33,29.32-29.27.28-1.38-.05-1.88-1.43-1.85-2.22,0-4.45,0-6.67,0-3,0-3.77-.76-3.81-3.64,0-2.09,0-4.18,0-6.27,0-2.39.9-3.22,3.35-3.25,2.29,0,4.59-.06,6.88,0,1.53,0,2.05-.38,1.64-2A39.33,39.33,0,0,0,135,83.1C129.54,72.17,120.9,65.16,109,62.24c-1.74-.43-2.14.11-2.08,1.73.09,2.36,0,4.72,0,7.08,0,2.05-.94,3-3,3q-3.54.08-7.08,0c-2.15,0-3-.94-3.08-3.13s-.1-4.59,0-6.87c.09-1.78-.47-2.15-2.23-1.81C78,64.89,65.23,77.79,62.62,91.41c-.31,1.59.27,1.89,1.63,1.87,2.43,0,4.85-.05,7.28,0,2,.05,2.92,1,3,3,0,1.21,0,2.43,0,3.64C74.53,106.43,74.53,106.43,67.94,106.45Zm39,57.66c0,2.63,0,5.26,0,7.88,0,1.31.34,1.75,1.77,1.57a82.09,82.09,0,0,0,13-2.69A74.24,74.24,0,0,0,174,108.35c.19-1.66-.32-2-1.78-1.94-4.72.06-9.43,0-14.15,0-2.91,0-2.9,0-3.42,2.85a54.54,54.54,0,0,1-21.08,34.53,53.62,53.62,0,0,1-23.65,10.35c-3,.54-3,.53-3,3.67Q106.89,161,106.89,164.1ZM35.94,93.26h0c2.09,0,4.18,0,6.27,0,3.7,0,3.15.33,3.78-3.13A55.16,55.16,0,0,1,91.17,45.5c2-.32,2.67-1.07,2.61-3.11-.15-4.85-.08-9.7,0-14.55,0-1.38-.28-1.86-1.84-1.69A70.63,70.63,0,0,0,62.12,36.32Q31.4,55.46,26.62,91.41c-.2,1.51.22,1.91,1.65,1.87C30.82,93.2,33.38,93.26,35.94,93.26Zm128.7,0c2.56,0,5.12,0,7.68,0,1.38,0,1.87-.31,1.68-1.85a67.28,67.28,0,0,0-4.29-17.62q-16.92-41.18-61-47.65c-1.56-.23-1.86.31-1.85,1.68,0,4.72,0,9.44,0,14.15,0,3,0,3,2.94,3.52a54.65,54.65,0,0,1,36.25,23.63,51.6,51.6,0,0,1,8.62,21.8c.27,1.83,1,2.51,2.87,2.37C159.92,93.13,162.28,93.26,164.64,93.26ZM36.08,106.43c-2.56,0-5.12.06-7.68,0-1.47,0-2,.29-1.78,1.95a67.3,67.3,0,0,0,4.1,17c11.17,27.68,31.47,43.79,61.07,48.12,1.63.24,2-.26,2-1.75-.07-4.72,0-9.44,0-14.15,0-3,0-2.91-3-3.46a55.29,55.29,0,0,1-44.91-45.88c-.23-1.43-.79-1.93-2.22-1.88C41.07,106.5,38.57,106.43,36.08,106.43Z" transform="translate(-9.5 -9.06)"/><path d="M100.34,112.9a13.06,13.06,0,1,1,13-13.49C113.43,107.13,107.89,112.86,100.34,112.9Z" transform="translate(-9.5 -9.06)"/></svg>