<svg id="efb5d6d2-f0c4-43fb-8d19-a23303a18df9" data-name="Layer 82" xmlns="http://www.w3.org/2000/svg" viewBox="0 0 190.01 175.63"><defs><style>.\33 638e58a-3c3e-484c-8086-3bfa477b5bc7{fill:#231f20;}</style></defs><title>upload-outline</title><path class="3638e58a-3c3e-484c-8086-3bfa477b5bc7" d="M63,35.5s-15-4-26,5-7.09,19.08-7.09,19.08S6.5,67.5,6.5,102.5s23,43,30,43.5,19.52,5.06,29-1c3.51-2.25,6.5-7.5,3.5-12.5s-6-5.5-6-5.5-19-.12-27-.5c-10.67-.5-27.46-40.28,2.5-52C50,70,39.38,58.8,48,52c8.82-6.95,18-2.5,23.49-4s11.5-20.67,33-21c19.81-.31,32.26,10.66,35.5,24.5,4.23,18.07,40.36,1.21,41.61,44.51C182.67,132.33,165,129.5,157,129s-18.67-2.33-23.5,3c-4.4,4.85-1.84,6.26-1.5,12.67.33,6.23,16,2.67,32,3.08,30.34.78,32.69-39.32,32.5-52.74-.5-35.5-29.85-50.81-37-48-10.17,4-8-34-49-34.5S63,35.5,63,35.5Z" transform="translate(-6.5 -12.49)"/><path class="3638e58a-3c3e-484c-8086-3bfa477b5bc7" d="M148.56,92.8,109.18,53.42a11.26,11.26,0,0,0-5.17-4l-.33-.12-.3-.1a12.86,12.86,0,0,0-8.84.39h0c-.23.11-.47.21-.69.34a11.28,11.28,0,0,0-3.75,3.09L50.35,92.8a11.21,11.21,0,0,0,0,15.81l.88.88a11.21,11.21,0,0,0,15.81,0L87.69,88.83v88.11a11.21,11.21,0,0,0,11.18,11.18h1.24a11.21,11.21,0,0,0,11.18-11.18v-88l20.57,20.57a11.21,11.21,0,0,0,15.81,0l.88-.88A11.21,11.21,0,0,0,148.56,92.8Z" transform="translate(-6.5 -12.49)"/></svg>