<svg id="4b52257f-94d7-4b5b-bf45-5db702b22bee" data-name="Layer 56" xmlns="http://www.w3.org/2000/svg" viewBox="0 0 200 200"><title>vial</title><path d="M59.31,197.09c-12-.7-18.07-7.41-18.09-19.5-.06-25.52,0-51,0-76.55,0-16.51,8.14-28.46,21-37.73,5.57-4,5.66-4.5.27-9a12.06,12.06,0,0,1-4.23-9.58c-.13-9.23-.23-18.48,0-27.71.2-7.82,4.07-12.22,11.85-12.34q31.69-.49,63.39,0c8,.12,11.89,4.53,12.07,12.62.2,8.92.11,17.85,0,26.77,0,4.59-1.5,8.51-5.6,11.25-3.73,2.5-3.58,4.94.37,7.42,7.56,4.75,13.9,10.61,18.13,18.6A35.3,35.3,0,0,1,162.67,98q.05,39.92,0,79.84c0,2-.67,4-.73,6-.42,13.43-12.59,13.26-8.88,13.24C138.29,197.3,63.18,197.32,59.31,197.09Zm42.64-11.64q19.5,0,39,0a23.39,23.39,0,0,0,4.67-.27c4.63-1,6-4.32,5.36-11.85-.39-4.77-3.9-3.23-6.33-3.25-15.81-.12-31.63,0-47.45-.08-6.24,0-7.25-1-7.26-7q0-30.07,0-60.13c0-6,.74-6.64,6.9-6.65q24,0,47.92,0c6.32,0,6.8-.65,4.51-6.72-3.18-8.39-9.55-13.9-17.22-17.84-4.47-2.3-6.79-5.29-6.33-10.32.27-3-1-4.26-4.07-4.25q-19.73.11-39.46,0c-2.69,0-4.26,1-4,3.83.5,5.08-2,7.84-6.33,10.31-12.44,7.14-19.27,17.58-19,32.58.39,24.11.1,48.23.11,72.34,0,7.39,1.81,9.24,9.07,9.26C75.32,185.48,88.63,185.45,101.94,185.45Zm0-140.58c8.91,0,17.82-.07,26.73,0,3.36,0,4.85-1.22,4.78-4.67q-.2-9.38,0-18.76c.07-3.31-1.08-4.84-4.6-4.83q-27,.13-53.93,0c-3.56,0-4.61,1.62-4.54,4.88.12,6.09.19,12.2,0,18.29-.13,4,1.59,5.17,5.32,5.11C84.46,44.77,93.21,44.88,102,44.87ZM79.44,206.4"/></svg>