<svg id="d0cde3ff-69f6-4da9-bca1-c9f55c653483" data-name="Layer 89" xmlns="http://www.w3.org/2000/svg" viewBox="0 0 192.67 115.59"><defs><style>.a1408e72-2ac4-42c0-af79-d05768ae3026{fill:#76b900;}</style></defs><title>vr_nvidia</title><path id="ab1411b6-2959-43b4-84ec-5dd51f0958e3" data-name="VR-Icon.svg" class="a1408e72-2ac4-42c0-af79-d05768ae3026" d="M99.33,42.81c-67.45,0-96.33,58-96.33,58S31.89,158.4,99.33,158.4s96.33-57.62,96.33-57.62S166.76,42.81,99.33,42.81Zm-.18,112.68a54.89,54.89,0,1,1,54.73-55c0,.05,0,.1,0,.16a54.8,54.8,0,0,1-54.72,54.89h0Zm41.4-56.86V84.3a8.71,8.71,0,0,0-9.16-8.16h-33L84.37,112.25,69.74,76.13h-12L78.5,125.08H89.44L105.85,84.8H127a2.65,2.65,0,0,1,2.75,2.51v8.37A2.58,2.58,0,0,1,127,98.12H109L128.31,125H139.8l-13.26-18.22H132A8.19,8.19,0,0,0,140.54,99Q140.55,98.82,140.55,98.63Z" transform="translate(-3 -42.81)"/></svg>