<svg id="26e587d7-28e8-41e4-9aed-687af110e552" data-name="Layer 72" xmlns="http://www.w3.org/2000/svg" viewBox="0 0 190.47 105.73"><defs><style>.cb528473-a4cc-4dd4-a52d-4a05ccaec986{fill:#231f20;}.\37 a1e1738-ed58-4c67-84a6-d974e744b9ef{font-size:63.7px;font-family:TrebuchetMS, Trebuchet MS;}.\33 b39fbb1-b086-4b51-b10e-2e1ba7070ce8{fill:#fff;}</style></defs><title>360</title><path class="cb528473-a4cc-4dd4-a52d-4a05ccaec986" d="M145.58,73c23.38,4.87,41.49,13.4,41.49,23.21,0,15.35-38.15,27.79-85.2,27.79s-85.2-12.44-85.2-27.79c0-9.3,17-17.45,39.41-22.42C26.73,79.41,6.53,90.38,6.53,104.57c0,21,42.64,38,95.24,38s95.24-17,95.24-38C197,89.69,176.35,78.35,145.58,73Z" transform="translate(-6.53 -49.53)"/><text class="7a1e1738-ed58-4c67-84a6-d974e744b9ef" transform="translate(43.81 54.62)">360</text><path class="3b39fbb1-b086-4b51-b10e-2e1ba7070ce8" d="M86.5,154.07c-5.77,3.21-8-.4-8-7V116.82c0-6.6,2.22-11.19,8-8,8.77,4.85,30.5,17,30.5,22.63C117,136.07,96.07,148.74,86.5,154.07Z" transform="translate(-6.53 -49.53)"/><path class="cb528473-a4cc-4dd4-a52d-4a05ccaec986" d="M82.5,154.07c-5.77,3.21-8-.4-8-7V116.82c0-6.6,2.22-11.19,8-8,8.77,4.85,30.5,17,30.5,22.63C113,136.07,92.07,148.74,82.5,154.07Z" transform="translate(-6.53 -49.53)"/></svg>