<svg id="48dba384-039e-4753-9f8d-e86550af922f" data-name="Layer 88" xmlns="http://www.w3.org/2000/svg" viewBox="0 0 186.99 186.99"><defs><style>.\33 8a1d1ab-6ec1-4287-a4df-5e1ad8465b2c{opacity:0.3;}</style></defs><title>360_2</title><path d="M100,194.3a93.5,93.5,0,1,1,93.5-93.5A93.6,93.6,0,0,1,100,194.3Zm0-182.42a88.92,88.92,0,1,0,88.92,88.92A89,89,0,0,0,100,11.89Z" transform="translate(-6.52 -7.31)"/><path d="M101.42,193.7c-27.6,0-50.06-41.55-50.06-92.62S73.82,8.45,101.42,8.45,151.48,50,151.48,101.08,129,193.7,101.42,193.7Zm0-183c-26.34,0-47.77,40.52-47.77,90.33s21.43,90.33,47.77,90.33,47.77-40.52,47.77-90.33S127.76,10.74,101.42,10.74Z" transform="translate(-6.52 -7.31)"/><path d="M100.45,149.81c-50.37,0-91.34-22-91.34-49.11s41-49.11,91.34-49.11,91.34,22,91.34,49.11S150.82,149.81,100.45,149.81Zm0-97.08c-49.74,0-90.2,21.52-90.2,48s40.46,48,90.2,48,90.2-21.52,90.2-48S150.19,52.73,100.45,52.73Z" transform="translate(-6.52 -7.31)"/><ellipse class="38a1d1ab-6ec1-4287-a4df-5e1ad8465b2c" cx="93.93" cy="93.39" rx="90.77" ry="48.54"/><path d="M84,116.33a9,9,0,0,1-6.26,2.25,9.21,9.21,0,0,1-6.32-2.31c-1.54-1.48-2.42-3.35-2.42-6.48v-2.31h5.82V110c0,2.25,1.32,3.35,2.91,3.35a2.63,2.63,0,0,0,2.09-1c.82-1,.93-3.35.93-5.77,0-2.64-.05-4.61-.88-5.71a2.55,2.55,0,0,0-2.2-1H75.76V95h1.92a2.36,2.36,0,0,0,1.87-.77c.88-1,.88-2.91.88-4.94s-.05-3.68-.77-4.61a2.3,2.3,0,0,0-1.92-.88c-1.48,0-2.64,1-2.64,3.13v2.75H69.28V87.32a8.36,8.36,0,0,1,2.42-6.48,8.48,8.48,0,0,1,6-2.25,8.22,8.22,0,0,1,6,2.2c1.76,1.76,2.53,4.28,2.53,8.13,0,2.64-.11,4.5-1,6.21a6.17,6.17,0,0,1-2.14,2.31,7.09,7.09,0,0,1,2.25,2.36c1,1.87,1.21,3.85,1.21,7.2C86.58,111.17,86.47,113.91,84,116.33Z" transform="translate(-6.52 -7.31)"/><path d="M106.74,115.45c-1.54,2.2-4.12,3.13-7,3.13-3.13,0-5.44-1.15-6.81-3.13-1.54-2.2-2-4.45-2-9.17A26.94,26.94,0,0,1,92.57,97l6.87-18h6L99,94.85a4.11,4.11,0,0,1,2.42-.66,6.23,6.23,0,0,1,5.16,2.42c1.43,1.81,2,3.9,2,9.67C108.61,111.49,108,113.64,106.74,115.45ZM101.9,100a2.55,2.55,0,0,0-2.09-1,2.66,2.66,0,0,0-2.14,1c-.93,1.21-.88,3.9-.88,6.26s-.05,4.89.88,6.15a2.66,2.66,0,0,0,2.14,1,2.48,2.48,0,0,0,2.09-1c.93-1.21.88-3.79.88-6.15S102.84,101.17,101.9,100Z" transform="translate(-6.52 -7.31)"/><path d="M128,116.27a8.93,8.93,0,0,1-6.21,2.31,9.06,9.06,0,0,1-6.26-2.31,8.22,8.22,0,0,1-2.47-6.48V87.38a8.22,8.22,0,0,1,2.47-6.48,9.06,9.06,0,0,1,6.26-2.31A8.93,8.93,0,0,1,128,80.9a8.22,8.22,0,0,1,2.47,6.48v22.41A8.23,8.23,0,0,1,128,116.27ZM124.7,87.16c0-2.25-1.26-3.35-2.86-3.35s-2.91,1.1-2.91,3.35V110c0,2.25,1.32,3.35,2.91,3.35s2.86-1.1,2.86-3.35Z" transform="translate(-6.52 -7.31)"/></svg>