<svg id="3eeed658-3687-42ee-83ff-72b0818831dc" data-name="Layer 39" xmlns="http://www.w3.org/2000/svg" viewBox="0 0 123.41 198.57"><title>arrow-right</title><g id="a2688557-2f1c-4ee7-abf2-d6b51ac0d6bd" data-name="8vsA8e.tif"><path d="M61.77,1.52h4.65C71.85,2.38,76,5.36,79.8,9.2c25.25,25.38,50.39,50.86,76,75.86,8.1,7.9,8.24,23.39,0,31.27-15.8,15.09-31,30.81-46.46,46.26Q93.63,178.29,77.92,194c-6.75,6.71-16.44,8.24-23.78,2.83s-14.63-11.44-15.63-21.69v-1.55c.66-6.45,4.15-11.22,8.64-15.66,18.3-18.1,36.44-36.35,54.64-54.55,2.64-2.64,2.64-2.65,0-5.27C83.67,79.94,65.6,61.74,47.36,43.71c-4.69-4.63-8.36-9.57-8.84-16.36v-1C41.26,13.36,49.52,5.57,61.77,1.52Z" transform="translate(-38.52 -1.52)"/></g></svg>