<svg id="fda50d84-391b-4b8b-aa1d-89dc4521ba37" data-name="Layer 4" xmlns="http://www.w3.org/2000/svg" viewBox="0 0 193.09 167.42"><title>audio</title><path d="M115.1,18.5l-61.77,47c-4.95,0-16.57,1-20.48,5H14a12,12,0,0,0-12,12v35a12,12,0,0,0,12,12H32.56c3.6,3.64,15.7,2.5,20.77,2.5l61.77,50c6,0,10.9-5.4,10.9-12V30.5C126,23.9,121.09,18.5,115.1,18.5Z" transform="translate(-2 -16.21)"/><path d="M155,16.5c-1.65.5-1.72,1.87-2.29,3.49a10.47,10.47,0,0,0-.4,5.81,11.36,11.36,0,0,0,3.15,5.47c17.08,16.22,28,41.26,28,69.37s-10.9,53-27.89,69.23a12.24,12.24,0,0,0-3.44,5.73,8.36,8.36,0,0,0,0,4.76,4.51,4.51,0,0,0,3,3c2.44.77,3.08-.1,5-1.8,21.13-18.43,34.86-48.26,34.86-81.94s-13.66-63.34-34.69-81.77C158.65,16.31,157.22,15.83,155,16.5Z" transform="translate(-2 -16.21)"/><path d="M162.53,102.85c0,17.42-6,33.13-15.76,44.33-1.39,1.6-2.87,2.5-3.38,4.51a10.81,10.81,0,0,0,.61,4.72c.54,1.59.55,2.91,2.17,3.36s2.73.58,4-.72c13.69-13.71,22.41-34.3,22.41-57.33s-8.72-43.63-22.41-57.34c-1.48-1.48-1.61-1.74-3.6-1.19a4.65,4.65,0,0,0-3.16,3.11c-.58,1.64-1.77,3.89-1.32,5.57.55,2.07,2.17,3.9,3.64,5.51C156.06,68.65,162.53,84.85,162.53,102.85Z" transform="translate(-2 -16.21)"/><path d="M138.15,101.68a31.81,31.81,0,0,1-3,13.53,27.91,27.91,0,0,0-2.39,6.5c-.31,1.82.78,4.23,1.38,6,.71,2.07.7,3.73,2.82,4.27,2.72.69,3.94-.06,5.62-2.44a48.27,48.27,0,0,0,8.46-27.76,47.77,47.77,0,0,0-10-29.77c-1.51-1.89-1.66-1.76-3.93-1.16a4.86,4.86,0,0,0-3.63,3.44c-.65,1.84-2,4.44-1.6,6.36A25.78,25.78,0,0,0,134.65,87,31.64,31.64,0,0,1,138.15,101.68Z" transform="translate(-2 -16.21)"/></svg>