<svg id="e233fcf2-699d-4ecb-a89f-4b6d0bf8b79e" data-name="Layer 81" xmlns="http://www.w3.org/2000/svg" viewBox="0 0 194 163.94"><defs><style>.ca501a4d-c9fa-4c14-84b0-cbea07c84857{fill:#231f20;}.e43b5eb2-358d-4125-904d-42d4fb8d4ad1{fill:#fff;}</style></defs><title>controller</title><path class="ca501a4d-c9fa-4c14-84b0-cbea07c84857" d="M150.06,56.5a46.31,46.31,0,0,0-19.43,4.25,120.29,120.29,0,0,0-13,4.88c-12.11,5.31-25,3.84-36.68-1.13a97.94,97.94,0,0,0-21.88-6.9A46.49,46.49,0,0,0,2.56,103c0,25.68,2.76,75,28.44,75,15.15,0,34.9-17.17,48.54-36.52,6.2-5.15,13-9,20.46-9,6.37,0,12.57,2.66,18.48,6.48,14.21,20.35,35.72,39,51.52,39,25.68,0,26.56-49.32,26.56-75A46.5,46.5,0,0,0,150.06,56.5Z" transform="translate(-2.56 -14.06)"/><path class="e43b5eb2-358d-4125-904d-42d4fb8d4ad1" d="M138.21,80.5c-5.12,1.75-17.91,2.85-25.26,3.91-9.62,1.38-19.53,1.65-28.62-.49-6.77-1.59-20.49-4.25-22.92-5.42-24.91-12-38.54,10.91-38.28,21.9C25,177,42.57,145.87,50.5,137.5c6.6-7,20.15-14.65,31.69-21.63,4.54-2.75,12.67-2.63,17-2.84,4.12-.21,12.13-.59,16.42,1.77,12.35,6.8,26.55,15.25,33.93,22.2,8.07,7.59,25,37,25-36.6C174.48,89.41,169,70,138.21,80.5Z" transform="translate(-2.56 -14.06)"/><path class="ca501a4d-c9fa-4c14-84b0-cbea07c84857" d="M100.65,64.52c10.85,0,15.65-4.26,15.65-9.51,0-3.41.29-6.38-5.27-8.06V24.78a10.75,10.75,0,0,0-10.72-10.72h0A10.75,10.75,0,0,0,89.59,24.78V47.15C84.4,48.86,85,51.74,85,55,85,60.26,89.8,64.52,100.65,64.52Z" transform="translate(-2.56 -14.06)"/><rect class="ca501a4d-c9fa-4c14-84b0-cbea07c84857" x="43" y="82.5" width="15" height="45.5" rx="7.5" ry="7.5" transform="translate(-57.31 141.69) rotate(-90)"/><rect class="ca501a4d-c9fa-4c14-84b0-cbea07c84857" x="40.44" y="68.44" width="15" height="45.5" rx="7.5" ry="7.5"/><circle class="ca501a4d-c9fa-4c14-84b0-cbea07c84857" cx="151.82" cy="81.81" r="8.37"/><circle class="ca501a4d-c9fa-4c14-84b0-cbea07c84857" cx="135.82" cy="94.81" r="8.37"/><circle class="ca501a4d-c9fa-4c14-84b0-cbea07c84857" cx="155.82" cy="101.81" r="8.37"/></svg>