<svg id="2df18453-efed-4dcf-84c9-8e3a9e28d605" data-name="Layer 80" xmlns="http://www.w3.org/2000/svg" viewBox="0 0 192.32 157.19"><defs><style>.\38 4b7df63-2391-4b12-83f7-c21ce0fd4a18{stroke:#231f20;stroke-miterlimit:10;stroke-width:6px;}</style></defs><title>controller</title><path class="84b7df63-2391-4b12-83f7-c21ce0fd4a18" d="M192.91,142.57a47.39,47.39,0,0,1-2,15.73,29.85,29.85,0,0,1-5.61,10.7c-5.68,6.77-12.23,8.75-20.65,6-7.06-2.31-12.92-6.64-18.67-11.16-6.88-5.41-12.83-11.94-20.09-16.89a46.06,46.06,0,0,0-55.78,2.53C62.4,155.79,55.36,163,47.06,168.61a50.62,50.62,0,0,1-11,5.93c-10.06,3.69-18.16.89-23.93-8.21a35.17,35.17,0,0,1-5.39-17.11c-1.44-27.08,7.48-50.39,26.71-69.45,9.82-9.74,21.64-11.5,34.63-6.64,7.29,2.73,14.66,5.34,22.39,6.64,10.09,1.7,19.9.43,29.53-2.8,4.34-1.45,8.74-2.73,13-4.31,13.44-4.93,24.87-1.28,34.47,8.52,12.87,13.14,20.75,29,24.08,47.1A65.41,65.41,0,0,1,192.91,142.57ZM184.36,141a66.8,66.8,0,0,0-1.67-13.31,82,82,0,0,0-15.1-33.14c-3.69-4.89-7.66-9.33-12.94-12.47a18.7,18.7,0,0,0-15.89-2c-5.15,1.65-10.31,3.27-15.43,5-12.18,4.12-24.56,5.39-37.22,2.71C78,86,70.34,83.11,62.56,80.48c-8.09-2.73-15.09-.95-21.6,4.21-7.28,5.78-12,13.52-16.35,21.45a75.74,75.74,0,0,0-9.36,40.25c.26,6.11,1.6,12,5.45,17,3,3.9,6.27,4.92,11,3.5a35.26,35.26,0,0,0,9.46-4.73c7.39-4.95,13.83-11.06,20.47-16.91,17-14.94,36.21-18.75,57.56-11.57,9.93,3.34,17.44,10.39,25.07,17.21,6.68,6,13.37,12,21.85,15.4,6.29,2.52,10.24,1.18,13.8-4.52C183.58,155.87,184.36,149.3,184.36,141Z" transform="translate(-3.63 -22)"/><path d="M101.84,74.26a58,58,0,0,1-13.31-1.19c-2-.38-2.65-1.23-2.41-3.13a12.62,12.62,0,0,0,0-2.81c-.17-1.73.47-2.39,2.27-2.37s4.55.91,5.65-.46c.74-.91-.6-3.45-.92-5.28-1.17-6.67,1.74-12.92,7.77-16.78.61-.39,1.26-.73,1.89-1.09,5.37-3.15,6-5.93,1.69-10.28-2.31-2.31-1.94-3.65-.19-5.83,3.19-4,3.09-4.06,6.55-.23,7.93,8.78,6.67,18-3.69,23.74-6.84,3.8-6.49,8.68-3.16,15,1,1.88,2.7,1.21,4.16,1.23,5.35.07,6.29,1.26,5.25,6.56-.25,1.28-1.07,1.31-2,1.56A46.36,46.36,0,0,1,101.84,74.26Z" transform="translate(-3.63 -22)"/><path d="M52.39,99.53c-.1-6.63-.1-6.63,5.83-6.63,5.28,0,5.33,0,5.71,5.44.22,3.13,1,6.46-2.52,8.59-1.32.81-2.13,3.37-3.65,2.66-2.58-1.2-4.89-3.23-5.33-6.41A22.54,22.54,0,0,1,52.39,99.53Z" transform="translate(-3.63 -22)"/><path d="M52.28,124.62c-1.26-3.73,1.33-6.48,4.32-9.13,1.09-1,1.69-.75,2.86,0,5.57,3.72,4.53,9.21,4.18,14.55A1.38,1.38,0,0,1,62,131.52c-1.14,0-2.29,0-3.43.05C52.28,131.6,52.28,131.59,52.28,124.62Z" transform="translate(-3.63 -22)"/><path d="M44.91,117.89c-7.92-.08-6.08.65-6.37-6.23-.21-5-.06-5,4.76-5,1.76,0,3.52-.12,5.29-.19,1,0,6.91,4.47,7.2,5.4a1,1,0,0,1-.35,1.08c-2.68,2.65-4.93,6.12-9.59,5A4.07,4.07,0,0,0,44.91,117.89Z" transform="translate(-3.63 -22)"/><path d="M70.23,117.89c-4.21,1.71-6.62-2.17-9.62-4.73-.52-.44-.79-1-.14-1.56,2.65-2.4,4.45-5.95,9.17-5.12a20.47,20.47,0,0,0,5.85.17c1.35-.17,1.84.71,1.79,1.94,0,1-.16,2.08-.18,3.11C77,117.9,77,117.9,70.23,117.89Z" transform="translate(-3.63 -22)"/><path d="M141.54,131.57a7.09,7.09,0,1,1,.05-14.17,7,7,0,0,1,6.91,7A6.82,6.82,0,0,1,141.54,131.57Z" transform="translate(-3.63 -22)"/><path d="M141.35,92.91a6.84,6.84,0,0,1,7.15,7,7.18,7.18,0,0,1-6.73,7.2,7.6,7.6,0,0,1-7.44-7.25A7.09,7.09,0,0,1,141.35,92.91Z" transform="translate(-3.63 -22)"/><path d="M153.83,119.28a7.23,7.23,0,0,1-7.22-7.73c.08-3.3,3.4-6.53,6.79-6.61,3.63-.08,7.64,3.51,7.65,6.86A7.34,7.34,0,0,1,153.83,119.28Z" transform="translate(-3.63 -22)"/><path d="M129.29,119.24c-4.25.05-7.25-3.1-7.27-7.65,0-3,4-6.78,7.15-6.69a7.42,7.42,0,0,1,7,7.39A6.82,6.82,0,0,1,129.29,119.24Z" transform="translate(-3.63 -22)"/></svg>