<svg id="9f9b785e-a17f-484e-bc11-5a5d25a05d07" data-name="Layer 81" xmlns="http://www.w3.org/2000/svg" viewBox="0 0 194 163.94"><defs><style>.bbd0d9e5-e8a4-4210-b500-efd4ea06c3b8{fill:#231f20;}</style></defs><title>controller</title><rect class="bbd0d9e5-e8a4-4210-b500-efd4ea06c3b8" x="43" y="82.5" width="15" height="45.5" rx="7.5" ry="7.5" transform="translate(-57.31 141.69) rotate(-90)"/><rect class="bbd0d9e5-e8a4-4210-b500-efd4ea06c3b8" x="40.44" y="68.44" width="15" height="45.5" rx="7.5" ry="7.5"/><circle class="bbd0d9e5-e8a4-4210-b500-efd4ea06c3b8" cx="151.82" cy="81.81" r="8.37"/><circle class="bbd0d9e5-e8a4-4210-b500-efd4ea06c3b8" cx="135.82" cy="94.81" r="8.37"/><circle class="bbd0d9e5-e8a4-4210-b500-efd4ea06c3b8" cx="155.82" cy="101.81" r="8.37"/><path class="bbd0d9e5-e8a4-4210-b500-efd4ea06c3b8" d="M150.06,56.5a46.31,46.31,0,0,0-19.43,4.25,120.29,120.29,0,0,0-13,4.88c-12.11,5.31-25,3.84-36.68-1.13a97.94,97.94,0,0,0-21.88-6.9A46.49,46.49,0,0,0,2.56,103c0,25.68,2.76,75,28.44,75,15.15,0,34.9-17.17,48.54-36.52,6.2-5.15,13-9,20.46-9,6.37,0,12.57,2.66,18.48,6.48,14.21,20.35,35.72,39,51.52,39,25.68,0,26.56-49.32,26.56-75A46.5,46.5,0,0,0,150.06,56.5ZM149.5,137c-7.38-6.95-21.58-15.4-33.93-22.2-4.28-2.36-12.29-2-16.42-1.77-4.29.22-12.42.09-17,2.84-11.54,7-25.09,14.67-31.69,21.63C42.57,145.87,25,177,23.14,100.4c-.26-11,13.36-33.9,38.28-21.9,2.43,1.17,16.15,3.84,22.92,5.42,9.09,2.13,19,1.87,28.62.49,7.35-1.06,20.14-2.16,25.26-3.91C169,70,174.48,89.41,174.48,100.4,174.48,174,157.57,144.59,149.5,137Z" transform="translate(-2.56 -14.06)"/><path class="bbd0d9e5-e8a4-4210-b500-efd4ea06c3b8" d="M100.65,64.52c10.85,0,15.65-4.26,15.65-9.51,0-3.41.29-6.38-5.27-8.06V24.78a10.75,10.75,0,0,0-10.72-10.72h0A10.75,10.75,0,0,0,89.59,24.78V47.15C84.4,48.86,85,51.74,85,55,85,60.26,89.8,64.52,100.65,64.52Z" transform="translate(-2.56 -14.06)"/></svg>