<svg id="f2350613-8772-4c6e-9c8f-eb2578c7433d" data-name="Layer 84" xmlns="http://www.w3.org/2000/svg" viewBox="0 0 184.77 184.83"><title>fullscreen-2</title><g id="528fb030-5ada-4522-802f-80c98740ff8a" data-name="erjs6G.tif"><path d="M42.42,191.85c-10,0-20-.12-30,.08-3.36.07-4.34-.94-4.32-4.31.14-20.19,0-40.38.07-60.58,0-1.21-.64-2.85.72-3.5,1.72-.82,2.5,1,3.45,2,6.09,6,12.29,11.9,18.08,18.19,3.16,3.43,5.27,3.91,8.66.18,5.87-6.45,12.38-12.31,18.4-18.64,2.81-3,4.83-3,7.51.11a77,77,0,0,0,9.27,9.22c4,3.26,3.06,5.61-.23,8.7-6.23,5.85-12,12.19-18.26,18-3.25,3-2.93,5,.13,7.87,6,5.59,11.7,11.45,17.4,17.33,1.29,1.33,4,2.41,3.1,4.56-.76,1.78-3.31.74-5,.75C61.71,191.88,52.07,191.84,42.42,191.85Z" transform="translate(-7.91 -7.27)"/><path d="M192.56,157.16c0,10-.11,20,.06,30,.06,3.35-.54,4.81-4.42,4.77-19.83-.21-39.66-.09-59.5-.15-1.49,0-3.65.87-4.29-1.17-.48-1.51,1.3-2.44,2.29-3.43,6.28-6.33,12.53-12.69,18.94-18.88,2.37-2.29,2.4-4,0-6.28-6.67-6.45-13.08-13.16-19.75-19.62-2.6-2.52-3.13-4.45-.12-7.11a125.51,125.51,0,0,0,10.42-10.4c2.47-2.75,4.31-2.43,6.71,0,6.34,6.52,13,12.78,19.21,19.38,2.75,2.91,4.63,3.12,7.48.08,6.23-6.62,12.78-12.95,19.24-19.35.82-.81,1.57-2.39,3.09-1.5,1.06.62.64,2,.64,3q0,15.28,0,30.57Z" transform="translate(-7.91 -7.27)"/><path d="M8.16,41.15c0-9.82.13-19.64-.07-29.46C8,8.36,9,7.33,12.38,7.35c20,.15,40,.07,60,.12,1.34,0,3.24-.68,3.88,1S75.09,11,74.13,12c-5.88,6-11.59,12.09-17.82,17.66-3.94,3.52-3.42,5.76.15,9.05,6.28,5.79,12.06,12.12,18.25,18,2.79,2.65,2.72,4.62-.06,7.14a100.67,100.67,0,0,0-9.23,9.27c-3,3.57-5.39,3.82-8.74.17-5.65-6.16-12-11.7-17.59-17.89-3.37-3.72-5.5-3.28-8.66.18C24.89,61.58,19,67.24,13.11,73c-1.2,1.17-2.16,3.62-4.19,2.73-1.68-.74-.73-3-.74-4.52-.07-10,0-20,0-30Z" transform="translate(-7.91 -7.27)"/><path d="M157.73,7.43c10,0,20,.11,30-.06,3.41-.06,4.88.84,4.85,4.56-.13,20.2,0,40.4,0,60.61,0,1.19.63,2.86-1,3.34-1.39.42-2.17-1.07-3-1.94-6.32-6.29-12.74-12.49-18.86-19-2.74-2.9-4.62-3.18-7.49-.13-6.11,6.49-12.63,12.59-18.82,19-2.53,2.62-4.5,3.09-7.15.15-3.28-3.65-6.8-7.1-10.41-10.43-2.64-2.44-2.46-4.31.06-6.74,6.55-6.32,12.81-12.94,19.39-19.22,2.76-2.63,2.76-4.44,0-7.07-6.47-6.13-12.7-12.52-19-18.87-.94-1-2.84-1.79-2.06-3.43s2.63-.77,4-.78C138.08,7.4,147.9,7.43,157.73,7.43Z" transform="translate(-7.91 -7.27)"/></g></svg>