<svg id="02b65d01-c521-4bfa-8b27-795b55e75826" data-name="Layer 63" xmlns="http://www.w3.org/2000/svg" viewBox="0 0 194.03 177.22"><title>heart</title><g id="60910d3d-ce4a-42c9-9ad0-1f502afaf82a" data-name="i9ZrUR.tif"><path d="M3.51,79.86a86.23,86.23,0,0,1,0-25.54c3.35-21.94,19.9-37.71,42.06-40.56a76.42,76.42,0,0,1,21,0A51.09,51.09,0,0,1,95.84,29.44c2.61,2.73,5,2.73,7.6,0a51.09,51.09,0,0,1,29.25-15.67,77.6,77.6,0,0,1,21,0c37.7,4.67,51.3,44.65,37.75,77.62C187,102.36,180.2,112,172.67,121c-20.7,24.91-46.78,44.3-69.31,67.34-3.63,3.71-6.05,1.28-8.77-1.25C80.89,174.33,67,161.74,53.41,148.85,32.46,129,7.92,109.55,3.51,79.86Z" transform="translate(-2.56 -13.04)"/></g></svg>