<svg id="d5d9142f-d4ae-4578-80fe-c2d38ee88dae" data-name="Layer 26" xmlns="http://www.w3.org/2000/svg" viewBox="0 0 196.21 169.73"><title>history</title><path d="M30.69,83.54H5.36s-1.88-.24-2.45,1,.92,3.66.92,3.66l40.41,48.61a9,9,0,0,0,2.52,1.07,9.16,9.16,0,0,0,2.55-1.11L89.83,88s1.21-2.71.78-3.5c-.33-.61-2.62-1-2.62-1H61.48a54.84,54.84,0,1,1,27.88,65.24,4.28,4.28,0,0,0-2.22-.18c-.43,0-1.46.87-1.46.87l-15.57,20s-.34,1.17-.18,1.51c.31.64.21.75.82,1.12A84.86,84.86,0,1,0,30.69,83.54Z" transform="translate(-2.76 -14.24)"/><path d="M148.16,90.83h0c-2-2.71-18.94,5.82-30.87,12.32-1.67-16.65-4.78-41.81-8.33-41.81-5.3,0-9.63,56.19-9.63,56.19a9.58,9.58,0,0,0,10.76,9.55,9.58,9.58,0,0,0,6.88-1.84S151.33,95.06,148.16,90.83Z" transform="translate(-2.76 -14.24)"/></svg>