<svg id="da43c07c-4d6c-4ace-bdd6-fc9625680515" data-name="Layer 31" xmlns="http://www.w3.org/2000/svg" viewBox="0 0 80.72 197.56"><title>info</title><path d="M139.44,199c-2.43,0-16.39-.91-42.79-.91-17.6,0-29.44.91-32.77.91-1.52,0-2.43-.61-2.43-3v-6.07c0-1.82.91-2.43,3-2.43H75.71c3.34,0,5.46-1.21,5.77-6.07.61-9.1.61-18.51.61-27l-.61-42.49c0-8.5-1.82-14.57-14.57-19.12-3.34-1.21-3.64-2.43-3.64-4.25V85.19c0-.91.61-1.52,3.34-2.43L111.82,68.2A25.23,25.23,0,0,1,120,66.37c2.43,0,3.34,1.52,3,3.64-.61,5.16-.61,24.28-.61,51v32.47c0,11.83,0,22.76.3,26.1.61,5.77,2.12,7.89,5.46,7.89h10.92c2.43,0,3,.91,3,2.73V196C142.17,198.08,141.56,199,139.44,199ZM97.86,43.31c-12.75.3-22.15-9.71-22.15-21.85,0-10,10.32-20,23.67-20,14.87,0,22.46,10.32,22.46,19.12C121.84,30.57,114.86,42.7,97.86,43.31Z" transform="translate(-61.45 -1.43)"/></svg>