<svg id="ef0578dd-a635-4dc3-a095-f7cf2cfcebb6" data-name="Layer 37" xmlns="http://www.w3.org/2000/svg" viewBox="0 0 181.09 199.43"><title>logout</title><g id="75a967a6-4f90-4c35-8011-a537bbdd0f24" data-name="HiJxxI.tif"><path d="M12.33.78C21.89,7.47,32.11,13.11,42,19.29Q57.48,29,73.16,38.39c2.91,1.74,4,3.89,4,7.26q-.12,74.09-.06,148.17c0,6.44-2.7,8-8.21,4.64q-27.38-16.72-54.7-33.54a12.83,12.83,0,0,1-3.44-3.1q0-79,.08-157.95C10.86,2.9,9.27.54,12.33.78ZM56.77,101.62c0,1.94-.09,3.88,0,5.82a3.65,3.65,0,0,0,7.26.3,81.32,81.32,0,0,0,0-11.23c-.13-2-1.7-3.15-3.83-3A3.37,3.37,0,0,0,56.78,97C56.68,98.51,56.76,100.06,56.77,101.62Z" transform="translate(-10.45 -0.76)"/><path d="M140.71.78q.1,28.38.23,56.77c0,2.62-1.27,3.36-3.62,3.31-3.37-.07-6.75-.17-10.11,0s-4.6-1.07-4.55-4.47c.15-10.5.06-21,0-31.5,0-5.45,0-5.48-5.34-5.48-18.54,0-37.08,0-55.61,0A15.51,15.51,0,0,1,53,17.05C46,12.6,38.83,8.36,31.77,4c-1.28-.79-2.88-1.37-3.1-3.22Z" transform="translate(-10.45 -0.76)"/><path d="M130.86,94.36c-5.18,0-10.37-.13-15.54,0-3.73.12-5.14-1.55-5.07-5.11.1-5,0-10.1,0-15.15,0-4.81.92-5.73,5.65-5.75,9.84,0,19.69,0,29.53,0,5,0,5.31-.32,5.37-5.23,0-2.2-.09-4.41.09-6.6.33-4.11,2.66-5.25,6-2.79,7.41,5.44,14.69,11.06,22,16.6,3.41,2.58,6.86,5.11,10.21,7.76,3,2.4,3.2,4.32.27,6.57q-16.18,12.42-32.53,24.61c-3.29,2.45-5.6,1.27-6-2.91-.2-2.31-.07-4.66-.11-7-.07-4.65-.39-5-5.2-5S135.78,94.37,130.86,94.36Z" transform="translate(-10.45 -0.76)"/><path d="M140.93,132c0,8.55-.11,17.11.05,25.66.06,3.24-1.14,4.31-4.3,4.29q-23.72-.14-47.44,0c-3.36,0-4.72-1.22-4.57-4.55s.13-6.48,0-9.72c-.11-3,1.16-4.08,4.16-4,9.72.13,19.44-.12,29.16.13,3.85.1,4.85-1.28,4.78-4.93-.2-10.62-.09-21.25-.06-31.88,0-4.65.39-5,5.16-5,2.85,0,5.71.13,8.55,0,3.29-.19,4.64,1,4.56,4.45C140.8,114.9,140.93,123.45,140.93,132Z" transform="translate(-10.45 -0.76)"/></g></svg>