<svg id="b9b6951a-667a-45d2-83c5-264d811c1b76" data-name="Layer 61" xmlns="http://www.w3.org/2000/svg" viewBox="0 0 144.16 193.87"><title>loupe</title><path d="M106,3.26A98.58,98.58,0,0,1,117.48,5.2a71.39,71.39,0,0,1,31.78,17.22A69.89,69.89,0,0,1,171,61.9c3.54,19.57-.44,37.63-11.56,54.17-5.81,8.64-11.34,17.46-17,26.18q-15.69,24-31.42,48.06a14.83,14.83,0,0,1-5.14,5.36,11.29,11.29,0,0,1-14.71-3.2c-2.81-3.93-5.4-8-8-12.08q-19.52-29.83-39-59.66c-3.27-5-6.79-9.8-9.29-15.25A70.68,70.68,0,0,1,28.39,81.6c-1.63-20.16,4-38.06,17.14-53.41a70.24,70.24,0,0,1,42.17-24c2.2-.39,4.43-.64,6.65-1ZM100.17,129A56.25,56.25,0,1,0,43.79,72.8C43.8,103.93,69.37,129.29,100.17,129Z" transform="translate(-28.11 -3.26)"/></svg>