<svg id="fd17e9e1-6ebe-44a2-8cac-829ca1c3edd4" data-name="Layer 83" xmlns="http://www.w3.org/2000/svg" viewBox="0 0 188.7 165.04"><title>pacman</title><path d="M194.9,101c-.15,9.43-7.91,16.6-17.66,16.35a17,17,0,0,1-16.45-17c.13-9,8.74-17.42,17.44-17.13C187.39,83.57,195.05,91.72,194.9,101Z" transform="translate(-6.2 -18.79)"/><path d="M153.9,101c-.15,9.43-7.91,16.6-17.66,16.35a17,17,0,0,1-16.45-17c.13-9,8.74-17.42,17.44-17.13C146.39,83.57,154.05,91.72,153.9,101Z" transform="translate(-6.2 -18.79)"/><path d="M154.65,135.51c-17-9.8-33.86-19.88-50.74-29.92-6.28-3.73-6.28-4.67-.06-8.37,16.87-10,33.69-20.18,50.73-29.91,5.26-3,5.74-5.77,2.46-10.64-12.45-18.49-29.58-30-51.08-35.34l-5.25-1.28c-9-2-16.09-1.36-25.76,0-18,4.11-34.12,11.83-46.58,25.83C7.31,69.58.86,97,10.72,127.07c9.95,30.35,31.74,48.75,62.9,55.35,30.53,6.47,67.11-10.09,83.77-36.85C160.46,140.65,159.36,138.22,154.65,135.51ZM82.94,58.06c.13-9,8.74-17.42,17.44-17.13,9.17.3,16.82,8.45,16.67,17.75S109.15,75.28,99.4,75A17,17,0,0,1,82.94,58.06Z" transform="translate(-6.2 -18.79)"/></svg>