<svg id="e69914fe-c565-44e4-b66e-f8f69608565b" data-name="Layer 82" xmlns="http://www.w3.org/2000/svg" viewBox="0 0 190.01 181.84"><defs><style>.\38 bbbac1b-b28a-45cc-87eb-34bb2e129835{fill:#231f20;}</style></defs><title>upload-outline</title><path class="8bbbac1b-b28a-45cc-87eb-34bb2e129835" d="M63,26.5s-15-4-26,5-7.09,19.08-7.09,19.08S6.5,58.5,6.5,93.5s23,43,30,43.5,26.52,5.06,36-1C76,133.75,79,125.5,76,120.5S63,115,63,115s-13-.12-21-.5c-10.67-.5-27.46-37.28,2.5-49C56,61,45.38,52.8,54,46c8.82-6.95,13,.5,18.49-1s14.5-20.67,36-21c19.81-.31,24.26,8.66,27.5,22.5,4.23,18.07,39.36-2.79,40.61,40.51C177.67,123.33,161,116.5,153,116s-21.67-1.33-26.5,4c-4.4,4.85-3.31,6.25-3.5,12.67-.33,11.33,25,6.67,41,7.08,30.34.78,32.69-40.32,32.5-53.74-.5-35.5-29.85-50.81-37-48-10.17,4-8-34-49-34.5S63,26.5,63,26.5Z" transform="translate(-6.5 -3.49)"/><rect class="8bbbac1b-b28a-45cc-87eb-34bb2e129835" x="79.5" y="32.27" width="25.33" height="149.57" rx="12" ry="12"/><rect class="8bbbac1b-b28a-45cc-87eb-34bb2e129835" x="64.16" y="26.99" width="25.33" height="86.09" rx="12" ry="12" transform="translate(65.52 -37.3) rotate(45)"/><rect class="8bbbac1b-b28a-45cc-87eb-34bb2e129835" x="107.74" y="26.99" width="25.33" height="86.09" rx="12" ry="12" transform="translate(248.57 30.92) rotate(135)"/></svg>