<svg id="4cc97afa-d161-4e5e-8065-dc510a17be21" data-name="Layer 79" xmlns="http://www.w3.org/2000/svg" viewBox="0 0 184.22 184.98"><defs><style>.\37 db447aa-99cf-44dd-ac8e-916e134ef4c6{stroke:#231f20;stroke-miterlimit:10;stroke-width:8px;}</style></defs><title>upload-outline</title><path class="7db447aa-99cf-44dd-ac8e-916e134ef4c6" d="M62.24,126.35c-6.17-.39-14.13.89-22-.59-13.36-2.53-25.7-13.9-27.9-25.42C9,82.55,14.33,68.14,27.82,59.7a9.94,9.94,0,0,0,5.09-7.12,24.16,24.16,0,0,1,32.59-18c2.91,1.11,4.21.82,6-1.87C81.33,18,95.35,10.62,112.95,11.89c18.72,1.35,32,11.34,39.32,28.71a7,7,0,0,0,5.23,4.6c18.56,5,35.39,24.27,28.55,51-4.54,17.72-19.35,29.63-38.3,30.17-7.91.22-15.82,0-23.74.06-2.61,0-5.67.13-5.74-3.33-.08-3.81,3.21-3.63,5.92-3.65,7.17,0,14.34-.24,21.5,0,18.15.57,33.18-14.22,34.88-32.23,1.61-17-10.9-32.7-28.72-36.06-3-.57-4.13-2.32-5-4.91-5.8-17.53-20.29-28-38.58-27.33C93.13,19.42,82.14,27,75.11,40.39c-2.87,5.45-3.46,5.65-8.69,2.39-5.8-3.62-11.86-3.92-17.85-.73s-9.32,8.4-9.15,15.26c.09,3.48-1.4,5-4.32,6.32A29,29,0,0,0,24,107.75c5.74,7.59,13.43,11.92,23.39,11.72,11.64-.23,23.29-.09,34.93-.09a30.18,30.18,0,0,1,3.57.15c2,.24,3.52,1.26,3.46,3.39-.06,2.28-1.59,3.42-3.86,3.43C78.29,126.36,71.12,126.35,62.24,126.35Z" transform="translate(-7.39 -7.75)"/><path class="7db447aa-99cf-44dd-ac8e-916e134ef4c6" d="M107.82,61.53c-.87,1.9-.44,3.85-.45,5.72q-.05,56.17,0,112.35c0,1.19,0,2.39,0,3.58,0,2.69-.26,5.58-3.63,5.56s-3.53-3-3.53-5.63q0-35.15,0-70.3,0-25.72,0-51.43c-1.74-.28-2.33,1-3.09,1.76Q80.75,79.65,64.44,96.24c-1.82,1.85-4,3.26-6.18,1-2.61-2.65-.61-5,1.35-6.9,8.69-8.6,17.45-17.14,26.15-25.72,4.78-4.72,9.59-9.41,14.22-14.27,2.65-2.79,4.83-2.75,7.52,0,13.45,13.56,27,27,40.48,40.55,1.75,1.75,3.6,3.85,1.34,6.15s-4.71,1-6.56-1.08C132.84,85,122,75,111.65,64.42,110.56,63.31,109.71,61.78,107.82,61.53Z" transform="translate(-7.39 -7.75)"/></svg>