<svg id="9d608ce0-9681-4b84-83f5-98150d4e0c1b" data-name="Layer 3" xmlns="http://www.w3.org/2000/svg" viewBox="0 0 197.5 140.27"><title>film</title><path d="M191.59,31.17H7.91a7,7,0,0,0-6.91,7V164.44a7,7,0,0,0,6.91,7H191.59a7,7,0,0,0,6.91-7V38.17A7,7,0,0,0,191.59,31.17ZM29.14,164.25h-18V146h18Zm0-27h-18V119h18Zm0-27h-18V92h18Zm0-27h-18V65h18Zm0-27h-18V38h18ZM73.09,141V63.25l64,38.88Zm115,23.25h-18V146h18Zm0-27h-18V119h18Zm0-27h-18V92h18Zm0-27h-18V65h18Zm0-27h-18V38h18Z" transform="translate(-1 -31.17)"/></svg>