<svg id="c10916f6-17eb-44f4-9604-90fc443ccb87" data-name="Layer 24" xmlns="http://www.w3.org/2000/svg" viewBox="0 0 196 149.33"><title>eye</title><path d="M99.5,25c-54.12,0-98,89.05-98,89.05s43.88,60.28,98,60.28,98-60.28,98-60.28S153.62,25,99.5,25Zm1,138.66a63.83,63.83,0,1,1,63.67-63.83A63.75,63.75,0,0,1,100.5,163.66Z" transform="translate(-1.5 -25)"/><path d="M124.17,90.14a22.4,22.4,0,0,1-21-29.88l-1.12,0a39.65,39.65,0,1,0,36.61,24.58A22.21,22.21,0,0,1,124.17,90.14Z" transform="translate(-1.5 -25)"/></svg>