<svg xmlns="http://www.w3.org/2000/svg" id="26e587d7-28e8-41e4-9aed-687af110e552" data-name="Layer 72" viewBox="0 0 190.47 105.73"><defs><style>.cb528473-a4cc-4dd4-a52d-4a05ccaec986{fill:#231f20;}.7a1e1738-ed58-4c67-84a6-d974e744b9ef{font-size:63.7px;font-family:TrebuchetMS, Trebuchet MS;}.3b39fbb1-b086-4b51-b10e-2e1ba7070ce8{fill:#fff;}</style></defs><path d="M139.05 23.47c23.38 4.87 41.49 13.4 41.49 23.21 0 15.35-38.15 27.79-85.2 27.79s-85.2-12.44-85.2-27.79c0-9.3 17-17.45 39.41-22.42C20.2 29.88 0 40.85 0 55.04c0 21 42.64 38 95.24 38s95.24-17 95.24-38c-.01-14.88-20.66-26.22-51.43-31.57z" class="cb528473-a4cc-4dd4-a52d-4a05ccaec986"/><text class="7a1e1738-ed58-4c67-84a6-d974e744b9ef" transform="translate(43.81 54.62)">360</text><path d="M79.97 104.54c-5.77 3.21-8-.4-8-7V67.29c0-6.6 2.22-11.19 8-8 8.77 4.85 30.5 17 30.5 22.63 0 4.62-20.93 17.29-30.5 22.62z" class="3b39fbb1-b086-4b51-b10e-2e1ba7070ce8"/><path d="M75.97 104.54c-5.77 3.21-8-.4-8-7V67.29c0-6.6 2.22-11.19 8-8 8.77 4.85 30.5 17 30.5 22.63 0 4.62-20.93 17.29-30.5 22.62z" class="cb528473-a4cc-4dd4-a52d-4a05ccaec986"/></svg>