<svg xmlns="http://www.w3.org/2000/svg" id="48dba384-039e-4753-9f8d-e86550af922f" data-name="Layer 88" viewBox="0 0 186.99 186.99"><defs><style>.38a1d1ab-6ec1-4287-a4df-5e1ad8465b2c{opacity:0.3;}</style></defs><path d="M93.48 186.99a93.5 93.5 0 1 1 93.5-93.5 93.6 93.6 0 0 1-93.5 93.5zm0-182.42a88.92 88.92 0 1 0 88.92 88.92A89 89 0 0 0 93.48 4.58z"/><path d="M94.9 186.39c-27.6 0-50.06-41.55-50.06-92.62S67.3 1.14 94.9 1.14s50.06 41.55 50.06 92.63-22.48 92.62-50.06 92.62zm0-183c-26.34 0-47.77 40.52-47.77 90.33s21.43 90.33 47.77 90.33 47.77-40.52 47.77-90.33S121.24 3.43 94.9 3.43z"/><path d="M93.93 142.5c-50.37 0-91.34-22-91.34-49.11s41-49.11 91.34-49.11 91.34 22 91.34 49.11-40.97 49.11-91.34 49.11zm0-97.08c-49.74 0-90.2 21.52-90.2 48s40.46 48 90.2 48 90.2-21.52 90.2-48-40.46-48-90.2-48z"/><ellipse cx="93.93" cy="93.39" class="38a1d1ab-6ec1-4287-a4df-5e1ad8465b2c" rx="90.77" ry="48.54"/><path d="M77.48 109.02a9 9 0 0 1-6.26 2.25 9.21 9.21 0 0 1-6.32-2.31c-1.54-1.48-2.42-3.35-2.42-6.48v-2.31h5.82v2.52c0 2.25 1.32 3.35 2.91 3.35a2.63 2.63 0 0 0 2.09-1c.82-1 .93-3.35.93-5.77 0-2.64-.05-4.61-.88-5.71a2.55 2.55 0 0 0-2.2-1h-1.91v-4.87h1.92a2.36 2.36 0 0 0 1.87-.77c.88-1 .88-2.91.88-4.94s-.05-3.68-.77-4.61a2.3 2.3 0 0 0-1.92-.88c-1.48 0-2.64 1-2.64 3.13v2.75h-5.82v-2.36a8.36 8.36 0 0 1 2.42-6.48 8.48 8.48 0 0 1 6-2.25 8.22 8.22 0 0 1 6 2.2c1.76 1.76 2.53 4.28 2.53 8.13 0 2.64-.11 4.5-1 6.21a6.17 6.17 0 0 1-2.14 2.31 7.09 7.09 0 0 1 2.25 2.36c1 1.87 1.21 3.85 1.21 7.2.03 4.17-.08 6.91-2.55 9.33zm22.74-.88c-1.54 2.2-4.12 3.13-7 3.13-3.13 0-5.44-1.15-6.81-3.13-1.54-2.2-2-4.45-2-9.17a26.94 26.94 0 0 1 1.64-9.28l6.87-18h6l-6.44 15.85a4.11 4.11 0 0 1 2.42-.66 6.23 6.23 0 0 1 5.16 2.42c1.43 1.81 2 3.9 2 9.67.03 5.21-.58 7.36-1.84 9.17zm-4.84-15.45a2.55 2.55 0 0 0-2.09-1 2.66 2.66 0 0 0-2.14 1c-.93 1.21-.88 3.9-.88 6.26s-.05 4.89.88 6.15a2.66 2.66 0 0 0 2.14 1 2.48 2.48 0 0 0 2.09-1c.93-1.21.88-3.79.88-6.15s.06-5.09-.88-6.26zm26.1 16.27a8.93 8.93 0 0 1-6.21 2.31 9.06 9.06 0 0 1-6.26-2.31 8.22 8.22 0 0 1-2.47-6.48V80.07a8.22 8.22 0 0 1 2.47-6.48 9.06 9.06 0 0 1 6.26-2.31 8.93 8.93 0 0 1 6.21 2.31 8.22 8.22 0 0 1 2.47 6.48v22.41a8.23 8.23 0 0 1-2.47 6.48zm-3.3-29.11c0-2.25-1.26-3.35-2.86-3.35s-2.91 1.1-2.91 3.35v22.84c0 2.25 1.32 3.35 2.91 3.35s2.86-1.1 2.86-3.35z"/></svg>