<svg id="bad5623a-001b-4db4-888e-54fd7f85b04e" data-name="Layer 49" xmlns="http://www.w3.org/2000/svg" viewBox="0 0 196.61 164.93"><title>add-image</title><path d="M186.61,29.67H14a12,12,0,0,0-12,12v80.81a52.56,52.56,0,0,1,89.93,1.78l51.73-50.09,36.67,30.49V156H98.72A52.23,52.23,0,0,1,95,170.67h91.6a12,12,0,0,0,12-12v-117A12,12,0,0,0,186.61,29.67ZM54.5,89A14.83,14.83,0,1,1,69.33,74.17,14.83,14.83,0,0,1,54.5,89Z" transform="translate(-2 -29.67)"/><path d="M83.68,137.11H60.48v-23.2a5.34,5.34,0,0,0-5.32-5.32H36.84a5.34,5.34,0,0,0-5.32,5.32v23.2H8.32A5.34,5.34,0,0,0,3,142.43v18.32a5.34,5.34,0,0,0,5.32,5.32h23.2v23.2a5.34,5.34,0,0,0,5.32,5.32H55.16a5.34,5.34,0,0,0,5.32-5.32v-23.2h23.2A5.34,5.34,0,0,0,89,160.76V142.43A5.34,5.34,0,0,0,83.68,137.11Z" transform="translate(-2 -29.67)"/></svg>