<svg xmlns="http://www.w3.org/2000/svg" data-name="Layer 48" viewBox="0 0 184.87 171.25"><path d="M75.28 110.34H53.63V88.69a5 5 0 0 0-5-5H31.57a5 5 0 0 0-5 5v21.65H5a5 5 0 0 0-5 5v17.1a5 5 0 0 0 5 5h21.61v21.57a5 5 0 0 0 5 5h17.1a5 5 0 0 0 5-5v-21.65h21.57a5 5 0 0 0 5-5v-17.1a5 5 0 0 0-5-4.92z"/><path d="M116.62 136.54q0 19 13.7 19a48.43 48.43 0 0 0 6.45-.63 49 49 0 0 1 6.45-.63 8.53 8.53 0 0 1 6 2.41 7.59 7.59 0 0 1 2.55 5.7q0 8.87-12.09 8.87h-1.61a11.85 11.85 0 0 0-1.88-.25l-13.12-1.8a128.24 128.24 0 0 0-16.93-1 141.69 141.69 0 0 0-18 1l-13.44 1.78a8.25 8.25 0 0 0-1.88.25h-1.88q-11.83 0-11.82-8.87 0-8.11 8.6-8.11a49.13 49.13 0 0 1 6.45.63 48.3 48.3 0 0 0 6.45.63q13.43 0 13.43-19V33.69q0-18-19.62-18h-8.32q-19.35 0-19.35 17.73 0 6.33.27 8.61l1.07 9.37a58.12 58.12 0 0 1 .27 6.33q0 16-10.48 16-9.94 0-9.94-11.65 0-3.29.54-11.4.81-12.16.81-15.45 0-6.33-.45-13.17Q28 8.61 28 10.64 28 0 38.19 0q3.75 0 17.44.76 1.34 0 22 1h30.58q5.37 0 28.71-.44 5.1 0 17.43-.66 11-.66 17.17-.66 13.41 0 13.41 10.39v.51q0 2.54-.67 9.37t-1.48 14.69v2.79q0 3.8.81 11.91 1.07 10.64 1.07 13.17-.06 10.38-10.54 10.38-10.21 0-10.21-12.72 0-4.58.81-13.61t.81-13.61q0-17.56-21.23-17.56h-7.52q-9.95 0-14.24 3.93t-4.84 13l-1.08 17.77z"/></svg>