<svg xmlns="http://www.w3.org/2000/svg" data-name="Layer 40" viewBox="0 0 123.41 198.57"><path d="M100.16 0h-4.68c-5.44.86-9.56 3.84-13.38 7.68-25.25 25.38-50.39 50.86-76 75.86-8.1 7.9-8.24 23.39 0 31.27 15.8 15.09 31 30.81 46.46 46.26q15.7 15.7 31.41 31.39c6.75 6.71 16.44 8.24 23.78 2.83s14.63-11.44 15.63-21.69v-1.55c-.66-6.45-4.15-11.22-8.64-15.66-18.3-18.1-36.44-36.35-54.64-54.55-2.64-2.64-2.64-2.65 0-5.27 18.13-18.14 36.2-36.35 54.45-54.38 4.69-4.63 8.36-9.57 8.84-16.36v-1C120.67 11.84 112.4 4.05 100.16 0z"/></svg>