<svg xmlns="http://www.w3.org/2000/svg" data-name="Layer 39" viewBox="0 0 123.41 198.57"><path d="M23.25 0h4.65c5.43.86 9.58 3.84 13.38 7.68 25.25 25.38 50.39 50.86 76 75.86 8.1 7.9 8.24 23.39 0 31.27-15.8 15.09-31 30.81-46.46 46.26q-15.71 15.7-31.42 31.41c-6.75 6.71-16.44 8.24-23.78 2.83S.99 183.87-.01 173.62v-1.55c.66-6.45 4.15-11.22 8.64-15.66 18.3-18.1 36.44-36.35 54.64-54.55 2.64-2.64 2.64-2.65 0-5.27-18.12-18.17-36.19-36.37-54.43-54.4C4.15 37.56.48 32.62 0 25.83v-1C2.74 11.84 11 4.05 23.25 0z" data-name="8vsA8e.tif"/></svg>