<svg width="100%" height="100%" viewBox="0 0 200 200" version="1.1" xmlns="http://www.w3.org/2000/svg" xmlns:xlink="http://www.w3.org/1999/xlink" xml:space="preserve" style="fill-rule:evenodd;clip-rule:evenodd;stroke-linejoin:round;stroke-miterlimit:1.41421;"><g id="Layer4"><path d="M194.32,105.393c-1.475,-16.444 -9.215,-32.26 -22.193,-43.765c-7.585,-6.722 -16.372,-11.974 -25.8,-15.796c-1.222,1.783 -2.619,3.469 -4.229,5.017c-2.114,2.038 -4.481,3.783 -7.061,5.174c2.735,0.863 5.354,1.862 7.876,2.999c2.56,1.156 3.55,4.194 2.134,6.565c-1.242,2.098 -3.977,2.921 -6.247,1.882c-17.187,-7.82 -36.373,-6.35 -44.792,-5.135c-2.483,0.353 -4.849,-1.176 -5.431,-3.508l0,-0.02c-0.66,-2.646 1.183,-5.291 3.976,-5.703c1.533,-0.235 3.376,-0.451 5.451,-0.647c-0.62,-0.529 -1.222,-1.058 -1.804,-1.607c-2.968,-2.861 -5.315,-6.213 -6.964,-9.956c-0.174,-0.392 -0.349,-0.804 -0.485,-1.196c-2.56,0.412 -5.102,0.941 -7.585,1.529c-14.432,-8.094 -31.736,-8.114 -42.037,-7.134c-4.481,0.412 -7.119,5.017 -5.179,8.937l8.729,17.247c-9.699,8.134 -17.013,18.109 -21.125,29.222l-10.631,-0.039c-3.55,-0.059 -6.46,2.744 -6.46,6.193l0,23.009c0,2.332 1.339,4.449 3.473,5.527l13.792,6.918c5.762,15.346 17.731,28.517 33.483,37.591l0,20.383c0,3.998 3.375,7.271 7.546,7.271l19.34,0c2.988,0 5.704,-1.725 6.906,-4.371l4.85,-10.74c4.171,0.49 8.419,0.745 12.765,0.745c6.847,0 13.501,-0.627 19.903,-1.803l0,8.898c0,3.998 3.375,7.271 7.546,7.271l19.244,0c2.774,0 5.334,-1.47 6.653,-3.842c10.243,-18.56 21.378,-37.198 29.603,-56.64c4.151,-9.839 5.664,-20.285 4.753,-30.476Zm-137.887,-5.116c-5.354,0 -9.68,-4.174 -9.68,-9.348c0,-5.174 4.326,-9.349 9.68,-9.349c5.354,0 9.699,4.175 9.699,9.349c0,5.174 -4.326,9.348 -9.699,9.348Zm53.172,-48.272c2.949,1.118 6.188,1.745 9.564,1.745c1.648,0 3.278,-0.137 4.83,-0.431c6.595,-1.196 12.299,-4.783 16.101,-9.78c3.162,-4.155 5.044,-9.29 5.044,-14.856c0.019,-13.857 -11.64,-25.067 -25.975,-25.067c-14.356,0 -25.995,11.21 -25.995,25.067c0,3.586 0.776,6.997 2.192,10.093c2.735,6.037 7.896,10.799 14.239,13.229Z" style="fill-rule:nonzero;"/></g></svg>