<svg xmlns="http://www.w3.org/2000/svg" data-name="Layer 87" viewBox="0 0 193.67 141.33"><path d="M193.67 93.87v9.59c-.17.75-.38 1.5-.5 2.26a41 41 0 0 1-8.62 19.79c-10.7 13-24.55 17.94-41.05 15s-29.9-17-32.83-33.83c-.8-4.61-.57-9.24-.67-13.88s-3.12-10.76-8.75-11.43a35.76 35.76 0 0 0-6.47-.33c-3.83.24-7.23 1.3-9.15 5a15.31 15.31 0 0 0-2 7.23 72.18 72.18 0 0 1-.42 12.19c-3 18.34-16.79 32.62-35 35.39a41.75 41.75 0 0 1-45.56-26.93A98.65 98.65 0 0 1 0 103.45v-9.59c.18-.75.38-1.5.52-2.25A36 36 0 0 1 6.1 77.35c1.14-1.63 6-9.38 14.76-13.35a61.57 61.57 0 0 1 14.17-4.49c3.12-.61 7.38-.19 9.66-.19a56.9 56.9 0 0 0-12.5-2c-5.67-.17-13.36 2.65-13.36 2.65s10.95-16.7 17.29-26.14c4.36-6.49 9.94-10.8 17.61-12.21a30.75 30.75 0 0 1 16.46 1.19c7.57 2.83 14.11 6.78 15.67 15.7.06.34.15.76.57.84s.62-.29.84-.57c.82-1.06 1.63-2.12 2.46-3.18 4.12-5.22 10.21-5.32 14.48-.25.7.84 1.23 1.78 1.84 2.66.36.52.59 1.45 1.34 1.31s.65-1.07.79-1.7a13.94 13.94 0 0 1 1.18-4.3 18.42 18.42 0 0 1 5.18-5.87c9.19-6.63 19.21-8 29.91-4.47a20.54 20.54 0 0 1 10.14 7.07c4.71 6.32 9.08 12.89 13.58 19.36 2.91 4.19 6.71 9.58 6.71 9.58s-7.89-2.33-14.06-2.49c-7.1-.19-12.58 1.84-11.89 2.84.35.5 3.23-.29 7.6-.07 6.28.32 12.69 3 16.58 4.69 3.58 1.56 11.46 9.18 12 10 2.48 3.6 5.2 7 6.48 11.35.91 2.81 1.34 5.72 2.08 8.56zM73.3 98.7a30.59 30.59 0 1 0-30.62 30.53A30.6 30.6 0 0 0 73.3 98.7zm108.32-.83a29.4 29.4 0 1 0-29.54 29.36 29.45 29.45 0 0 0 29.54-29.36zm-84.8-30.3a10.87 10.87 0 0 0 7.23-2.45c2.12-1.83 2.12-4.12 0-5.92a11.29 11.29 0 0 0-14.75-.06c-2.25 1.82-2.21 4.33.07 6.13a11.64 11.64 0 0 0 7.45 2.29z"/><path d="M145 17.61c-12.32-3.13-23.79-1.6-34.09 6.15-.16-.29-.26-.4-.24-.47 1-3.51.13-6.9-.41-10.36-.68-4.35 1.63-7.57 5-10a14 14 0 0 1 12.9-2.26 8.51 8.51 0 0 1 6.2 8.3 2 2 0 0 0 1.6 2.22 20.52 20.52 0 0 1 8 4.79 2.63 2.63 0 0 1 1.04 1.63zm-96.27-.1c1.13-2.23 3.1-3.43 5.11-4.54a18.12 18.12 0 0 1 4.22-1.89 1.45 1.45 0 0 0 1.24-1.67c-.31-4.59 3.08-8.21 7.74-9.13 6.74-1.33 14 2.8 16 9.18a6.44 6.44 0 0 1 .06 4 15.29 15.29 0 0 0-.19 9.27c.1.32.32.75-.09 1s-.68-.16-.95-.37a35.54 35.54 0 0 0-11.42-5.68 37.65 37.65 0 0 0-12.21-1.44 39.8 39.8 0 0 0-9.51 1.27z"/></svg>