<svg xmlns="http://www.w3.org/2000/svg" data-name="Layer 85" viewBox="0 0 169.54 194"><path d="M142.82 0H38.54C19.34 0 0 10.67 0 28v154c0 6.6 6 12 13.23 12 0 0 9.87.17 12.18-2 14.33-13.5 35.28-42.5 46.58-42.5s37.41 33.07 53.55 43.5c1.49 1 7.24 1 7.24 1 7.28 0 13.23-5.4 13.23-12V39h14.71c7.28 0 8.82.6 8.82-6v-5c0-16.25-12.52-28-26.72-28zm-15.44 151.28c0 4.8-.37 18.72-.37 18.72s-10.36-10-11.47-10.73c-11.94-7.58-34.58-31.62-42.94-31.62s-28.27 19.08-38.88 28.89C32.02 158.12 19.34 172 19.34 172v-20.72s-2.67-111.9 0-122.55C21.91 18.46 33.3 19 41.26 19h76.34c5.38 0 9.79 3.92 9.79 8.72z"/></svg>