<svg width="100%" height="100%" viewBox="0 0 200 200" version="1.1" xmlns="http://www.w3.org/2000/svg" xmlns:xlink="http://www.w3.org/1999/xlink" xml:space="preserve" style="fill-rule:evenodd;clip-rule:evenodd;stroke-linejoin:round;stroke-miterlimit:1.41421;"><clipPath id="_clip1"><rect id="bank" x="1.792" y="1.793" width="197.213" height="197.213"/></clipPath><g clip-path="url(#_clip1)"><path d="M190.535,170.622l-5.129,0l0,-4.99c0,-3.356 -2.72,-6.076 -6.075,-6.076l-1.569,0c0.007,-0.147 0.023,-0.292 0.023,-0.44c0,-4.346 -2.719,-8.068 -6.567,-9.555l0,-79.997c3.837,-1.481 6.567,-5.208 6.567,-9.561c0,-0.301 -0.02,-0.597 -0.046,-0.891l6.893,0c3.605,0 6.526,-2.921 6.526,-6.527l0,-17.838c0,-2.852 -1.851,-5.373 -4.572,-6.228l-84.234,-26.427c-1.27,-0.398 -2.636,-0.398 -3.906,0l-84.235,26.427c-2.721,0.855 -4.572,3.376 -4.572,6.227l0,17.839c0,3.606 2.921,6.526 6.526,6.526l6.894,0c-0.027,0.295 -0.047,0.591 -0.047,0.891c0,4.345 2.719,8.066 6.567,9.552l0,79.997c-3.837,1.482 -6.567,5.21 -6.567,9.564c0,0.148 0.016,0.293 0.024,0.441l-1.57,0c-3.355,0 -6.075,2.719 -6.075,6.075l0,4.99l-5.129,0c-3.357,0 -6.077,2.722 -6.077,6.077l0,16.232c0,3.354 2.72,6.076 6.077,6.076l180.272,0c3.357,0 6.077,-2.722 6.077,-6.076l0,-16.232c0.001,-3.357 -2.719,-6.076 -6.076,-6.076Zm-42.906,-101.067l0,79.996c-3.839,1.483 -6.566,5.21 -6.566,9.565c0,0.148 0.014,0.293 0.023,0.44l-22.35,0c0.008,-0.147 0.023,-0.292 0.023,-0.44c0,-4.346 -2.717,-8.068 -6.564,-9.555l0,-79.997c3.836,-1.481 6.564,-5.208 6.564,-9.561c0,-0.301 -0.019,-0.597 -0.045,-0.891l22.395,0c-0.027,0.294 -0.046,0.59 -0.046,0.891c0,4.345 2.718,8.066 6.566,9.552Zm-65.546,-10.443c-0.025,0.294 -0.045,0.59 -0.045,0.891c0,4.345 2.718,8.066 6.566,9.552l0,79.996c-3.837,1.483 -6.566,5.21 -6.566,9.565c0,0.148 0.016,0.293 0.024,0.44l-22.349,0c0.007,-0.147 0.023,-0.292 0.023,-0.44c0,-4.346 -2.718,-8.068 -6.566,-9.555l0,-79.997c3.837,-1.481 6.566,-5.208 6.566,-9.561c0,-0.301 -0.02,-0.597 -0.046,-0.891l22.393,0Z" style="fill-rule:nonzero;"/></g></svg>