<svg width="100%" height="100%" viewBox="0 0 200 200" version="1.1" xmlns="http://www.w3.org/2000/svg" xmlns:xlink="http://www.w3.org/1999/xlink" xml:space="preserve" style="fill-rule:evenodd;clip-rule:evenodd;stroke-linejoin:round;stroke-miterlimit:1.41421;"><g id="Layer7"><path d="M198.155,93.464l-2.242,-6.706c-1.252,-3.696 -5.211,-6.686 -8.867,-6.686l-8.181,0c-6.14,-17.512 -13.654,-38.64 -15.835,-43.588c-3.394,-7.716 -14.261,-11.17 -20.219,-12.867c0,0 -9.978,-3.858 -43.225,-3.858c-33.247,0 -43.225,3.858 -43.225,3.858c-6.989,2.384 -16.725,5.737 -20.563,13.21c-1.818,3.515 -9.453,25.248 -15.674,43.245l-8.039,0c-3.636,0 -7.615,2.99 -8.867,6.686l-2.262,6.706c-1.232,3.717 0.707,6.706 4.342,6.706l7.938,0c-1.03,3.03 -1.636,4.848 -1.636,4.848c-0.646,1.09 -1.09,6.1 -1.09,7.433l0,61.04c0,3.918 3.11,7.11 6.988,7.11l25.592,0c3.858,0 6.989,-3.192 6.989,-7.11l0,-12.988l98.973,0l0,12.988c0,3.918 3.131,7.11 6.989,7.11l25.612,0c3.858,0 6.968,-3.192 6.968,-7.11l0,-61.04c0,-1.333 -0.444,-6.363 -1.091,-7.433c0,0 -0.626,-1.818 -1.676,-4.848l7.958,0c3.676,0 5.595,-2.989 4.343,-6.706Zm-148.238,37.388l-10.584,0c-9.473,0 -18.946,-1.313 -18.946,-7.413l0,-7.413c0,-7.15 4.1,-7.413 8.483,-7.413c4.323,0 12.847,3.696 18.462,6.262c6.1,2.787 12.927,5.11 12.927,9.715c0.02,4.302 -2.343,6.262 -10.342,6.262Zm-14.745,-48.093c5.211,-21.976 10.867,-34.378 12.119,-37.853c1.01,-2.504 1.98,-10.281 52.274,-10.281c50.295,0 51.507,8.868 51.608,8.969c1.555,4.706 7.696,18.885 12.624,39.144c0,0 -21.229,7.353 -64.232,7.353c-43.023,0.02 -64.393,-7.332 -64.393,-7.332Zm103.66,41.831c0,-4.625 6.867,-6.928 12.947,-9.715c5.615,-2.546 14.139,-6.262 18.441,-6.262c4.404,0 8.504,0.263 8.504,7.413l0,7.413c0,6.12 -9.473,7.413 -18.946,7.413l-10.605,0c-7.958,0 -10.341,-1.96 -10.341,-6.262Z" style="fill-rule:nonzero;"/></g></svg>