<svg xmlns="http://www.w3.org/2000/svg" data-name="Layer 64" viewBox="0 0 194.33 180.6"><path d="M172.69 20c.66 0 1.2 0 1.64.07v100.4H172.68c-13.56-.18-26.89-.2-37-.2H86.24a30.81 30.81 0 0 0-21.68 8.61q-5.82 5.45-11.73 10.92a23 23 0 0 0-6.34-12.74 23.38 23.38 0 0 0-16.81-6.76h-9.64V20.13h80.11c29.07 0 51.42-.05 72.45-.17h.13m0-20h-.24q-36.17.2-72.33.17H20.43c-11 0-16.35 3.65-20.43 14v112.3c4.08 10.32 9.39 13.95 20.45 14h5.36c1.12 0 2.25 0 3.37-.08h.47c2.63 0 3.52 1.31 3.49 4.06-.1 10.12-.05 20.24 0 30.36 0 2.1-.46 4.54 2.14 5.56a3.7 3.7 0 0 0 1.36.28c1.72 0 3-1.38 4.24-2.55 12.45-11.51 24.95-22.94 37.36-34.51a10.85 10.85 0 0 1 8-3.21H135.65c12.25 0 24.49 0 36.74.2h.55c10.23 0 17.34-3.77 21.36-13.33V13.32C190.24 3.68 183.04 0 172.66 0z"/></svg>