<svg xmlns="http://www.w3.org/2000/svg" data-name="Layer 38" viewBox="0 0 196.89 147.97"><path d="M0 70.68c1.91-3.47 5.27-5.54 8-8.16 3.52-3.35 7.22-6.52 10.83-9.77s6.88-3.17 10.24.26q19.18 19.51 38.33 39c3.81 3.88 6.8 3.88 10.68 0q34.95-34.83 69.89-69.66c6.66-6.64 13.38-13.22 20-19.88a9.63 9.63 0 0 1 4.44-2.51h1.54a10.29 10.29 0 0 1 4.45 2.87c5.25 5.34 10.55 10.62 15.83 15.93 3.46 3.48 3.49 7 .06 10.37L77.95 145.43c-3.37 3.37-6.93 3.4-10.24.11C45.28 123.28 23.56 100.3 1.8 77.38A22.65 22.65 0 0 1 0 74.91z"/></svg>