<svg width="100%" height="100%" viewBox="0 0 200 200" version="1.1" xmlns="http://www.w3.org/2000/svg" xmlns:xlink="http://www.w3.org/1999/xlink" xml:space="preserve"><g id="Layer2"><path d="M162.979,49.115l-35.012,35.012l0,98.803c0,3.677 -1.319,6.834 -3.957,9.472c-2.638,2.638 -5.796,3.957 -9.473,3.957c-3.677,0 -6.834,-1.319 -9.472,-3.957c-2.638,-2.638 -3.957,-5.795 -3.957,-9.472l0,-46.044l-7.674,0l0,46.044c0,3.677 -1.319,6.834 -3.957,9.472c-2.638,2.638 -5.795,3.957 -9.473,3.957c-3.677,0 -6.834,-1.319 -9.472,-3.957c-2.638,-2.638 -3.957,-5.795 -3.957,-9.472l0,-98.803l-35.012,-35.012c-2.239,-2.238 -3.358,-4.956 -3.358,-8.154c0,-3.197 1.119,-5.915 3.358,-8.153c2.238,-2.238 4.956,-3.357 8.153,-3.357c3.198,0 5.916,1.119 8.154,3.357l27.338,27.338l44.125,0l27.339,-27.338c2.238,-2.238 4.956,-3.357 8.153,-3.357c3.198,0 5.916,1.119 8.154,3.357c2.238,2.238 3.357,4.956 3.357,8.153c0,3.198 -1.119,5.916 -3.357,8.154Zm-38.849,-19.664c0,7.434 -2.618,13.769 -7.854,19.005c-5.236,5.235 -11.571,7.853 -19.005,7.853c-7.434,0 -13.769,-2.618 -19.005,-7.853c-5.236,-5.236 -7.854,-11.571 -7.854,-19.005c0,-7.435 2.618,-13.77 7.854,-19.006c5.236,-5.235 11.571,-7.853 19.005,-7.853c7.434,0 13.769,2.618 19.005,7.853c5.236,5.236 7.854,11.571 7.854,19.006Z"/></g></svg>