<svg xmlns="http://www.w3.org/2000/svg" id="813fae63-b7da-4605-8cc6-d29788ab05f9" data-name="Layer 70" viewBox="0 0 166.27 166.27"><defs><style>.0c386ab7-d9dc-414a-9885-42400d221628{fill:#231f20;}</style></defs><path d="M109.29 83.13l55.53-55.53a5 5 0 0 0 0-7.07L145.74 1.46a5 5 0 0 0-7.07 0L83.14 56.99 27.61 1.46a5 5 0 0 0-7.07 0L1.46 20.53a5 5 0 0 0 0 7.07l55.53 55.53-55.53 55.54a5 5 0 0 0 0 7.07l19.08 19.07a5 5 0 0 0 7.07 0l55.53-55.53 55.53 55.53a5 5 0 0 0 7.07 0l19.07-19.07a5 5 0 0 0 0-7.07z" class="0c386ab7-d9dc-414a-9885-42400d221628"/></svg>