<?xml version="1.0" encoding="UTF-8" standalone="no"?><!DOCTYPE svg PUBLIC "-//W3C//DTD SVG 1.1//EN" "http://www.w3.org/Graphics/SVG/1.1/DTD/svg11.dtd"><svg width="100%" height="100%" viewBox="0 0 200 200" version="1.1" xmlns="http://www.w3.org/2000/svg" xmlns:xlink="http://www.w3.org/1999/xlink" xml:space="preserve" style="fill-rule:evenodd;clip-rule:evenodd;stroke-linejoin:round;stroke-miterlimit:1.41421;"><g id="Layer3"><clipPath id="_clip1"><rect id="ad.-t.-shirt.-icon" x="1.526" y="2.326" width="196.293" height="196.293"/></clipPath><g clip-path="url(#_clip1)"><g><path d="M81.582,100.776l4.435,0l-2.231,-5.919l-2.204,5.919Z" style="fill-rule:nonzero;"/><path d="M113.21,90.741l-6.942,0l0,19.294l6.942,0c5.49,0 9.956,-4.319 9.956,-9.629c0.001,-5.329 -4.466,-9.665 -9.956,-9.665Z" style="fill-rule:nonzero;"/><path d="M197.697,107.065l-19.217,-59.669c-0.225,-0.699 -0.742,-1.266 -1.416,-1.555l-45.198,-19.382c-0.316,-0.135 -0.656,-0.205 -1.001,-0.205l-12.455,0c-0.689,0 -1.348,0.279 -1.827,0.775c-0.478,0.495 -0.735,1.164 -0.711,1.852l0.008,0.202c0.008,0.214 0.017,0.427 0.017,0.643c0,9.85 -6.483,18.877 -16.225,22.732c-9.743,-3.855 -16.225,-12.882 -16.225,-22.732c0,-0.21 0.009,-0.418 0.016,-0.626l0.008,-0.223c0.024,-0.687 -0.234,-1.355 -0.712,-1.85c-0.478,-0.495 -1.136,-0.773 -1.825,-0.773l-12.456,0c-0.344,0 -0.684,0.07 -1,0.205l-45.198,19.382c-0.674,0.29 -1.191,0.857 -1.415,1.555l-19.217,59.669c-0.249,0.772 -0.114,1.617 0.365,2.273c0.477,0.656 1.24,1.044 2.052,1.044l35.184,0c1.075,0 2.033,-0.677 2.393,-1.69l7.665,-21.617l3.157,-0.006l0,85.084c0,1.402 1.136,2.539 2.539,2.539l89.339,0c1.402,0 2.539,-1.137 2.539,-2.539l0,-85.084l3.157,0.006l7.664,21.617c0.36,1.013 1.319,1.69 2.394,1.69l35.184,0c0.812,0 1.575,-0.388 2.052,-1.044c0.477,-0.656 0.613,-1.501 0.365,-2.273Zm-101.879,9.232c-0.003,0 -0.007,0 -0.01,0l-2.713,0c-0.74,0 -1.403,-0.458 -1.663,-1.15l-3.12,-8.279l-8.998,0l-3.078,8.272c-0.259,0.696 -0.923,1.157 -1.665,1.157l-2.709,0c-0.582,0 -1.128,-0.285 -1.46,-0.763c-0.332,-0.478 -0.409,-1.089 -0.206,-1.634l10.41,-27.968c0.259,-0.695 0.921,-1.156 1.662,-1.158l2.995,-0.006c0.001,0 0.002,0 0.004,0c0.739,0 1.402,0.458 1.663,1.151l10.476,27.802c0.121,0.24 0.189,0.511 0.189,0.799c0,0.982 -0.795,1.777 -1.777,1.777Zm17.392,-0.169l-11.258,0c-0.981,0 -1.777,-0.796 -1.777,-1.778l0,-27.925c0,-0.981 0.796,-1.777 1.777,-1.777l11.258,0c8.85,0 16.049,7.069 16.049,15.758c0.001,8.669 -7.199,15.722 -16.049,15.722Z" style="fill-rule:nonzero;"/></g></g><rect x="57.918" y="73.009" width="84.82" height="72.703"/></g></svg>