<svg width="100%" height="100%" viewBox="0 0 200 200" version="1.1" xmlns="http://www.w3.org/2000/svg" xmlns:xlink="http://www.w3.org/1999/xlink" xml:space="preserve" style="fill-rule:evenodd;clip-rule:evenodd;stroke-linejoin:round;stroke-miterlimit:1.41421;"><g id="Layer9"><g><path d="M127.77,7.34c-5.165,1.586 -14.396,7.361 -15.616,9.759c-0.854,1.667 -0.772,2.278 0.814,5.123c1.912,3.455 1.87,4.351 -0.651,7.725c-1.098,1.546 -2.968,4.717 -4.148,7.035c-2.602,5.204 -3.295,5.733 -7.646,5.733c-4.391,0 -4.962,0.733 -5.694,7.646c-0.529,4.839 -0.039,12.403 0.935,14.557c0.733,1.546 2.358,2.197 5.489,2.197c1.831,0 3.09,0.203 3.661,0.611c0.488,0.366 1.707,2.399 2.766,4.554c1.016,2.154 2.847,5.449 4.106,7.319c2.644,3.903 2.724,4.717 0.611,8.133c-2.278,3.74 -1.504,5.489 4.229,9.434c3.295,2.278 9.841,5.571 11.955,5.979c2.073,0.406 3.416,-0.448 4.96,-3.171c0.772,-1.341 1.831,-2.644 2.4,-2.929c1.34,-0.651 17.77,-0.569 18.989,0.082c0.488,0.284 1.505,1.667 2.318,3.131c1.789,3.171 2.927,3.661 6.14,2.724c5.002,-1.423 14.599,-7.401 15.858,-9.84c0.854,-1.668 0.772,-2.278 -0.813,-5.123c-1.912,-3.416 -1.831,-4.27 0.65,-7.686c1.138,-1.585 3.01,-4.757 4.148,-7.075c2.563,-5.204 3.253,-5.733 7.644,-5.733c4.393,0 4.962,-0.732 5.694,-7.646c0.529,-4.838 0.042,-12.403 -0.935,-14.557c-0.732,-1.546 -2.358,-2.197 -5.489,-2.197c-1.789,0 -3.09,-0.203 -3.619,-0.61c-0.488,-0.325 -1.87,-2.645 -3.132,-5.165c-1.219,-2.521 -3.01,-5.613 -3.945,-6.832c-2.562,-3.416 -2.602,-4.514 -0.406,-8.092c1.586,-2.562 1.586,-4.066 -0.039,-5.936c-2.603,-2.929 -12.851,-8.866 -16.388,-9.435c-1.87,-0.284 -2.887,0.367 -4.596,3.05c-2.318,3.741 -1.788,3.58 -11.873,3.498c-5.613,-0.04 -9.15,-0.245 -9.679,-0.529c-0.488,-0.245 -1.546,-1.628 -2.358,-3.09c-0.813,-1.464 -1.504,-2.644 -1.546,-2.644c-0.041,0 -0.65,-0.163 -1.343,-0.366c-0.849,-0.245 -1.866,-0.121 -3.451,0.366Zm23.422,25.008c9.231,2.399 15.695,9.271 17.526,18.666c0.772,3.985 0.529,7.725 -0.854,11.833c-2.154,6.385 -7.93,12.079 -14.68,14.476c-3.05,1.098 -8.621,1.464 -12.037,0.772c-12.524,-2.439 -20.941,-14.923 -18.461,-27.244c1.871,-9.232 8.663,-16.388 17.526,-18.543c2.887,-0.692 8.173,-0.692 10.98,0.04Z" style="fill-rule:nonzero;"/><path d="M55.387,67.523c-3.782,0.447 -7.482,1.464 -10.369,2.805c-3.416,1.586 -3.782,2.562 -2.887,7.361c1.138,5.897 1.138,5.937 -3.213,8.458c-1.586,0.935 -3.782,2.399 -4.88,3.252c-2.439,1.912 -3.538,2.521 -4.514,2.521c-0.406,0 -2.278,-1.017 -4.149,-2.236c-2.847,-1.87 -3.7,-2.236 -5.204,-2.236c-1.628,0 -1.992,0.203 -3.945,2.115c-3.701,3.74 -7.686,10.409 -8.255,13.906c-0.324,1.994 0.45,3.05 4.393,5.776c1.789,1.261 3.456,2.684 3.661,3.171c0.284,0.651 0.121,1.912 -0.569,4.717c-0.569,2.115 -1.138,5.123 -1.301,6.669c-0.406,3.822 -1.017,4.393 -5.856,5.328c-6.183,1.178 -7.036,2.521 -6.223,9.556c0.814,6.953 2.969,12.524 5.165,13.622c1.301,0.569 1.667,0.569 5.368,-0.122c5.165,-0.976 5.734,-0.813 7.645,2.603c0.814,1.464 2.4,3.822 3.498,5.286c2.236,2.968 2.805,3.945 2.805,4.759c0,0.324 -1.016,2.115 -2.236,4.026c-2.644,4.107 -2.968,5.287 -1.912,7.238c1.057,1.952 6.669,6.385 10.409,8.255c6.385,3.213 7.32,3.01 10.817,-2.197c1.667,-2.439 2.766,-3.7 3.456,-3.863c0.569,-0.124 2.521,0.121 4.391,0.611c1.83,0.447 4.717,1.016 6.384,1.261c1.667,0.243 3.456,0.69 3.945,1.017c0.977,0.65 0.977,0.69 1.952,5.407c1.138,5.571 1.707,5.978 8.255,5.694c3.945,-0.203 5.449,-0.448 8.823,-1.586c6.506,-2.154 7.035,-3.131 5.652,-10.126c-0.813,-4.027 -0.611,-4.433 3.376,-6.79c1.505,-0.936 4.025,-2.603 5.571,-3.741c1.586,-1.18 3.213,-2.073 3.782,-2.073c0.569,0 2.563,1.017 4.391,2.236c4.514,2.969 5.897,3.05 8.742,0.366c3.985,-3.74 8.499,-11.549 8.539,-14.802c0,-1.993 -0.651,-2.805 -4.473,-5.286c-2.236,-1.464 -3.334,-2.481 -3.537,-3.171c-0.121,-0.569 0.163,-2.684 0.651,-4.757c0.487,-2.075 1.016,-4.799 1.138,-6.141c0.447,-4.391 0.732,-4.676 6.832,-5.856c5.083,-1.016 5.733,-1.993 5.367,-8.254c-0.405,-6.995 -2.765,-13.541 -5.328,-14.762c-1.219,-0.611 -1.625,-0.611 -4.472,0c-4.148,0.853 -6.06,0.853 -6.832,-0.082c-0.324,-0.366 -1.422,-2.075 -2.481,-3.742c-1.017,-1.667 -2.602,-4.025 -3.497,-5.246c-2.233,-2.971 -2.151,-3.783 0.573,-7.891c2.886,-4.311 2.968,-5.612 0.529,-8.254c-3.293,-3.579 -9.313,-7.401 -13.583,-8.702c-2.52,-0.772 -3.985,0.121 -6.424,3.903c-2.968,4.596 -2.968,4.554 -8.702,3.295c-2.602,-0.611 -5.694,-1.18 -6.872,-1.302c-2.847,-0.366 -3.619,-1.301 -4.391,-5.286c-0.853,-4.188 -1.301,-5.328 -2.439,-6.058c-1.223,-0.815 -4.231,-1.058 -7.566,-0.652Zm17.934,36.802c9.271,3.416 15.697,10.817 17.649,20.251c1.261,5.978 0.529,11.549 -2.278,17.364c-1.341,2.806 -2.318,4.107 -5.165,6.954c-5.937,5.897 -12.363,8.417 -20.536,8.011c-7.156,-0.366 -12.402,-2.765 -17.77,-8.051c-3.374,-3.374 -5.855,-7.725 -7.075,-12.403c-0.853,-3.213 -0.853,-9.84 -0.04,-13.013c2.521,-9.516 10.085,-17.201 19.438,-19.722c4.472,-1.222 11.587,-0.937 15.777,0.609Z" style="fill-rule:nonzero;"/></g></g></svg>