<svg id="19be3045-6f36-4eb5-9764-b7d8ea791e6c" data-name="Layer 11" xmlns="http://www.w3.org/2000/svg" viewBox="0 0 161 196"><title>doc</title><path d="M179.5,55.67H145.19c-7.27,0-16.22-9.4-16.22-16V2Z" transform="translate(-19.5 -2)"/><path d="M144.08,61.54c-10.33-.54-21.8-10.79-21.8-22.13L122.11,2H32.72C25.45,2,19.5,7.4,19.5,14V186c0,6.6,5.95,12,13.22,12H167.28c7.27,0,13.22-5.4,13.22-12V61.83ZM40,44.33h61V62.67H40Zm117.86,35V97.67H40V79.33Zm0,87.33H40V148.33H157.86Zm0-35H40V113.33H157.86Z" transform="translate(-19.5 -2)"/></svg>