<svg xmlns="http://www.w3.org/2000/svg" data-name="Layer 59" viewBox="0 0 193.57 193.57"><path d="M69.2.04q.06 13.21.12 26.43c0 1.05-.49 1.49-1.48 1.5H30.66c-2.59 0-2.64 0-2.64 2.64v35.88c0 2.8 0 2.81-2.84 2.8L.04 69.16V1.6C.04.24.32-.04 1.68-.04Q35.42.08 69.2.04zM193.54 69.16q-13.21.06-26.43.12c-1.05 0-1.49-.49-1.5-1.48v-1.89V30.6c0-2.59 0-2.64-2.64-2.64h-35.91c-2.8 0-2.81 0-2.8-2.84q0-12.55.12-25.11h67.65c1.29 0 1.55.25 1.55 1.55q-.08 33.81-.04 67.6zM.04 124.38q13.21-.06 26.43-.12c1.05 0 1.49.49 1.5 1.48v37.2c0 2.59 0 2.64 2.64 2.64h35.91c2.8 0 2.81 0 2.8 2.84q0 12.55-.12 25.11H1.55c-1.29 0-1.55-.25-1.55-1.55q.08-33.82.04-67.6zM124.38 193.54q-.06-13.21-.12-26.43c0-1.05.49-1.49 1.48-1.5h37.2c2.59 0 2.64 0 2.64-2.64v-35.88c0-2.8 0-2.81 2.84-2.8l25.11.12v67.65c0 1.29-.25 1.55-1.55 1.55q-33.78-.11-67.6-.07z"/></svg>