<svg id="25c9d346-0944-4fc2-8210-65bdee452d20" data-name="Layer 34" xmlns="http://www.w3.org/2000/svg" viewBox="0 0 184.29 189.68"><title>function</title><path d="M56.59,78.58V43.84c0-9.62,5.9-15.3,13.11-15.3H82.81V3.63H59.65c-21.2,0-40.43,15.08-40.43,40.43V74.21c0,8.09-3.71,14-11.36,14v20.54c7.65,0,11.36,5.9,11.36,14V153.1c0,25.35,19.23,40.21,40.43,40.21H82.81V168.39H69.7c-7.21,0-13.11-6.12-13.11-15.51V118.35c0-9.18-2.84-16.83-10.05-19.89C53.75,95.41,56.59,87.76,56.59,78.58Z" transform="translate(-7.86 -3.63)"/><path d="M143.41,78.58V43.84c0-9.62-5.9-15.3-13.11-15.3H117.19V3.63h23.17c21.2,0,40.43,15.08,40.43,40.43V74.21c0,8.09,3.71,14,11.36,14v20.54c-7.65,0-11.36,5.9-11.36,14V153.1c0,25.35-19.23,40.21-40.43,40.21H117.19V168.39H130.3c7.21,0,13.11-6.12,13.11-15.51V118.35c0-9.18,2.84-16.83,10.05-19.89C146.25,95.41,143.41,87.76,143.41,78.58Z" transform="translate(-7.86 -3.63)"/></svg>