<svg xmlns="http://www.w3.org/2000/svg" data-name="Layer 63" viewBox="0 0 194.03 177.22"><path d="M53.95-.04v20a47.81 47.81 0 0 1 7.1.5 31.24 31.24 0 0 1 17.79 9.77c6.5 6.79 13.51 8.22 18.25 8.22s11.74-1.43 18.25-8.22a31.24 31.24 0 0 1 17.79-9.73 47.25 47.25 0 0 1 7-.49 70.25 70.25 0 0 1 8.57.57c9.24 1.15 16.16 5.55 20.57 13.08 5.93 10.16 6.37 24.37 1.14 37.09-3.14 7.64-8 15.18-15.68 24.45-11.55 13.9-25 26.06-39.31 38.93-6.15 5.54-12.42 11.2-18.61 17.08l-7.16-6.61c-8.26-7.62-16.8-15.49-25-23.3-2.48-2.35-5-4.7-7.47-7-17.25-16-33.54-31.1-36.41-50.44a66.64 66.64 0 0 1 0-19.58c2-12.93 11.49-22 24.83-23.74a66.44 66.44 0 0 1 8.4-.57V-.04m0 0a86.2 86.2 0 0 0-10.94.73C20.85 3.57 4.3 19.34.95 41.28a86.23 86.23 0 0 0 0 25.54c4.41 29.69 29 49.14 49.9 69 13.59 12.88 27.48 25.47 41.19 38.25 1.71 1.6 3.31 3.15 5.17 3.15a5.15 5.15 0 0 0 3.6-1.9c22.53-23 48.61-42.43 69.31-67.34 7.53-9.06 14.29-18.66 18.8-29.63 13.55-33 0-72.94-37.75-77.62a89.88 89.88 0 0 0-11-.72 67 67 0 0 0-10 .72 51.09 51.09 0 0 0-29.25 15.67 4.55 4.55 0 0 1-7.6 0A51.09 51.09 0 0 0 64.04.73a67.59 67.59 0 0 0-10.09-.77z" data-name="i9ZrUR.tif"/></svg>