<svg id="23bc8037-a77b-409c-a0b1-562734e6bdbf" data-name="Layer 5" xmlns="http://www.w3.org/2000/svg" viewBox="0 0 161 196"><title>pdf</title><path d="M179.5,55.67H145.19c-7.27,0-16.22-9.4-16.22-16V2Z" transform="translate(-19.5 -2)"/><path d="M144.08,61.54c-10.33-.54-21.8-10.79-21.8-22.13L122.11,2H32.72C25.45,2,19.5,7.4,19.5,14V186c0,6.6,5.95,12,13.22,12H167.28c7.27,0,13.22-5.4,13.22-12V61.83Zm-70.8,44.38a12.76,12.76,0,0,1-4.13,4.48,14.73,14.73,0,0,1-5.1,2.15,59.91,59.91,0,0,1-10.19.65H47.45v17.15H37.62V84.9H53.39q9,0,11.68.68a12.83,12.83,0,0,1,7,4.45,13.47,13.47,0,0,1,2.82,8.85A14,14,0,0,1,73.27,105.92Zm49,11.81a19.86,19.86,0,0,1-5.21,8,17.61,17.61,0,0,1-6.9,3.63,31.72,31.72,0,0,1-8.7,1H82.93V84.9h18a37.47,37.47,0,0,1,9.26.87A16.51,16.51,0,0,1,117.49,90a19.63,19.63,0,0,1,4.65,7.36,31.52,31.52,0,0,1,1.59,10.74A28.07,28.07,0,0,1,122.23,117.74Zm43.25-25.14H142v10.76h20.31V111H142v19.32h-9.83V84.9h33.36Z" transform="translate(-19.5 -2)"/><path d="M59.27,92.9a50.56,50.56,0,0,0-7.07-.31H47.45v12.9h5.38q5.81,0,7.77-.71a6.4,6.4,0,0,0,3.07-2.23A5.82,5.82,0,0,0,64.78,99a5.65,5.65,0,0,0-1.56-4.09A7,7,0,0,0,59.27,92.9Z" transform="translate(-19.5 -2)"/><path d="M109.79,95.16A9.6,9.6,0,0,0,105.24,93a47.69,47.69,0,0,0-8.07-.43H92.76V122.7h7.34a28.65,28.65,0,0,0,5.94-.43,9.31,9.31,0,0,0,4-1.89,9.48,9.48,0,0,0,2.57-4.39,27.82,27.82,0,0,0,1-8.32,25.49,25.49,0,0,0-1-8.09A10.29,10.29,0,0,0,109.79,95.16Z" transform="translate(-19.5 -2)"/></svg>