<svg id="1a61e570-8a4d-489c-9350-786ffd75b74c" data-name="Layer 21" xmlns="http://www.w3.org/2000/svg" viewBox="0 0 169.73 196.21"><title>reset</title><path d="M116.44,28.93V3.6s.24-1.88-1-2.45-3.66.92-3.66.92L63.19,42.48A9,9,0,0,0,62.12,45a9.16,9.16,0,0,0,1.11,2.55L112,88.07s2.71,1.21,3.5.78c.61-.33,1-2.62,1-2.62V59.72A54.84,54.84,0,1,1,51.2,87.6a4.28,4.28,0,0,0,.18-2.22c0-.43-.87-1.46-.87-1.46l-20-15.57S29.38,68,29,68.16c-.64.31-.75.21-1.12.82a84.86,84.86,0,1,0,88.51-40.06Z" transform="translate(-16 -1)"/></svg>