<svg id="916af7b3-c1b6-4a4e-8ba4-95f23e2f408f" data-name="Layer 19" xmlns="http://www.w3.org/2000/svg" viewBox="0 0 195.14 196.14"><title>save</title><path d="M149.48,15.72V52a69,69,0,1,1-100,.12V15.83a97.57,97.57,0,1,0,100-.11Z" transform="translate(-2 -1)"/><path d="M144.25,86.12h-18.1c0-.11,0-.21,0-.32V11.56A10.59,10.59,0,0,0,115.6,1H83.75A10.59,10.59,0,0,0,73.18,11.56V85.81c0,.11,0,.21,0,.32H53.78A9.81,9.81,0,0,0,44,95.9l48.09,43.6s5,4,7,4.08c2.17,0,7.68-4.08,7.68-4.08L154,95.9A9.81,9.81,0,0,0,144.25,86.12Z" transform="translate(-2 -1)"/></svg>