<svg id="b786c617-cf4f-47d2-8fd8-4c941202763b" data-name="Layer 18" xmlns="http://www.w3.org/2000/svg" viewBox="0 0 195.14 195.13"><title>save</title><path d="M2.88,179.22V21.54a27.62,27.62,0,0,1,4-9.31c3.65-5.06,8.67-7.94,14.64-9.35H157.13a21.31,21.31,0,0,1,7.44,3.73A168.82,168.82,0,0,1,195,37.42,15.1,15.1,0,0,1,198,46.65q0,64.64,0,129.29a22.34,22.34,0,0,1-22,22q-75.59.07-151.19,0a21.09,21.09,0,0,1-10.7-3C8,191.48,4.46,186,2.88,179.22Zm97.4,10.94h66.07c6,0,8.88-2.79,8.89-8.83q0-36,0-72c0-5.9-2.92-8.82-8.79-8.82q-66.07,0-132.15,0c-5.87,0-8.79,2.92-8.79,8.82q0,36,0,72c0,6,2.85,8.84,8.89,8.84ZM96.57,10.6H49.36c-6,0-8.7,2.65-8.7,8.7,0,16.56.1,33.12-.06,49.68-.05,5.64,3.13,8.79,8.78,8.78q47.31,0,94.61,0c5.86,0,8.59-2.79,8.6-8.68q0-24.94,0-49.88c0-5.94-2.68-8.58-8.62-8.59Z" transform="translate(-2.88 -2.88)"/><path d="M115.14,44c0-7.93,0-15.87,0-23.8,0-1.83.48-2.64,2.46-2.6,6.09.1,12.19.08,18.28,0,1.76,0,2.32.68,2.31,2.37q-.05,24.18,0,48.36c0,1.77-.73,2.34-2.38,2.32q-9.23-.06-18.47,0c-1.64,0-2.21-.66-2.2-2.29C115.17,60.26,115.14,52.14,115.14,44Z" transform="translate(-2.88 -2.88)"/></svg>