<svg id="ddda1477-3603-49f0-9e5e-d91e237789c5" data-name="Layer 19" xmlns="http://www.w3.org/2000/svg" viewBox="0 0 195.14 196.14"><title>save2</title><path d="M149.48,15.72V52a69,69,0,1,1-100,.12V15.83a97.57,97.57,0,1,0,100-.11Z" transform="translate(-2 -1)"/><path d="M150.89,97.7H130.32c0-.12,0-.24,0-.36V13a12,12,0,0,0-12-12H82.16a12,12,0,0,0-12,12V97.34c0,.12,0,.24,0,.36H48.11A11.14,11.14,0,0,0,37,108.81l54.63,49.54s5.64,4.58,7.94,4.63c2.47,0,8.73-4.63,8.73-4.63L162,108.81A11.14,11.14,0,0,0,150.89,97.7Z" transform="translate(-2 -1)"/></svg>