<svg xmlns="http://www.w3.org/2000/svg" data-name="Layer 73" viewBox="0 0 196.46 195.16"><path d="M192.38 80.89c-7-8.77-13.87-17.59-20.79-26.39L135.76 8.85a26.87 26.87 0 0 0-10.63-7.83c-2.21-1.56-5.77-1.07-8.73-.21-4.55 1.32-6.59 4.94-7.1 9.59a46.61 46.61 0 0 0-.14 5.17v34.26c-.34 2.68-1.75 4.08-4.74 4.75-5.49 1.23-11 2.68-16.33 4.41-20.34 6.56-39.25 15.92-53.78 32.74-18.37 21.28-28.32 46.71-32.7 74.71C.42 174.06.46 181.73 0 190.04a38.34 38.34 0 0 1 0 5.12c1.55-.56 15.1-18.13 28.94-30.53 11.1-9.94 22.88-15.11 25.07-16.5 15.43-8 32.22-12.35 50.19-13.54 3.47-.23 5.26.68 5.72 3.58 0 2.67 1.49 38.76 6.66 40.57 3.57 1.25 7.39 1.38 9.87-.73 4.79-2.18 8.74-6.69 10.56-9q27.65-35.49 55.49-70.82c5.32-6.8 5.29-10.49-.12-17.3zm-168.05 67.8c1.23-4.28 2.77-8.45 4.27-12.65 13.4-37.62 41.75-52.27 77-62.27a155.26 155.26 0 0 1 17.3-4c4-.64 4.25-6.53 4.2-10.45-.13-10.38-.13-20.76-.1-31.14q24.33 31 48.68 62-24.34 30.88-48.5 61.92c0-7.79-.08-15.59 0-23.38.07-8.59 1.18-13.83-6.89-13.56-3.72.12-7.4.43-11 .88-32.16 1.26-60.79 11.37-84.96 32.65z"/></svg>