<svg id="1c8747b8-b9aa-4095-93eb-3704109ea1fb" data-name="Layer 16" xmlns="http://www.w3.org/2000/svg" viewBox="0 0 155.63 197"><title>trash</title><path d="M156,198H47.63a31,31,0,0,1-1.05-4.76c-1.42-22.19-2.76-44.38-4.14-66.57C41.15,106.1,39.78,85.55,38.57,65c-.19-3.27-1.44-4.77-4.77-4.7s-6.54-.13-9.81-.21V41.37c1.79-.1,3.59-.29,5.38-.29q72.43,0,144.86,0c1.79,0,3.59.19,5.38.29V60.09c-3.12.08-6.24.3-9.35.2-3.41-.11-5.05,1.09-5.26,4.76-.78,13.59-1.89,27.16-2.73,40.74-1.47,23.9-2.61,47.82-4.39,71.7C157.37,184.31,158.23,191.31,156,198Zm-26.79-27.63h-.41c0,1.31.08,2.63,0,3.94-.28,3.66,1.52,4.93,5,4.92s5.09-1.18,5.17-4.85c.13-6.22.6-12.44,1-18.65,1.21-18.64,2.47-37.27,3.68-55.91.73-11.28,1.35-22.57,2.15-33.85.28-3.94-1-5.64-5.22-5.63-8.65,0-8.66-.17-9.39,8.74-.16,2-.35,3.92-.39,5.89Q130,122.65,129.18,170.36ZM73.05,123.09c0-6.06.11-12.12,0-18.18C72.75,92,73.34,79,72.21,66.06c-.17-1.9.39-4.48-1.93-5.13-3.62-1-7.68-1.47-11,.23-2.71,1.38-1.36,4.77-1.21,7.28.82,13.57,1.82,27.14,2.67,40.71q2.06,32.87,4,65.75c.16,2.83,1.34,4.1,4.19,4.28,4,.25,6.25-.85,6-5.43C73.85,156.88,73.85,140,73.05,123.09Zm34.66-3.38c1.43-18.15-.06-36.38,1.47-54.53.14-1.62.4-3.73-1.53-4.25-3.81-1-8-1.37-11.58,0-3.29,1.29-1.37,4.91-1.4,7.53,0,2.13.24,4.25.28,6.38q.67,41.29,1.34,82.58c.1,5.73.58,11.45.72,17.19.08,3.41,1.78,4.5,5,4.53,4.32,0,4.45-2.71,4.64-5.89C107.68,155.44,107.2,137.57,107.72,119.71Z" transform="translate(-23.99 -0.98)"/><path d="M116.58,1c.62,12.56.62,12.55,13.26,12.56,10.33,0,20.65.11,31,0,4-.05,5.53,1.43,5.43,5.49-.38,16,2.17,13.7-13.31,13.75-36.06.12-72.12,0-108.19,0-7.32,0-7.41,0-7.33-7.39.14-13-1.93-11.77,11.75-11.84,10.33-.05,20.65,0,31,0,6.4,0,6.61-.26,6.7-6.65,0-2,.11-3.93.17-5.9Z" transform="translate(-23.99 -0.98)"/></svg>