<svg xmlns="http://www.w3.org/2000/svg" data-name="Layer 16" viewBox="0 0 155.63 197"><path d="M132.01 197.02H23.64a31 31 0 0 1-1.05-4.76c-1.42-22.19-2.76-44.38-4.14-66.57-1.29-20.57-2.66-41.12-3.87-61.67-.19-3.27-1.44-4.77-4.77-4.7s-6.54-.13-9.81-.21V40.39c1.79-.1 3.59-.29 5.38-.29h144.86c1.79 0 3.59.19 5.38.29v18.72c-3.12.08-6.24.3-9.35.2-3.41-.11-5.05 1.09-5.26 4.76-.78 13.59-1.89 27.16-2.73 40.74-1.47 23.9-2.61 47.82-4.39 71.7-.51 6.82.35 13.82-1.88 20.51zm-26.79-27.63h-.41c0 1.31.08 2.63 0 3.94-.28 3.66 1.52 4.93 5 4.92s5.09-1.18 5.17-4.85c.13-6.22.6-12.44 1-18.65 1.21-18.64 2.47-37.27 3.68-55.91.73-11.28 1.35-22.57 2.15-33.85.28-3.94-1-5.64-5.22-5.63-8.65 0-8.66-.17-9.39 8.74-.16 2-.35 3.92-.39 5.89q-.8 47.68-1.62 95.39zm-56.16-47.28c0-6.06.11-12.12 0-18.18-.3-12.91.29-25.91-.84-38.85-.17-1.9.39-4.48-1.93-5.13-3.62-1-7.68-1.47-11 .23-2.71 1.38-1.36 4.77-1.21 7.28.82 13.57 1.82 27.14 2.67 40.71q2.06 32.87 4 65.75c.16 2.83 1.34 4.1 4.19 4.28 4 .25 6.25-.85 6-5.43-1.08-16.87-1.08-33.75-1.88-50.66zm34.66-3.38c1.43-18.15-.06-36.38 1.47-54.53.14-1.62.4-3.73-1.53-4.25-3.81-1-8-1.37-11.58 0-3.29 1.29-1.37 4.91-1.4 7.53 0 2.13.24 4.25.28 6.38l1.34 82.58c.1 5.73.58 11.45.72 17.19.08 3.41 1.78 4.5 5 4.53 4.32 0 4.45-2.71 4.64-5.89 1.03-17.81.55-35.68 1.07-53.54zM92.59.02c.62 12.56.62 12.55 13.26 12.56 10.33 0 20.65.11 31 0 4-.05 5.53 1.43 5.43 5.49-.38 16 2.17 13.7-13.31 13.75-36.06.12-72.12 0-108.19 0-7.32 0-7.41 0-7.33-7.39.14-13-1.93-11.77 11.75-11.84 10.33-.05 20.65 0 31 0 6.4 0 6.61-.26 6.7-6.65 0-2 .11-3.93.17-5.9z"/></svg>