<svg xmlns="http://www.w3.org/2000/svg" data-name="Layer 36" viewBox="0 0 200 114.29"><g data-name="2CyifC.tif"><path d="M0 57.59v-.89c9.64-9.6 19.4-19.07 29.94-27.69 12.21-10 25.19-18.66 40.13-24.08A104.14 104.14 0 0 1 91.55 0h17a7.92 7.92 0 0 0 1.08.26 98.73 98.73 0 0 1 36.35 11.33c15.83 8.33 29.29 19.72 41.71 32.43 4.2 4.3 8.26 8.75 12.38 13.13v.89c-9.22 9.28-18.51 18.5-28.64 26.81-12.84 10.54-26.64 19.44-42.48 24.87a108.84 108.84 0 0 1-20.85 4.57h-17a112.4 112.4 0 0 1-19-3.69c-17.4-5.23-31.9-15.27-45.32-27.15C17.46 75.2 8.86 66.28 0 57.59zm139.64-.48c0-22.37-17.68-40.42-39.56-40.44-22.06 0-39.72 18-39.72 40.49s17.73 40.48 39.78 40.46c21.85-.02 39.51-18.13 39.5-40.51z"/><path d="M100.32 81.2c-13.08 0-23.47-10.44-24-23.75A23.93 23.93 0 0 1 97.5 33.3a21.29 21.29 0 0 1 3.55-.18c2.37.17 2.46.4 1.29 2.43a14 14 0 0 0 18.57 19.65c2.37-1.21 2.76-1 2.73 1.63-.14 14.67-11.2 23.34-21.2 24.18-.82.07-1.63.19-2.12.19z"/></g></svg>