<svg xmlns="http://www.w3.org/2000/svg" id="d0cde3ff-69f6-4da9-bca1-c9f55c653483" data-name="Layer 89" viewBox="0 0 192.67 115.59"><defs><style>.a1408e72-2ac4-42c0-af79-d05768ae3026{fill:#76b900;}</style></defs><path id="ab1411b6-2959-43b4-84ec-5dd51f0958e3" d="M96.33 0C28.88 0 0 58 0 58s28.89 57.59 96.33 57.59 96.33-57.62 96.33-57.62S163.76 0 96.33 0zm-.18 112.68a54.89 54.89 0 1 1 54.73-55v.16a54.8 54.8 0 0 1-54.72 54.89zm41.4-56.86V41.49a8.71 8.71 0 0 0-9.16-8.16h-33L81.37 69.44 66.74 33.32h-12L75.5 82.27h10.94l16.41-40.28H124a2.65 2.65 0 0 1 2.75 2.51v8.37a2.58 2.58 0 0 1-2.75 2.44h-18l19.31 26.88h11.49l-13.26-18.22H129a8.19 8.19 0 0 0 8.54-7.78q.01-.18.01-.37z" data-name="VR-Icon.svg" class="a1408e72-2ac4-42c0-af79-d05768ae3026"/></svg>