<?xml version="1.0" encoding="UTF-8" standalone="no"?><!DOCTYPE svg PUBLIC "-//W3C//DTD SVG 1.1//EN" "http://www.w3.org/Graphics/SVG/1.1/DTD/svg11.dtd"><svg width="100%" height="100%" viewBox="0 0 200 200" version="1.1" xmlns="http://www.w3.org/2000/svg" xmlns:xlink="http://www.w3.org/1999/xlink" xml:space="preserve" style="fill-rule:evenodd;clip-rule:evenodd;stroke-linejoin:round;stroke-miterlimit:1.41421;"><g id="Layer6"><path id="Updated_shopping_cart" d="M187.164,52.862l-128.931,0c-1.562,-7.032 -3.125,-13.284 -4.688,-17.972c-0.781,-3.126 -3.126,-5.47 -6.251,-5.47l-37.507,0c-3.907,0 -7.033,3.126 -7.033,6.251c0,3.907 2.344,7.033 6.251,7.033l32.819,0c19.535,84.391 20.316,86.735 20.316,86.735c1.563,10.159 8.596,19.535 17.973,23.442c-0.782,2.345 -1.563,4.689 -1.563,7.033c0,9.377 7.814,16.409 17.191,16.409c8.595,0 16.409,-7.814 16.409,-16.409c0,-0.781 0,-2.344 0,-3.126l33.6,0c0,0.782 0,2.345 0,3.126c0,9.377 7.033,17.191 16.41,17.191c9.376,0 17.19,-7.033 17.19,-16.41c0,-8.595 -6.251,-16.409 -15.628,-17.19c-0.781,0 -0.781,0 -1.562,0l-60.95,0c-16.409,0 -21.879,-5.47 -25.004,-14.066l96.893,0c5.47,0 10.158,-3.125 10.94,-8.595l14.065,-53.917l0,-0.781c0,-0.781 0,-1.563 0,-1.563c0.781,-7.032 -4.688,-12.502 -10.94,-11.721Z" style="fill-rule:nonzero;"/></g></svg>