<svg id="7dc04b3b-27fd-4d4b-ae52-880311b2ac21" data-name="Layer 64" xmlns="http://www.w3.org/2000/svg" viewBox="0 0 194.33 180.6"><title>chat</title><path d="M198.09,26.77V140.64c-4.09,9.73-11.38,13.47-21.91,13.33-28.71-.37-57.43-.08-86.14-.19A10.86,10.86,0,0,0,82,157c-12.37,11.58-24.88,23-37.34,34.52C43,193,41.48,194.74,39,193.78s-2.13-3.46-2.14-5.56c0-10.12-.08-20.24,0-30.36,0-2.91-1-4.2-4-4s-5.82,0-8.73,0c-11.06,0-16.37-3.64-20.45-14V27.53c4.07-10.3,9.4-14,20.43-14,50.67,0,101.35.15,152-.13C186.72,13.39,194,17.06,198.09,26.77Z" transform="translate(-3.76 -13.45)"/></svg>