<svg id="813fae63-b7da-4605-8cc6-d29788ab05f9" data-name="Layer 70" xmlns="http://www.w3.org/2000/svg" viewBox="0 0 166.27 166.27"><defs><style>.\30 c386ab7-d9dc-414a-9885-42400d221628{fill:#231f20;}</style></defs><title>close-thin</title><path class="0c386ab7-d9dc-414a-9885-42400d221628" d="M126.07,100.22,181.6,44.69a5,5,0,0,0,0-7.07L162.52,18.55a5,5,0,0,0-7.07,0L99.92,74.08,44.39,18.55a5,5,0,0,0-7.07,0L18.24,37.62a5,5,0,0,0,0,7.07l55.53,55.53L18.24,155.76a5,5,0,0,0,0,7.07L37.32,181.9a5,5,0,0,0,7.07,0l55.53-55.53,55.53,55.53a5,5,0,0,0,7.07,0l19.07-19.07a5,5,0,0,0,0-7.07Z" transform="translate(-16.78 -17.09)"/></svg>