<?xml version="1.0" encoding="UTF-8" standalone="no"?><!DOCTYPE svg PUBLIC "-//W3C//DTD SVG 1.1//EN" "http://www.w3.org/Graphics/SVG/1.1/DTD/svg11.dtd"><svg width="100%" height="100%" viewBox="0 0 200 200" version="1.1" xmlns="http://www.w3.org/2000/svg" xmlns:xlink="http://www.w3.org/1999/xlink" xml:space="preserve" style="fill-rule:evenodd;clip-rule:evenodd;stroke-linejoin:round;stroke-miterlimit:1.41421;"><g id="Layer5"><path d="M185.642,39.105l-171.558,0c-6.773,0 -12.254,5.481 -12.254,12.254l0,98.034c0,6.773 5.481,12.254 12.254,12.254l171.558,0c6.774,0 12.254,-5.481 12.254,-12.254l0,-98.034c0,-6.773 -5.48,-12.254 -12.254,-12.254Zm-140.731,24.509l5.936,0c4.487,0 8.233,2.537 10.375,6.127l-16.311,0l0,-6.127Zm-18.573,12.254c0,-6.774 5.481,-12.254 12.255,-12.254l0.191,0l0,36.762l-0.191,0c-6.774,0 -12.255,-5.481 -12.255,-12.254l0,-12.254Zm24.509,61.27l-24.509,0l0,-12.254l24.509,0l0,12.254Zm0,-36.762l-5.936,0l0,-12.254l18.19,0c0,6.773 -5.481,12.254 -12.254,12.254Zm12.254,-18.381l-18.19,0l0,-6.127l18.19,0l0,6.127Zm28.601,55.143l-24.508,0l0,-12.254l24.508,0l0,12.254Zm40.843,0l-24.52,0l0,-12.254l24.52,0l0,12.254Zm40.843,0l-24.508,0l0,-12.254l24.508,0l0,12.254Zm-18.381,-36.762c-4.727,0 -8.999,-1.843 -12.254,-4.763c-3.255,2.92 -7.527,4.763 -12.254,4.763c-10.148,0 -18.382,-8.233 -18.382,-18.381c0,-10.148 8.234,-18.381 18.382,-18.381c4.727,0 8.999,1.843 12.254,4.763c3.255,-2.92 7.527,-4.763 12.254,-4.763c10.148,0 18.381,8.233 18.381,18.381c0,10.148 -8.233,18.381 -18.381,18.381Z" style="fill-rule:nonzero;"/></g></svg>