<svg id="575636ca-ea51-4a02-a813-1a40ace88b5c" data-name="Layer 13" xmlns="http://www.w3.org/2000/svg" viewBox="0 0 183.61 193.76"><title>logo</title><path d="M166.77,22.71a32.71,32.71,0,0,1-.89,8.65c-.12.62-.42,1.33.15,1.82s1.42.07,2.06-.27c1.23-.65,2.41-1.44,3.68-2,7.16-3.08,13.84,1.27,14.38,9,.44,6.37-2,11.76-5.06,17-6.53,11.13-15.83,19.68-25.8,27.61a160.5,160.5,0,0,1-32.94,20.67c-4,1.84-4.75,6.53-1.7,9.81a18.39,18.39,0,0,0,7.1,4.3c4.65,1.83,8.35,4.46,8.82,10,.11,1.32,1.25,1.92,2.19,2.63,3.86,2.93,7.68,5.84,9.35,10.75.59,1.74,2.31,2.8,3.82,3.82a14.78,14.78,0,0,1,6.09,7.28,4.75,4.75,0,0,0,2,2.42,19.36,19.36,0,0,1,7.41,9.89,15.68,15.68,0,0,0,4.07,6.06,29.89,29.89,0,0,1,7.62,10.27c2.09,5.09,1.25,9.33-2.56,12.56-3.05,2.58-8.79,2.57-12.71,0a8.89,8.89,0,0,1-1.53-1.17c-4.83-5.05-10.43-8.83-16.54-12.37-5.42-3.14-10-8.41-13.65-13.67-2.86-4.16-5.08-8.67-8.82-12.31-2.2-2.14-3.23-5.32-3.74-8.44a3,3,0,0,0-2.23-2.79c-3.66-1.13-5.56-3.91-6.53-7.38-.78-2.79-1.22-5.67-2-8.45-.57-2-.61-4.6-3.37-4.94s-3.26,2.15-4.18,3.84c-8,14.75-18.42,27.7-30.16,39.59C64,174.15,55.8,179.76,45.55,181.68a22.24,22.24,0,0,1-10.84-.24c-6.09-1.89-8.88-6.81-7.39-13,1-4,1-4-3.24-3.82-5.25.18-10.31-.68-14.84-3.48-6.83-4.22-8.64-12.25-4.29-19,4.5-7,11.4-10.92,18.91-13.83,9.76-3.78,20.06-5.59,30.17-8.06,8.53-2.08,16.38-5.79,24.13-9.76a11.58,11.58,0,0,0,4-3.22c3.12-4,2.91-5.48-1.28-8.16a17.82,17.82,0,0,1-6-6.14c-2.94-5.13-1.57-9.53,3.93-11.69,2.46-1,4.42-2,5.81-4.51,1.85-3.36,5.95-4,9.31-2,2.92,1.72,4.66,4.45,6,7.38,1.1,2.4,1.86,2.47,3.33.3a247.31,247.31,0,0,0,18.52-32.78c5.33-11.27,8.78-23.33,14.5-34.43A27.05,27.05,0,0,1,142,7.12C149.18.65,159.45,2.43,164.1,11A21.18,21.18,0,0,1,166.77,22.71Zm-4.06,1.47a31,31,0,0,0-1.3-7.59c-1.44-4.18-3.78-7.6-8.58-8.16s-8.34,1.49-11.11,5.16a38.54,38.54,0,0,0-4.27,7.93c-8.8,20-16.46,40.63-28.78,59-1.31,2-3.69,4.84-.79,6.78,2.7,1.81,4.58-1.17,6.22-3.08,9-10.46,16.72-21.81,24.08-33.42.57-.9,1.14-2.6,2.57-1.54,1.23.91-.15,1.89-.71,2.69q-3.82,5.39-7.72,10.72c-6.26,8.59-12.54,17.16-18.77,25.78-.69,1-2.08,2-.83,3.35,1,1.1,2.45.61,3.58-.06a45.15,45.15,0,0,0,4.83-3.18c6.39-5,11.71-11,17.33-16.81a94.69,94.69,0,0,0,19.44-28.24A57.22,57.22,0,0,0,162.72,24.18ZM22.4,160.72a27.37,27.37,0,0,0,8.9-1.12c10.17-2.84,19.31-7.76,27.85-13.84,10-7.11,19.56-14.76,26.64-25,.92-1.32,3.12-3.07,1.89-4.3-1.48-1.47-3.2.71-4.55,1.76-13.27,10.42-27.87,18.55-43.23,25.4-.79.35-2,1.27-2.52,0s.88-1.46,1.68-1.89a9.12,9.12,0,0,1,1.2-.47,130.3,130.3,0,0,0,35.07-19.48c3.12-2.45,6.24-4.94,8.55-8.25.37-.53.88-1.1.39-1.72s-1.18-.15-1.75.09-1.15.58-1.74.85c-12.3,5.64-24.59,11.23-38.1,13.63a87.34,87.34,0,0,0-25.29,8.43c-3.73,1.95-7.29,4.15-9.68,7.79a10.36,10.36,0,0,0,2.56,14.57A17.71,17.71,0,0,0,22.4,160.72ZM149.06,76.39c-1.11,2.2-2.7,3-4.1,3.88-6.48,4.22-13,8.38-19.48,12.57a20.85,20.85,0,0,0-5.27,4.68c-.65.84-1.44,1.78-.75,2.91s2,1,3.18.65a53.28,53.28,0,0,0,9.15-3.94,139.58,139.58,0,0,0,28.52-20.86c7.72-7.15,15.08-14.7,19.83-24.32A18,18,0,0,0,182,42c-.69-6.55-6.72-9.54-12.29-6.06A26.53,26.53,0,0,0,161.55,44c-3.71,5.66-7.26,11.44-11.35,16.81A178.73,178.73,0,0,1,119,92.26c-1.15.92-3.46,1.88-2,3.66s2.61-.6,3.67-1.33c7.34-5,14.57-10.25,21.89-15.34A13.27,13.27,0,0,1,149.06,76.39ZM41.4,177.53c7.47-.14,14-2.87,19.91-7.29,9.67-7.3,17.52-16.39,24.95-25.88A71.85,71.85,0,0,0,97,126.51c.26-.67.8-1.52-.08-2s-1.34.44-1.72,1c-1.45,2.25-2.86,4.54-4.27,6.82a122.16,122.16,0,0,1-17,21.34c-.67.68-1.68,2-2.67,1-1.14-1.12.38-1.91,1.1-2.49,4.74-3.78,8.54-8.45,12.31-13.12,3.5-4.33,7-8.76,8.55-14.26.35-1.2,1.05-2.64-.37-3.51s-2.43.41-3.38,1.18A43.9,43.9,0,0,0,86,125.87c-11.16,11.26-23.36,21.19-37.26,28.91-4.5,2.5-9.14,4.77-13.55,7.42-3.64,2.18-5.61,6.76-4.68,9.82,1,3.27,4.32,5.31,9,5.51C40.11,177.55,40.75,177.53,41.4,177.53ZM98.81,90.6c-6.43.11-12.08,9-9.29,14.93a24.37,24.37,0,0,0,11.23,11.95c6.7,3.34,12.84.55,14.88-6.72C117.88,102.73,107.63,90.44,98.81,90.6Zm33.63,39.55c.33-2.79-1.11-5-3.71-6.59s-5-2.88-7.45-4.47c-2.57-1.69-4.65-1.61-7.24.36a5.89,5.89,0,0,0-2.61,6.32c.36,2.11.76,4.22,1,6.35.8,5.85,4.63,9.54,9.58,9.18A11.63,11.63,0,0,0,132.44,130.14Zm9.82,38.95a12.46,12.46,0,0,0,11.61-8.54C155,157,152.69,152,148.72,149c-1.46-1.1-2.23-.57-3.14.62-3.15,4.14-6.7,7.78-11.84,9.44-1,.32-1.61.83-1.27,2.13C133.56,165.31,138.14,169.1,142.25,169.09ZM131.66,155c4.42,0,10.5-4.64,11.87-9.51,1.23-4.4-2.26-6.49-5.1-8.75-.25-.2-.51-.4-.75-.61-1.36-1.23-2.48-1-3.4.54a16,16,0,0,1-9.74,7.41c-1.57.45-1.86,1.4-1.73,2.9C123.25,152.3,126.14,155,131.66,155Zm11.48,19.15c3,3.4,5.8,6.33,10,7.13,4.69.89,9.6-2.61,11.2-7.69,1.23-3.94-1.44-10.62-4.9-12.45-1.2-.64-1.51.06-1.86.92C155,168.38,150.48,172.58,143.14,174.1Zm14.23,11c3.35,3.63,6.44,6.68,10.8,8,5.23,1.6,8.11-.56,8.14-6,0-4.39-2.57-7.58-4.9-10.93-1.38-2-2.13-2.64-3.34.3C166.25,180.86,163.1,184.15,157.36,185.08ZM84.71,96.17c1.83,0,2.72-1,3.07-2.68.77-3.58-2.71-8.61-6.36-9.22-2-.34-3.28.55-3.87,2.48C76.26,91,80.28,96.31,84.71,96.17ZM96.9,85.06c0-4.67-3.18-8-7.09-8.12-2.56-.07-3.41,1.48-3.46,3.64-.09,3.9,3.74,8.28,7.2,8.19C96.19,88.7,96.83,86.82,96.9,85.06Z" transform="translate(-2.6 -3.22)"/></svg>