<svg id="1704e5b7-ba0a-4726-ae7c-0b5841f65bd1" data-name="Layer 8" xmlns="http://www.w3.org/2000/svg" viewBox="0 0 161 196"><title>word</title><path d="M179.5,55.67H145.19c-7.27,0-16.22-9.4-16.22-16V2Z" transform="translate(-19.5 -2)"/><path d="M144.08,61.54c-10.33-.54-21.8-10.79-21.8-22.13L122.11,2H32.72C25.45,2,19.5,7.4,19.5,14V186c0,6.6,5.95,12,13.22,12H167.28c7.27,0,13.22-5.4,13.22-12V61.83Zm-33.64,82.79-10-37.46-9.95,37.46h-11l-12-50.11H77.93l7.55,34.42,9.16-34.42h12l8.78,35,7.69-35h10.19l-12.17,50.11Z" transform="translate(-19.5 -2)"/></svg>