<svg id="1a8d6970-4ebc-4f53-a992-b5387f9f576c" data-name="Layer 83" xmlns="http://www.w3.org/2000/svg" viewBox="0 0 175.83 173.04"><title>pacman</title><path d="M188,99c-.16,9.88-8.29,17.41-18.51,17.14a17.78,17.78,0,0,1-17.25-17.79c.14-9.39,9.17-18.26,18.28-18C180.16,80.71,188.19,89.25,188,99Z" transform="translate(-12.2 -12.79)"/><path d="M167.85,135.17c-17.84-10.27-35.5-20.84-53.19-31.37-6.58-3.92-6.59-4.9-.07-8.78,17.69-10.53,35.32-21.16,53.19-31.36,5.51-3.15,6-6,2.58-11.15-13.06-19.38-31-31.48-53.55-37.05l-5.5-1.34c-9.4-2.08-16.87-1.43-27,0-18.9,4.31-35.78,12.4-48.84,27.08C13.36,66,6.6,94.8,16.93,126.32c10.43,31.82,33.28,51.11,66,58,32,6.79,70.36-10.58,87.83-38.64C173.94,140.55,172.78,138,167.85,135.17ZM92.66,54c.14-9.39,9.17-18.26,18.28-18,9.61.32,17.64,8.86,17.48,18.61S120.14,72,109.91,71.75A17.78,17.78,0,0,1,92.66,54Z" transform="translate(-12.2 -12.79)"/></svg>