<svg id="4c874c0e-c6d5-4683-9be6-b2816371dbdf" data-name="Layer 9" xmlns="http://www.w3.org/2000/svg" viewBox="0 0 161 196"><title>excel</title><path d="M179.5,55.67H145.19c-7.27,0-16.22-9.4-16.22-16V2Z" transform="translate(-19.5 -2)"/><path d="M144.08,61.54c-10.33-.54-21.8-10.79-21.8-22.13L122.11,2H32.72C25.45,2,19.5,7.4,19.5,14V186c0,6.6,5.95,12,13.22,12H167.28c7.27,0,13.22-5.4,13.22-12V61.83ZM114.2,145.43l-11.91-18.58L90.34,145.43h-13l18.36-28L79.06,91.71H91.74L102.51,109l10.55-17.26h12.57L108.92,117.8l18.36,27.63Z" transform="translate(-19.5 -2)"/></svg>