<svg id="95d32f57-8c93-42cf-84d4-a916fcaa2152" data-name="Layer 20" xmlns="http://www.w3.org/2000/svg" viewBox="0 0 193.67 198.75"><title>copy</title><path d="M196.28,48.37H165.8c-6.46,0-14.41-8.35-14.41-14.21V.7Z" transform="translate(-3.5 -0.7)"/><path d="M164.82,53.59c-9.17-.48-19.36-9.59-19.36-19.66L145.31.7H65.91c-6.46,0-11.74,4.8-11.74,10.66V164.13c0,5.86,5.28,10.66,11.74,10.66H185.42c6.46,0,11.74-4.8,11.74-10.66V53.84ZM72.37,38.3h54.18V54.58H72.37ZM177.05,69.39V85.67H72.37V69.39Zm0,77.57H72.37V130.67H177.05Zm0-31.09H72.37V99.58H177.05Z" transform="translate(-3.5 -0.7)"/><path d="M69.91,186.12H146.5v2.67c0,5.86-5.28,10.66-11.74,10.66H15.24c-6.46,0-11.74-4.8-11.74-10.66V36c0-5.86,5.28-10.66,11.74-10.66H46.17v140.1C45.75,179.82,51.5,186.12,69.91,186.12Z" transform="translate(-3.5 -0.7)"/></svg>