<svg id="c43cafdc-0115-4faf-ab01-8bf7ec669ee4" data-name="Layer 27" xmlns="http://www.w3.org/2000/svg" viewBox="0 0 175.47 195.5"><title>css</title><path d="M101.14,198.21h-.91c-.87-.28-1.72-.6-2.6-.85q-31.47-9-63-18a3.22,3.22,0,0,1-2.75-3.26c-.68-7.19-1.57-14.35-2.38-21.53q-2-17.56-3.92-35.13-1.93-17.34-3.84-34.68t-3.91-34.9C16.55,38,15.17,26.14,13.95,14.27c-.4-3.84-1.28-7.66-1-11.56H184.73c3.65,0,3.65,0,3.65,3.65-.1.52-.23,1-.29,1.56Q185.53,31.27,183,54.61q-3.55,31.84-7.16,63.67c-2.15,19.19-4.31,38.37-6.34,57.57a3.51,3.51,0,0,1-3,3.56Q146,185.14,125.66,191C117.48,193.4,109.31,195.82,101.14,198.21Zm-.4-155.8H55.52c-2.91,0-3.27.35-3.06,3.11.35,4.7.7,9.4,1.16,14.09.32,3.26.41,3.26,3.73,3.26H124c3.19,0,3.39.31,3.11,3.38-.45,4.92-.85,9.85-1.16,14.78-.22,3.54-.17,3.58-3.66,3.58-14.31,0-28.62,0-42.94,0-2,0-2.61.56-2.47,2.62.35,4.93.45,9.88.64,14.82.11,3,.42,3.28,3.32,3.28h40.42c3.34,0,3.43.1,3.2,3.52-.43,6.14-.93,12.28-1.26,18.43a3,3,0,0,1-2.47,3q-9,3-18,6.06a5.49,5.49,0,0,1-3.77,0c-6-2.06-11.94-4.12-17.95-6.07A3.07,3.07,0,0,1,78.66,127c0-2.81-.17-5.63-.29-8.44a1.93,1.93,0,0,0-2.18-2.06q-8.11,0-16.21,0c-1.53,0-2.23.7-2.15,2.24.43,8,.88,15.95,1.24,23.92.08,1.83.93,2.65,2.6,3.19Q80.35,151.84,99,158a5.74,5.74,0,0,0,3.78.06q18.86-6.21,37.76-12.32a3.09,3.09,0,0,0,2.46-3.1q.92-16.29,1.88-32.57c.49-8.35,1-16.7,1.5-25.05.83-13.05,1.74-26.1,2.56-39.15.21-3.28,0-3.46-3.41-3.46Z" transform="translate(-12.92 -2.7)"/></svg>