<svg id="aeb04a87-addd-4cd7-9f87-18f929ef3239" data-name="Layer 53" xmlns="http://www.w3.org/2000/svg" viewBox="0 0 138.19 174"><title>drink</title><path d="M109.35,187.34h-18c-.5-.07-1-.18-1.5-.22A146.35,146.35,0,0,1,75,185.2a2,2,0,0,1-1.91-2.08c-.73-6.46-1.56-12.91-2.37-19.37q-2.14-17.08-4.29-34.17-2.41-19.36-4.77-38.72c-.16-1.31-3.15-2.95-4.34-2.4-.34.16-.32.43-.3.71,0,.51.05,1,.11,1.52q2.73,22.22,5.47,44.45,2.87,23.23,5.75,46.47c.26,2.14.13,2.25-2,1.71-4.12-1-8.15-2.37-12.24-3.49a5.49,5.49,0,0,1-4.36-4.57c-.68-3.1-1.05-6.24-1.46-9.38-1.43-11-2.89-22-4.3-33s-2.77-22.11-4.17-33.16c-1.42-11.28-2.88-22.55-4.3-33.82-1.47-11.67-2.89-23.34-4.36-35-.42-3.36.73-5.51,3.92-6.62a200.43,200.43,0,0,1,41.74-9.7c4.15-.5,8.32-.84,12.48-1.26H111a6.93,6.93,0,0,0,1,.2,187.56,187.56,0,0,1,28,3.79,210.15,210.15,0,0,1,25,6.88c3.14,1.07,4.45,3.14,4.1,6.35-.13,1.18-.29,2.36-.44,3.53Q167,48,165.17,61.86t-3.59,27.58q-1.78,13.71-3.54,27.42c-1.2,9.31-2.43,18.61-3.61,27.92-1.22,9.65-2.44,19.29-3.53,29-.35,3.12-1.71,5.12-4.74,6.09a169.32,169.32,0,0,1-22,5.6C119.23,186.3,114.28,186.76,109.35,187.34ZM55.91,39.46c.51,4.22,1,8.49,1.54,12.76q1.09,9,2.16,18c.16,1.4.69,1.87,2.24,1.6A215.85,215.85,0,0,1,94.45,69a244.43,244.43,0,0,1,34.89,1.7c7.31.88,14.57,2.05,21.49,4.74,1.77.69,2,.54,2.23-1.35q2.34-18.17,4.69-36.34c.21-1.63-.09-1.94-1.7-1.59-11.15,2.43-22.48,3.4-33.83,4.06-8.92.51-17.86.8-26.81.77-8.27,0-16.52-.26-24.76-1-4.45-.39-8.89-.9-13.3-1.58C56.52,38.32,55.83,38.26,55.91,39.46Zm43.4,52.29A207.11,207.11,0,0,0,136.14,89a59.14,59.14,0,0,0,13.4-3.64c.55-.24,1.4-.37,1.43-1,0-.82-.91-.89-1.49-1.15a46.79,46.79,0,0,0-9.08-2.77c-13.17-2.88-26.56-3.5-40-3.68a234.54,234.54,0,0,0-24.24,1A134.65,134.65,0,0,0,62.41,79.6c-1.19.23-1.64.73-1.41,2,.27,1.5.39,3,.55,4.55.28,2.75.42,2.83,3.1,3.25A217,217,0,0,0,99.31,91.75ZM48.91,31.24c.91.23,1.82.49,2.74.69,13.23,2.82,26.66,3.56,40.14,3.72,9.11.11,18.21-.21,27.32-.63s18.28-1.21,27.35-2.5a21.15,21.15,0,0,0,5.9-1.31C117.56,21.16,83.26,21.11,48.91,31.24Zm5.6,40.89c0-.23,0-.35,0-.46q-2-16.57-4.05-33.14a1.84,1.84,0,0,0-1.55-1.75c-1.7-.42-3.41-.83-5.07-1.38-1.28-.43-1.55-.16-1.38,1.18,1.13,8.8,2.2,17.6,3.29,26.4.47,3.76,1,7.51,1.41,11.27.13,1.08.52,1.31,1.55.91,1.47-.57,3-1,4.52-1.45C54.08,73.44,54.62,73,54.5,72.13Zm1.75,14.62c-.2-1.77-.34-3.06-.5-4.35-.11-.93-.61-1.28-1.53-1-1.6.55-3.21,1.07-4.8,1.64-.54.19-1.08.45-1,1.16s.51,1,1,1.21a34.72,34.72,0,0,0,5.44,1.85C55.78,87.54,56.33,87.36,56.25,86.75Z" transform="translate(-31.07 -13.34)"/></svg>