<svg id="bb212927-8a25-41bf-85c3-213f0dafa9a9" data-name="Layer 41" xmlns="http://www.w3.org/2000/svg" viewBox="0 0 197.07 197.08"><title>eyedropper</title><path d="M168.75,1.7h2.81A19.9,19.9,0,0,1,182,5.9a81,81,0,0,1,12.6,12.64,18.53,18.53,0,0,1,4.21,11.39,22.33,22.33,0,0,1-3.92,12.66,63.87,63.87,0,0,1-8.54,10.51Q172.86,66.59,159.39,80a5.22,5.22,0,0,1-.81.75c-.79.51-.69.91-.06,1.54q6.07,6,12.06,12.1a6.68,6.68,0,0,1-.06,9.85c-3.71,3.73-7.52,7.36-11.13,11.19a7.1,7.1,0,0,1-10.57,0c-2.43-2.58-5-5-7.52-7.55-1.45-1.44-1.16-1.51-2.67,0q-36.53,36.52-73.08,73a27.38,27.38,0,0,1-23.67,8,4.74,4.74,0,0,0-4.12,1.39c-1,1-1.93,2-2.93,2.9a19.81,19.81,0,0,1-28-.53A19.45,19.45,0,0,1,1.7,182.22v-5.63a20.74,20.74,0,0,1,4-9.42c1.31-1.67,2.9-3.06,4.34-4.6a4.5,4.5,0,0,0,1.33-4.22,13.86,13.86,0,0,1-.29-2.79,28.33,28.33,0,0,1,8.47-20.92Q56.2,98,92.84,61.38c1-1,1-1,0-2-2.73-2.72-5.5-5.4-8.19-8.15a6.79,6.79,0,0,1,0-10q5.6-5.63,11.22-11.23a6.74,6.74,0,0,1,3.22-2,7.27,7.27,0,0,1,7.25,2.11c3.87,3.9,7.77,7.77,11.65,11.66.45.45.75.84,1.44.14,9.51-9.58,19-19.22,28.62-28.66C153.87,7.56,160.31,2.77,168.75,1.7ZM58.3,142.23c9.25,0,18.49,0,27.74,0a3.1,3.1,0,0,0,2.39-1q21.08-21.13,42.2-42.22c.92-.92.92-.93,0-1.87q-13.72-13.77-27.43-27.57c-.75-.76-1.11-.66-1.8,0q-35.75,35.81-71.53,71.58c-.12.12-.24.23-.35.36s-.36.27-.26.49.34.16.54.17H58.3Z" transform="translate(-1.7 -1.7)"/></svg>