<svg id="15389376-76d2-4098-8e88-bb30150ef0b2" data-name="Layer 33" xmlns="http://www.w3.org/2000/svg" viewBox="0 0 190.75 193.5"><title>tree</title><path d="M154.5,55.75H183a12,12,0,0,0,12-12V15.25a12,12,0,0,0-12-12H154.5a12,12,0,0,0-12,12v6.5H115.75A7.77,7.77,0,0,0,108,29.5c0,.25,0,.5,0,.75s0,.5,0,.75V90.5H88.5V69.88a12,12,0,0,0-12-12H16.25a12,12,0,0,0-12,12v60.25a12,12,0,0,0,12,12H76.5a12,12,0,0,0,12-12V110.5H108V169c0,.25,0,.5,0,.75s0,.5,0,.75a7.77,7.77,0,0,0,7.75,7.75H142.5v6.5a12,12,0,0,0,12,12H183a12,12,0,0,0,12-12v-28.5a12,12,0,0,0-12-12H154.5a12,12,0,0,0-12,12v6.5h-16V110.5h16v3.75a12,12,0,0,0,12,12H183a12,12,0,0,0,12-12V85.75a12,12,0,0,0-12-12H154.5a12,12,0,0,0-12,12V90.5h-16V37.25h16v6.5A12,12,0,0,0,154.5,55.75Z" transform="translate(-4.25 -3.25)"/></svg>