<svg id="037769ef-2782-446f-a2de-77bd28ea14a2" data-name="Layer 12" xmlns="http://www.w3.org/2000/svg" viewBox="0 0 196.86 196.94"><title>link</title><path d="M189.9,34,165.39,9.48c-9.33-9.33-23.2-10.74-30.82-3.12L87.83,53.1c-7.62,7.62-6.21,21.49,3.12,30.82l4,4-7.45,7.45-4-4c-9.33-9.33-23.2-10.74-30.82-3.12L6,135c-7.62,7.62-6.21,21.49,3.12,30.82l24.51,24.51c9.33,9.33,23.2,10.74,30.82,3.12l46.74-46.74c7.62-7.62,6.21-21.49-3.12-30.82l-3.54-3.54,7.45-7.45,3.49,3.49c9.33,9.33,23.2,10.74,30.82,3.12L193,64.82C200.64,57.2,199.23,43.33,189.9,34Zm-101,112L63.6,171.28c-7.62,7.62-21.49,6.21-30.82-3.12l-1.55-1.55c-9.33-9.33-10.74-23.2-3.12-30.82l25.26-25.26c5.44-5.44,14.07-6.26,22-2.89l-5.07,5.07a12,12,0,1,0,17,17l4.85-4.85C95.08,132.5,94.13,140.75,88.86,146Zm81.85-81.93L145.45,89.35c-5.25,5.25-13.47,6.21-21.13,3.24L128.93,88a12,12,0,0,0-17-17l-4.86,4.86c-3.4-7.91-2.6-16.56,2.86-22l25.26-25.26C142.83,21,156.7,22.38,166,31.71l1.55,1.55C176.92,42.6,178.33,56.47,170.71,64.09Z" transform="translate(-1.07 -1.45)"/></svg>