<svg id="0d172290-869e-4f71-8ca3-72ad50a7433b" data-name="Layer 10" xmlns="http://www.w3.org/2000/svg" viewBox="0 0 161 196"><title>ppt</title><path d="M179.5,55.67H145.19c-7.27,0-16.22-9.4-16.22-16V2Z" transform="translate(-19.5 -2)"/><path d="M106.69,101.16a52.26,52.26,0,0,0-7.81-.37H93.64V116h5.94q6.41,0,8.57-.84a7.12,7.12,0,0,0,3.39-2.64,7.22,7.22,0,0,0,1.23-4.18,6.94,6.94,0,0,0-1.72-4.84A7.51,7.51,0,0,0,106.69,101.16Z" transform="translate(-19.5 -2)"/><path d="M144.08,61.54c-10.33-.54-21.8-10.79-21.8-22.13L122.11,2H32.72C25.45,2,19.5,7.4,19.5,14V186c0,6.6,5.95,12,13.22,12H167.28c7.27,0,13.22-5.4,13.22-12V61.83Zm-21.92,55a14.73,14.73,0,0,1-4.56,5.29A15.73,15.73,0,0,1,112,124.4a61.87,61.87,0,0,1-11.25.77H93.64v20.27H82.79V91.71H100.2q9.89,0,12.9.81a14.09,14.09,0,0,1,7.73,5.26,16.68,16.68,0,0,1,3.12,10.46A17.55,17.55,0,0,1,122.15,116.55Z" transform="translate(-19.5 -2)"/></svg>