<svg id="05311f82-099b-4431-b8ab-f11644c8df1b" data-name="Layer 47" xmlns="http://www.w3.org/2000/svg" viewBox="0 0 195.1 195.2"><title>reorder</title><path d="M145.84,133.14l25.66,43c4.64,7.78,4.41,19.67-2.94,20.93-13.31,2.28-52.94-9-56.33-14.74s5.48-45.95,13.8-56.57C130.63,119.91,141.2,125.36,145.84,133.14Z" transform="translate(-1.81 -2.19)"/><path d="M141.28,143.33c-7.66,2.08,15.33,39.47,20.92,34,33.18-32.21,48.8-51.55,18.51-103.63C180.71,73.74,205.67,125.83,141.28,143.33Z" transform="translate(-1.81 -2.19)"/><path d="M52.89,66.44l-25.66-43c-4.64-7.78-4.41-19.67,2.94-20.93,13.31-2.28,52.94,9,56.33,14.74S81,63.17,72.7,73.8C68.1,79.67,57.53,74.21,52.89,66.44Z" transform="translate(-1.81 -2.19)"/><path d="M57.45,56.24c7.66-2.08-15.33-39.47-20.92-34C3.35,54.41-12.27,73.74,18,125.83,18,125.83-6.94,73.74,57.45,56.24Z" transform="translate(-1.81 -2.19)"/><rect x="28.59" y="81.42" width="137.92" height="33.22" rx="12" ry="12"/><rect x="97.55" y="14.42" width="68.96" height="33.22" rx="12" ry="12"/><rect x="28.59" y="149.42" width="68.96" height="33.22" rx="12" ry="12"/></svg>