<svg id="50529c28-efb3-480c-b9dc-fe6d0a08a7e9" data-name="Layer 86" xmlns="http://www.w3.org/2000/svg" viewBox="0 0 196.33 123.31"><title>vr</title><path d="M196.33,49.67a12,12,0,0,0-12-12s-63.12-2-84.17-2-84.17,2-84.17,2a12,12,0,0,0-12,12S2,93.4,2,106c0,11.76,2,41,2,41a12,12,0,0,0,12,12H72.33S87.64,117.79,100,118c12.09.21,25.67,41,25.67,41h58.67a12,12,0,0,0,12-12s2-36.48,2-48.65S196.33,49.67,196.33,49.67ZM48.67,122.33A28.33,28.33,0,1,1,77,94,28.33,28.33,0,0,1,48.67,122.33Zm102,0A28.33,28.33,0,1,1,179,94,28.33,28.33,0,0,1,150.67,122.33Z" transform="translate(-2 -35.67)"/></svg>